SplineFontDB: 3.0
FontName: VeranaSans-Oblique
FullName: Verana Sans Oblique
FamilyName: Verana Sans
Weight: Normal
Copyright: Copyright (c) Arkandis Digital fondry, from initial release of Bitstream VeraSans Font modified  and under Public Domain.
Version: 1.002
ItalicAngle: -11
UnderlinePosition: -100
UnderlineWidth: 50
Ascent: 760
Descent: 240
sfntRevision: 0x00010041
LayerCount: 2
Layer: 0 0 "Arri+AOgA-re"  1
Layer: 1 0 "Avant"  0
NeedsXUIDChange: 1
XUID: [1021 905 1196402830 14882325]
BaseHoriz: 2 'ideo' 'romn'
BaseScript: 'latn' 1  -135 0
FSType: 8
OS2Version: 2
OS2_WeightWidthSlopeOnly: 0
OS2_UseTypoMetrics: 1
CreationTime: 1214138614
ModificationTime: 1312110957
PfmFamily: 17
TTFWeight: 400
TTFWidth: 5
LineGap: 200
VLineGap: 0
Panose: 2 11 5 6 2 2 2 9 0 3
OS2TypoAscent: 0
OS2TypoAOffset: 1
OS2TypoDescent: 0
OS2TypoDOffset: 1
OS2TypoLinegap: 200
OS2WinAscent: 0
OS2WinAOffset: 1
OS2WinDescent: 0
OS2WinDOffset: 1
HheadAscent: -168
HheadAOffset: 1
HheadDescent: -4
HheadDOffset: 1
OS2SubXSize: 650
OS2SubYSize: 600
OS2SubXOff: -15
OS2SubYOff: 75
OS2SupXSize: 650
OS2SupYSize: 600
OS2SupXOff: 68
OS2SupYOff: 350
OS2StrikeYSize: 70
OS2StrikeYPos: 328
OS2Vendor: 'ADFP'
OS2CodePages: 00000003.00000000
OS2UnicodeRanges: 800000af.5000204a.00000000.00000000
Lookup: 1 0 0 "'aalt' Activer toutes les variantes dans Latin lookup 0"  {"sous-table 'aalt' Activer toutes les variantes dans Latin lookup 0"  } ['aalt' ('latn' <'dflt' > ) ]
Lookup: 3 0 0 "'aalt' Activer toutes les variantes dans Latin lookup 1"  {"sous-table 'aalt' Activer toutes les variantes dans Latin lookup 1"  } ['aalt' ('latn' <'dflt' > ) ]
Lookup: 1 0 0 "'numr' Num+AOkA-rateurs dans Latin lookup 2"  {"sous-table 'numr' Num+AOkA-rateurs dans Latin lookup 2"  } ['numr' ('latn' <'dflt' > ) ]
Lookup: 1 0 0 "'dnom' D+AOkA-nominateurs dans Latin lookup 3"  {"sous-table 'dnom' D+AOkA-nominateurs dans Latin lookup 3"  } ['dnom' ('latn' <'dflt' > ) ]

StartChar: .notdef
Encoding: 65536 -1 0
Width: 600
Flags: W
HStem: -177 56<19 407> 649 56<169 557>
LayerCount: 2
Fore
SplineSet
-48 -177 m 1
 124 705 l 1
 624 705 l 1
 452 -177 l 1
 -48 -177 l 1
19 -121 m 1
 407 -121 l 1
 557 649 l 1
 169 649 l 1
 19 -121 l 1
EndSplineSet
Validated: 1
EndChar

StartChar: exclam
Encoding: 33 33 2
Width: 401
Flags: W
HStem: 0 124<112 187> 709 20G<225.125 328>
VStem: 143 79<235 262.682>
LayerCount: 2
Fore
SplineSet
112 124 m 1
 211 124 l 1
 187 0 l 1
 88 0 l 1
 112 124 l 1
229 729 m 1
 328 729 l 1
 266 409 l 1
 222 235 l 1
 143 235 l 1
 167 409 l 1
 229 729 l 1
EndSplineSet
Validated: 1
Position2: "sous-table 'cpsp' Chasses pour composition en capitales dans Latin lookup 1" dx=5 dy=0 dh=10 dv=0
EndChar

StartChar: quotedbl
Encoding: 34 34 3
Width: 460
Flags: W
HStem: 458 271<174 205 359 390>
VStem: 122 320
LayerCount: 2
Fore
SplineSet
257 729 m 1
 205 458 l 1
 122 458 l 1
 174 729 l 1
 257 729 l 1
442 729 m 1
 390 458 l 1
 307 458 l 1
 359 729 l 1
 442 729 l 1
EndSplineSet
Validated: 1
EndChar

StartChar: numbersign
Encoding: 35 35 4
Width: 838
Flags: W
HStem: 0 21G<117 204.812 339 425.911> 202 75<67 207 318 428 540 681> 440 75<170 312 424 533 646 783>
LayerCount: 2
Fore
SplineSet
533 440 m 1
 391 440 l 1
 318 277 l 1
 461 277 l 1
 533 440 l 1
514 718 m 1
 424 515 l 1
 567 515 l 1
 657 718 l 1
 735 718 l 1
 646 515 l 1
 798 515 l 1
 783 440 l 1
 612 440 l 1
 540 277 l 1
 695 277 l 1
 681 202 l 1
 507 202 l 1
 417 0 l 1
 339 0 l 1
 428 202 l 1
 285 202 l 1
 196 0 l 1
 117 0 l 1
 207 202 l 1
 53 202 l 1
 67 277 l 1
 239 277 l 1
 312 440 l 1
 155 440 l 1
 170 515 l 1
 346 515 l 1
 435 718 l 1
 514 718 l 1
EndSplineSet
Validated: 1
EndChar

StartChar: dollar
Encoding: 36 36 5
Width: 636
Flags: W
HStem: 0 69<125.153 226 288 359.386> 576 69<264.498 337 400 496.089> 740 20G<369.174 422>
VStem: 106.224 93.5325<407.485 517.436> 436.092 93.494<133.6 246.64>
LayerCount: 2
Fore
SplineSet
246 -147 m 1
 197 -147 l 1
 226 0 l 1
 157 1 92 16 28 45 c 1
 45 133 l 1
 104 92 167 70 239 69 c 1
 282 292 l 1
 161.326341244 312.835739641 106.224106163 356.282315033 106.224106163 430.845941908 c 0
 106.224106163 442.169692962 107.494960549 454.211114384 110 467 c 0
 131 572 216 636 351 645 c 1
 373 760 l 1
 422 760 l 1
 400 646 l 1
 460 645 514 633 565 616 c 1
 549 531 l 1
 499 558 446 573 386 576 c 1
 346 367 l 1
 471.066586839 346.884395124 529.585975796 300.761839351 529.585975796 221.942491912 c 0
 529.585975796 210.640513034 528.382761189 198.666256848 526 186 c 1
 504 77 415 10 275 1 c 1
 246 -147 l 1
299 376 m 1
 337 576 l 1
 260 568 213 532 202 475 c 0
 200.512639118 467.427980965 199.756598036 460.331319799 199.756598036 453.687767348 c 0
 199.756598036 411.197933377 230.681955425 387.242209867 299 376 c 1
329 282 m 1
 288 71 l 1
 373 82 422 118 434 177 c 0
 435.388631422 184.195635549 436.092000193 191.008798921 436.092000193 197.451560864 c 0
 436.092000193 242.044934398 402.395905507 268.893588302 329 282 c 1
EndSplineSet
Validated: 524289
EndChar

StartChar: percent
Encoding: 37 37 6
Width: 950
Flags: W
HStem: -14 62<623.264 729.644> 321 62<668.89 775.571> 345 62<189.108 296.102> 680 62<235.323 341.892>
VStem: 91.1421 78.6021<426.588 597.451> 361.256 78.6021<489.495 660.091> 524.488 78.7516<68.4043 238.505> 794.37 78.561<130.549 301.008>
LayerCount: 2
Fore
SplineSet
726 321 m 0xdf
 670 321 625 271 608 184 c 0
 604.8 167.2 603.24 151.68 603.24 137.6 c 0
 603.24 81.28 628.2 48 673 48 c 0
 729 48 773 100 789 184 c 0
 792.608456698 202.042283492 794.369649212 218.597744592 794.369649212 233.484676435 c 0
 794.369649212 288.732392859 770.113319111 321 726 321 c 0xdf
738 383 m 0
 823.89420268 383 872.930629428 328.756480703 872.930629428 240.567193469 c 0
 872.930629428 223.004330946 870.985816851 204.095159958 867 184 c 0
 844 63 764 -14 661 -14 c 0
 573.733962357 -14 524.488404706 40.2143881376 524.488404706 129.146976902 c 0
 524.488404706 146.200513797 526.299219863 164.530678412 530 184 c 0
 554 307 634 383 738 383 c 0
292 680 m 0
 236 680 192 628 175 544 c 0
 171.463164378 525.899723581 169.74427568 509.400971833 169.74427568 494.620813571 c 0
 169.74427568 438.359307105 194.650752638 407 239 407 c 0xbf
 296 407 339 457 356 544 c 0
 359.536835622 561.476128956 361.25572432 577.567155494 361.25572432 592.092973747 c 0
 361.25572432 647.386320611 336.349247362 680 292 680 c 0
745 742 m 1
 823 742 l 1
 220 -14 l 1
 142 -14 l 1
 745 742 l 1
304 742 m 0
 390.094545569 742 439.857855358 688.201823941 439.857855358 599.87757801 c 0
 439.857855358 582.534301443 437.939135013 563.859805691 434 544 c 0
 410 421 331 345 227 345 c 0
 140.905454431 345 91.142144642 398.099498448 91.142144642 487.362402027 c 0
 91.142144642 504.889992642 93.060864987 523.811933058 97 544 c 0
 121 665 201 742 304 742 c 0
EndSplineSet
Validated: 524289
Ligature2: "sous-table Remplacement de ligature lookups12" zero fraction zero
Ligature2: "sous-table Remplacement de ligature lookups12" zero slash zero
EndChar

StartChar: ampersand
Encoding: 38 38 7
Width: 780
Flags: W
HStem: -14 79<198.9 387.759> 0 21G<547.167 686> 665 77<340.874 514.342>
VStem: 38.2915 96.3641<125.599 278.237> 190 93.8931<489.155 609.123> 637 91<333.139 391>
LayerCount: 2
Fore
SplineSet
256 392 m 1xbc
 187 340 149 288 138 231 c 0
 135.78041096 219.408812791 134.655616477 208.24337902 134.655616477 197.518698652 c 0
 134.655616477 164.756895002 145.152009129 136.108127857 167 112 c 0
 196 81 236 65 288 65 c 0
 349 65 407 86 463 127 c 1
 256 392 l 1xbc
335 447 m 2
 534 193 l 1
 584 250 618 316 637 391 c 1
 728 391 l 1
 703 306 653 222 577 139 c 1
 686 0 l 1
 563 0 l 1x7c
 506 72 l 1
 427 13 349 -14 264 -14 c 0
 185 -14 125 8 84 53 c 0
 53.6729471792 87.1179344234 38.2915090164 128.133844843 38.2915090164 176.483554763 c 0
 38.2915090164 191.904907868 39.8562921668 208.072342436 43 225 c 1
 60 309 117 381 217 446 c 1
 199 476.75 190 507.5 190 537.40625 c 0
 190 547.375 191 557.25 193 567 c 0
 213 672 305 742 425 742 c 0
 480 742 530 731 581 707 c 1
 564 618 l 1
 513 649 464 665 420 665 c 0
 352 665 297 625 286 568 c 0
 284.648218313 561.627314903 283.893110497 555.478382508 283.893110497 549.265141095 c 0
 283.893110497 523.304037865 297.076248471 496.220188154 335 447 c 2
EndSplineSet
Validated: 524289
Position2: "sous-table 'cpsp' Chasses pour composition en capitales dans Latin lookup 1" dx=5 dy=0 dh=10 dv=0
EndChar

StartChar: quotesingle
Encoding: 39 39 8
Width: 275
Flags: W
HStem: 458 271<174 205>
VStem: 122 135
LayerCount: 2
Fore
SplineSet
257 729 m 1
 205 458 l 1
 122 458 l 1
 174 729 l 1
 257 729 l 1
EndSplineSet
Validated: 1
EndChar

StartChar: parenleft
Encoding: 40 40 9
Width: 390
Flags: W
HStem: 739 20G<251.5 394>
VStem: 71.2857 92.3734<14.0482 341.717>
LayerCount: 2
Fore
SplineSet
394 759 m 1
 278 608 208 465 179 314 c 0
 168.772727273 262.522727273 163.659090909 211.626549587 163.659090909 160.994506011 c 0
 163.659090909 63.1058884298 182.772727273 -33.7954545455 221 -132 c 1
 143 -132 l 1
 95.6607737458 -23.8969907927 71.2857060454 81.7099142239 71.2857060454 185.526169623 c 0
 71.2857060454 228.642799743 75.4901128563 271.450564281 84 314 c 0
 112 459 187 606 316 759 c 1
 394 759 l 1
EndSplineSet
Validated: 524289
EndChar

StartChar: parenright
Encoding: 41 41 10
Width: 390
Flags: W
HStem: 739 20G<164 265.843>
VStem: 221.63 92.4404<286.26 611.674>
LayerCount: 2
Fore
SplineSet
164 759 m 1
 242 759 l 1
 289.686718159 650.103464502 314.070905224 544.246389582 314.070905224 439.986567279 c 0
 314.070905224 397.760987275 310.071222262 355.797400999 302 314 c 0
 273 169 196 21 69 -132 c 1
 -9 -132 l 1
 107 17 177 163 207 314 c 0
 216.741023441 364.720501366 221.630484314 414.53838644 221.630484314 464.060028082 c 0
 221.630484314 561.969261264 202.517953118 658.720501366 164 759 c 1
EndSplineSet
Validated: 524289
EndChar

StartChar: asterisk
Encoding: 42 42 11
Width: 500
Flags: W
HStem: 722 20G<299.087 359>
LayerCount: 2
Fore
SplineSet
525 609 m 1
 331 514 l 1
 488 419 l 1
 451 371 l 1
 306 470 l 1
 270 286 l 1
 214 286 l 1
 250 470 l 1
 67 371 l 1
 48 419 l 1
 241 514 l 1
 85 609 l 1
 122 657 l 1
 267 558 l 1
 303 742 l 1
 359 742 l 1
 323 558 l 1
 506 657 l 1
 525 609 l 1
EndSplineSet
Validated: 1
EndChar

StartChar: plus
Encoding: 43 43 12
Width: 838
Flags: W
HStem: 0 21G<315 400.824> 272 83<112 367 466 721>
LayerCount: 2
Fore
SplineSet
518 627 m 1
 466 355 l 1
 738 355 l 1
 721 272 l 1
 449 272 l 1
 397 0 l 1
 315 0 l 1
 367 272 l 1
 95 272 l 1
 112 355 l 1
 384 355 l 1
 436 627 l 1
 518 627 l 1
EndSplineSet
Validated: 1
EndChar

StartChar: comma
Encoding: 44 44 13
Width: 318
Flags: W
HStem: -116 240
VStem: -9 190
LayerCount: 2
Fore
SplineSet
78 124 m 1
 181 124 l 1
 164 40 l 1
 54 -116 l 1
 -9 -116 l 1
 61 40 l 1
 78 124 l 1
EndSplineSet
Validated: 1
EndChar

StartChar: hyphen
Encoding: 45 45 14
Width: 361
Flags: W
HStem: 234 80<47 294>
VStem: 31 279
LayerCount: 2
Fore
SplineSet
47 314 m 1
 310 314 l 1
 294 234 l 1
 31 234 l 1
 47 314 l 1
EndSplineSet
Validated: 1
AlternateSubs2: "sous-table 'aalt' Activer toutes les variantes dans Latin lookup 1" endash emdash minus
EndChar

StartChar: period
Encoding: 46 46 15
Width: 318
Flags: W
HStem: 0 124<68 147>
VStem: 44 127
LayerCount: 2
Fore
SplineSet
68 124 m 1
 171 124 l 1
 147 0 l 1
 44 0 l 1
 68 124 l 1
EndSplineSet
Validated: 1
Substitution2: "sous-table 'aalt' Activer toutes les variantes dans Latin lookup 0" ellipsis
EndChar

StartChar: slash
Encoding: 47 47 16
Width: 337
Flags: W
HStem: 709 20G<321.927 415>
LayerCount: 2
Fore
SplineSet
332 729 m 1
 415 729 l 1
 1 -93 l 1
 -82 -93 l 1
 332 729 l 1
EndSplineSet
Validated: 1
Substitution2: "sous-table 'dnom' D+AOkA-nominateurs dans Latin lookup 3" fraction
Substitution2: "sous-table 'numr' Num+AOkA-rateurs dans Latin lookup 2" fraction
Substitution2: "sous-table 'aalt' Activer toutes les variantes dans Latin lookup 0" fraction
EndChar

StartChar: zero
Encoding: 48 48 17
Width: 636
Flags: W
HStem: -14 78<201.689 340.225> 664 78<310.929 450.309>
VStem: 57.7296 98.3463<114.041 389.053> 494.443 98.2372<343.451 614.706>
LayerCount: 2
Fore
SplineSet
384 664 m 0
 283 664 211 564 172 364 c 0
 161.356818148 309.419580247 156.075876293 262.286716045 156.075876293 222.601407394 c 0
 156.075876293 116.867135798 193.563111975 64 267 64 c 0
 370 64 439 164 478 364 c 0
 488.932903472 420.066171652 494.443415028 468.273804294 494.443415028 508.622897927 c 0
 494.443415028 612.207632642 458.125921599 664 384 664 c 0
399 742 m 0
 526.370867577 742 592.680581527 660.788665675 592.680581527 508.385975821 c 0
 592.680581527 465.754754713 587.492014456 417.552990451 577 364 c 0
 530 119 415 -14 252 -14 c 0
 123.606022655 -14 57.729570915 67.5179500547 57.729570915 220.477071763 c 0
 57.729570915 262.895462916 62.795834971 310.808075912 73 364 c 0
 121 609 235 742 399 742 c 0
EndSplineSet
Validated: 524289
Position2: "sous-table 'cpsp' Chasses pour composition en capitales dans Latin lookup 1" dx=5 dy=0 dh=10 dv=0
EndChar

StartChar: one
Encoding: 49 49 18
Width: 636
Flags: W
HStem: 0 83<77 238 336 481> 709 20G<258.571 461>
LayerCount: 2
Fore
SplineSet
77 83 m 1
 238 83 l 1
 346 639 l 1
 164 604 l 1
 181 694 l 1
 362 729 l 1
 461 729 l 1
 336 83 l 1
 497 83 l 1
 481 0 l 1
 61 0 l 1
 77 83 l 1
EndSplineSet
Validated: 1
Position2: "sous-table 'cpsp' Chasses pour composition en capitales dans Latin lookup 1" dx=5 dy=0 dh=10 dv=0
EndChar

StartChar: two
Encoding: 50 50 19
Width: 636
Flags: W
HStem: 0 83<145 473> 659 83<233.304 431.949>
VStem: 474.719 102.033<478.209 618.756>
LayerCount: 2
Fore
SplineSet
145 83 m 1
 489 83 l 1
 473 0 l 1
 10 0 l 1
 26 83 l 1
 70 122 131 174 209 239 c 0
 287 304 335 346 355 365 c 0
 433 436 463 480 472 528 c 0
 473.826303626 537.375025281 474.718699471 546.409100102 474.718699471 555.046273591 c 0
 474.718699471 617.348893724 428.285685393 659 351 659 c 0
 290 659 218 638 130 594 c 1
 149 694 l 1
 236 726 308 742 365 742 c 0
 440 742 496 723 534 685 c 0
 561.927818878 657.072181122 576.75180244 621.16811466 576.75180244 578.147874737 c 0
 576.75180244 564.173012963 575.187523097 549.447227315 572 534 c 1
 561 474 534 427 459 354 c 0
 440 335 335 246 145 83 c 1
EndSplineSet
Validated: 524289
Position2: "sous-table 'cpsp' Chasses pour composition en capitales dans Latin lookup 1" dx=5 dy=0 dh=10 dv=0
EndChar

StartChar: three
Encoding: 51 51 20
Width: 636
Flags: W
HStem: -14 83<88.0349 336.662> 349 81<222 387.584> 659 83<209.114 447.358>
VStem: 438.805 99.2831<160.945 302.529> 485.74 101.161<503.176 624.589>
LayerCount: 2
Fore
SplineSet
419 393 m 1xe8
 496.156966545 376.042424935 538.08791246 324.577727621 538.08791246 252.62529729 c 0
 538.08791246 239.716030054 536.738182442 226.147275948 534 212 c 0
 506 68 388 -14 205 -14 c 0
 144 -14 81 -2 17 22 c 1
 35 117 l 1
 84 85 147 69 218 69 c 0
 342 69 418 119 436 212 c 0
 437.87742117 221.973799966 438.804822781 231.493242751 438.804822781 240.527632568 c 0xf0
 438.804822781 308.487280836 386.327407102 349 291 349 c 2
 206 349 l 1
 222 430 l 1
 311 430 l 2
 408 430 469 470 483 543 c 0
 484.832571606 552.162858029 485.739739839 560.81823679 485.739739839 568.953371684 c 0
 485.739739839 627.406097817 438.905027401 659 352 659 c 0
 299 659 235 648 156 623 c 1
 173 711 l 1
 252 732 318 742 377 742 c 0
 509.045667584 742 586.900621929 684.667796139 586.900621929 590.883601158 c 0
 586.900621929 578.841945826 585.617111715 566.199346042 583 553 c 0
 567 473 508 414 419 393 c 1xe8
EndSplineSet
Validated: 524289
Position2: "sous-table 'cpsp' Chasses pour composition en capitales dans Latin lookup 1" dx=5 dy=0 dh=10 dv=0
EndChar

StartChar: four
Encoding: 52 52 21
Width: 636
Flags: W
HStem: 0 21G<315 416.837> 172 82<115 348 462 550> 709 20G<412.987 554>
LayerCount: 2
Fore
SplineSet
439 643 m 1
 115 254 l 1
 364 254 l 1
 439 643 l 1
430 729 m 1
 554 729 l 1
 462 254 l 1
 566 254 l 1
 550 172 l 1
 446 172 l 1
 413 0 l 1
 315 0 l 1
 348 172 l 1
 19 172 l 1
 37 267 l 1
 430 729 l 1
EndSplineSet
Validated: 1
Position2: "sous-table 'cpsp' Chasses pour composition en capitales dans Latin lookup 1" dx=5 dy=0 dh=10 dv=0
EndChar

StartChar: five
Encoding: 53 53 22
Width: 636
Flags: W
HStem: -14 83<87.73 319.465> 399 83<226.478 376.858> 646 83<260 557>
VStem: 435.896 101.17<184.886 343.996>
LayerCount: 2
Fore
SplineSet
186 729 m 1
 573 729 l 1
 557 646 l 1
 260 646 l 1
 225 467 l 1
 256 478 286 482 314 482 c 0
 395 482 456 460 494 415 c 0
 522.451678492 382.171140201 537.06578418 341.359065324 537.06578418 292.175508925 c 0
 537.06578418 273.940944453 535.057046734 254.555703451 531 234 c 0
 500 77 380 -14 203 -14 c 0
 142 -14 81 -4 17 17 c 1
 36 116 l 1
 89 84 148 69 217 69 c 0
 330 69 412 133 432 234 c 0
 434.614493011 247.203189707 435.89604915 259.774088846 435.89604915 271.652380904 c 0
 435.89604915 350.639063479 379.228114486 399 281 399 c 0
 229 399 175 387 115 363 c 1
 186 729 l 1
EndSplineSet
Validated: 524289
Position2: "sous-table 'cpsp' Chasses pour composition en capitales dans Latin lookup 1" dx=5 dy=0 dh=10 dv=0
EndChar

StartChar: six
Encoding: 54 54 23
Width: 636
Flags: W
HStem: -14 78<205.996 359.246> 404 78<269.153 416.968> 659 83<340.122 553.94>
VStem: 62.238 100.926<108.819 289.598> 460.836 100.87<179.942 359.694>
LayerCount: 2
Fore
SplineSet
345 404 m 0
 257 404 188 339 168 234 c 0
 164.749947982 216.937226904 163.163542968 200.93073762 163.163542968 186.08781269 c 0
 163.163542968 109.591123076 205.300228881 64 279 64 c 0
 367 64 436 129 456 234 c 0
 459.250052018 251.062773096 460.836457032 267.06926238 460.836457032 281.91218731 c 0
 460.836457032 358.408876924 418.699771119 404 345 404 c 0
601 713 m 1
 584 623 l 1
 539 647 490 659 441 659 c 0
 310 659 224 571 181 394 c 1
 231 451 297 482 366 482 c 0
 490.944372099 482 561.706125431 413.368682895 561.706125431 298.825603458 c 0
 561.706125431 278.606048978 559.501148551 256.955857611 555 234 c 0
 540 159 507 99 453 54 c 0
 400 9 337 -14 264 -14 c 0
 131.299047898 -14 62.2380247312 68.9814759634 62.2380247312 224.595066173 c 0
 62.2380247312 265.988978481 67.1246711237 312.522221815 77 364 c 0
 100 479 144 571 213 639 c 1
 281 708 361 742 453 742 c 0
 502 742 550 733 601 713 c 1
EndSplineSet
Validated: 524289
Position2: "sous-table 'cpsp' Chasses pour composition en capitales dans Latin lookup 1" dx=5 dy=0 dh=10 dv=0
EndChar

StartChar: seven
Encoding: 55 55 24
Width: 636
Flags: W
HStem: 0 21G<120 234.587> 646 83<160 494>
LayerCount: 2
Fore
SplineSet
160 729 m 1
 629 729 l 1
 621 687 l 1
 223 0 l 1
 120 0 l 1
 494 646 l 1
 144 646 l 1
 160 729 l 1
EndSplineSet
Validated: 1
Position2: "sous-table 'cpsp' Chasses pour composition en capitales dans Latin lookup 1" dx=5 dy=0 dh=10 dv=0
EndChar

StartChar: eight
Encoding: 56 56 25
Width: 636
Flags: W
HStem: -14 78<186.001 355.14> 346 78<257.188 407.433> 664 78<293.858 464.68>
VStem: 38.5527 101.067<105.257 254.382> 125.404 96.6024<457.277 589.74> 448.528 99.5604<153.985 306.974> 497.996 101.139<501.878 630.265>
LayerCount: 2
Fore
SplineSet
322 346 m 0xf4
 229 346 160 293 143 205 c 0
 140.730302944 193.250979944 139.619253317 182.125846965 139.619253317 171.667439087 c 0
 139.619253317 103.792514585 186.416578014 64 267 64 c 0
 360 64 428 118 445 205 c 0
 447.362415602 217.228974883 448.527521642 228.782049206 448.527521642 239.610917684 c 0
 448.527521642 306.706849547 403.798265752 346 322 346 c 0xf4
231 388 m 1
 163.053643981 405.835918455 125.404429594 452.526257511 125.404429594 517.042908035 c 0
 125.404429594 528.488124259 126.589271204 540.494344369 129 553 c 0
 152 670 254 742 399 742 c 0
 526.527093347 742 599.134599195 686.306897184 599.134599195 593.288914452 c 0xea
 599.134599195 580.544214588 597.771564504 567.098828127 595 553 c 0
 579 470 517 409 429 388 c 1
 506.156966545 370.194546182 548.08791246 317.881970114 548.08791246 245.691199692 c 0
 548.08791246 232.739170928 546.738182442 219.147275948 544 205 c 0
 517 64 412 -14 252 -14 c 0
 112.722938466 -14 38.5527280812 44.3716596518 38.5527280812 151.404236919 c 0
 38.5527280812 168.098027441 40.3570227418 185.975563207 44 205 c 0
 62 298 132 367 231 388 c 1
225 544 m 0
 222.993349081 533.832968679 222.0067823 524.238616172 222.0067823 515.245671641 c 0
 222.0067823 457.015081313 263.371021872 424 337 424 c 0
 421 424 480 468 495 544 c 0
 497.009091661 554.179397747 497.995616165 563.784722704 497.995616165 572.787140751 c 0
 497.995616165 630.99732099 456.749086701 664 384 664 c 0
 299 664 240 620 225 544 c 0
EndSplineSet
Validated: 524289
Position2: "sous-table 'cpsp' Chasses pour composition en capitales dans Latin lookup 1" dx=5 dy=0 dh=10 dv=0
EndChar

StartChar: nine
Encoding: 57 57 26
Width: 636
Flags: W
HStem: -14 83<96.6969 308.106> 247 77<233.746 381.914> 664 78<291.527 445.16>
VStem: 89.2939 100.451<369.964 547.438> 487.904 100.476<439.083 619.92>
LayerCount: 2
Fore
SplineSet
49 15 m 1
 67 105 l 1
 111 81 161 69 210 69 c 0
 339 69 424 155 469 334 c 1
 420 278 356 247 285 247 c 0
 160.055627901 247 89.2938745693 314.908882188 89.2938745693 429.235175833 c 0
 89.2938745693 449.416462509 91.4988514488 471.044142389 96 494 c 0
 110 569 144 629 197 674 c 0
 250 719 314 742 387 742 c 0
 519.797358718 742 588.37937476 659.878456 588.37937476 505.82427252 c 0
 588.37937476 463.826687656 583.282406991 416.483119018 573 364 c 0
 551 249 506 157 438 88 c 1
 369 20 290 -14 198 -14 c 0
 149 -14 101 -5 49 15 c 1
305 324 m 0
 394 324 462 389 483 494 c 0
 486.291327647 511.279470148 487.903565454 527.475656528 487.903565454 542.477139083 c 0
 487.903565454 618.633293584 446.35359197 664 372 664 c 0
 284 664 215 599 195 494 c 0
 191.466429976 476.332149879 189.744904159 459.796827387 189.744904159 444.51313567 c 0
 189.744904159 368.965876296 231.807341054 324 305 324 c 0
EndSplineSet
Validated: 524289
Position2: "sous-table 'cpsp' Chasses pour composition en capitales dans Latin lookup 1" dx=5 dy=0 dh=10 dv=0
EndChar

StartChar: colon
Encoding: 58 58 27
Width: 337
Flags: W
HStem: 0 124<78 157> 393 124<154 233>
VStem: 54 203
LayerCount: 2
Fore
SplineSet
78 124 m 1
 181 124 l 1
 157 0 l 1
 54 0 l 1
 78 124 l 1
154 517 m 1
 257 517 l 1
 233 393 l 1
 130 393 l 1
 154 517 l 1
EndSplineSet
Validated: 1
EndChar

StartChar: semicolon
Encoding: 59 59 28
Width: 337
Flags: W
HStem: 393 124<154 233>
VStem: -9 266
LayerCount: 2
Fore
SplineSet
154 517 m 1
 257 517 l 1
 233 393 l 1
 130 393 l 1
 154 517 l 1
78 124 m 1
 181 124 l 1
 164 40 l 1
 54 -116 l 1
 -9 -116 l 1
 61 40 l 1
 78 124 l 1
EndSplineSet
Validated: 1
EndChar

StartChar: less
Encoding: 60 60 29
Width: 838
Flags: W
LayerCount: 2
Fore
SplineSet
764 492 m 1
 225 313 l 1
 695 135 l 1
 677 46 l 1
 96 273 l 1
 111 354 l 1
 781 581 l 1
 764 492 l 1
EndSplineSet
Validated: 1
EndChar

StartChar: equal
Encoding: 61 61 30
Width: 838
Flags: W
HStem: 172 83<92 702> 372 82<131 741>
LayerCount: 2
Fore
SplineSet
131 454 m 1
 757 454 l 1
 741 372 l 1
 115 372 l 1
 131 454 l 1
92 255 m 1
 718 255 l 1
 702 172 l 1
 76 172 l 1
 92 255 l 1
EndSplineSet
Validated: 1
EndChar

StartChar: greater
Encoding: 62 62 31
Width: 838
Flags: W
LayerCount: 2
Fore
SplineSet
138 492 m 1
 155 581 l 1
 737 354 l 1
 722 273 l 1
 51 46 l 1
 69 135 l 1
 606 313 l 1
 138 492 l 1
EndSplineSet
Validated: 1
EndChar

StartChar: question
Encoding: 63 63 32
Width: 531
Flags: W
HStem: 0 124<152 227> 662 80<216.933 383.11>
VStem: 409.875 101.859<521.211 636.201>
LayerCount: 2
Fore
SplineSet
152 124 m 1
 251 124 l 1
 227 0 l 1
 128 0 l 1
 152 124 l 1
262 196 m 1
 169 196 l 1
 183 271 l 2
 190 304 199 331 212 352 c 0
 225 373 250 398 284 426 c 2
 337 469 l 2
 380 504 402 533 408 565 c 0
 409.258189859 571.519711085 409.875313235 577.81701135 409.875313235 583.857482582 c 0
 409.875313235 630.627152122 372.878956368 662 310 662 c 0
 259 662 196 639 124 595 c 1
 142 687 l 1
 210 724 276 742 343 742 c 0
 403 742 448 726 477 694 c 1
 500.297841329 670.702158671 511.73451968 641.19132721 511.73451968 606.316474874 c 0
 511.73451968 594.787009868 510.484567313 582.671293297 508 570 c 0
 499 521 471 480 401 424 c 1
 350 382 l 2
 313 351 300 337 292 321 c 0
 285 308 280 289 273 256 c 2
 262 196 l 1
EndSplineSet
Validated: 524289
Position2: "sous-table 'cpsp' Chasses pour composition en capitales dans Latin lookup 1" dx=5 dy=0 dh=10 dv=0
EndChar

StartChar: at
Encoding: 64 64 33
Width: 1000
Flags: W
HStem: -174 70<296.785 548.721> 43 70<388.823 526.488> 411 71<440.313 586.944> 634 70<440.743 697.475>
VStem: 44.7749 70.6935<74.4084 312.978> 275.347 79.2583<147.637 315.132> 864.761 70.7532<267.373 480.679>
LayerCount: 2
Fore
SplineSet
359 262 m 0
 356.051066099 246.76384151 354.605181039 232.520768862 354.605181039 219.35432912 c 0
 354.605181039 152.154126789 392.270202556 113 460 113 c 0
 540 113 601 170 618 262 c 0
 620.908044628 276.863339211 622.328332334 290.813143469 622.328332334 303.756642601 c 0
 622.328332334 370.929859056 584.075357208 411 517 411 c 0
 438 411 377 354 359 262 c 0
597 116 m 1
 549 67 495 43 428 43 c 0
 372 43 330 63 303 104 c 0
 284.456613727 132.158475451 275.346894792 165.505467938 275.346894792 204.688874265 c 0
 275.346894792 222.558260523 277.24150501 241.641485471 281 262 c 0
 294 327 321 380 364 421 c 0
 407 462 457 482 513 482 c 0
 580 482 624 457 654 408 c 1
 666 472 l 1
 736 472 l 1
 666 113 l 1
 764 128 836 203 859 319 c 0
 862.840909091 339.386363636 864.761363636 359.161673554 864.761363636 378.248556067 c 0
 864.761363636 423.763429752 853.840909091 465.363636364 832 502 c 0
 781 587 690 634 575 634 c 0
 495 634 416 612 345 571 c 0
 229 504 147 390 123 265 c 0
 117.968353163 239.087018788 115.468453315 213.806974322 115.468453315 189.382796598 c 0
 115.468453315 116.724732606 137.591775828 51.6408184111 181 0 c 1
 235 -68 320 -104 423 -104 c 0
 507 -104 596 -75 674 -22 c 1
 708 -76 l 1
 614 -140 509 -174 410 -174 c 0
 290 -174 188 -130 121 -49 c 0
 70.457055313 11.2055664655 44.7749489896 87.4325620986 44.7749489896 173.110843222 c 0
 44.7749489896 202.703311606 47.8386863601 233.423267596 54 265 c 0
 77 384 144 495 242 576 c 0
 343 659 464 704 587 704 c 0
 726 704 837 645 897 541 c 0
 922.557129517 495.565103081 935.51458949 444.08236478 935.51458949 389.414108533 c 0
 935.51458949 367.07617269 933.351196035 344.206378851 929 321 c 0
 895 149 766 45 582 41 c 1
 597 116 l 1
EndSplineSet
Validated: 524289
EndChar

StartChar: A
Encoding: 65 65 34
Width: 684
Flags: W
HStem: 0 21G<-55 59.9091 506.791 613> 187 82<197 465> 709 20G<352.505 479.759>
LayerCount: 2
Fore
SplineSet
401 632 m 1
 197 269 l 1
 465 269 l 1
 401 632 l 1
364 729 m 1
 476 729 l 1
 613 0 l 1
 510 0 l 1
 480 187 l 1
 151 187 l 1
 49 0 l 1
 -55 0 l 1
 364 729 l 1
EndSplineSet
Validated: 1
Position2: "sous-table 'cpsp' Chasses pour composition en capitales dans Latin lookup 1" dx=5 dy=0 dh=10 dv=0
EndChar

StartChar: B
Encoding: 66 66 35
Width: 686
Flags: W
HStem: 0 81<149 413.682> 348 80<217 456.114> 648 81<259 496.059>
VStem: 493.094 102.383<162.618 314.801> 529.718 102.487<495.076 617.742>
LayerCount: 2
Fore
SplineSet
201 348 m 1xf0
 149 81 l 1
 307 81 l 2
 414 81 472 124 489 215 c 0
 491.721355726 228.757965057 493.094128605 241.395920632 493.094128605 252.938056758 c 0
 493.094128605 317.739651925 449.823052076 348 359 348 c 2
 201 348 l 1xf0
259 648 m 1
 217 428 l 1
 363 428 l 2
 459 428 512 463 527 538 c 0
 528.810479055 547.440355073 529.717881283 556.278658927 529.717881283 564.512748863 c 0xe8
 529.717881283 619.950900142 488.58528648 648 405 648 c 2
 259 648 l 1
176 729 m 1
 428 729 l 2
 560.530820158 729 632.205140818 678.928196616 632.205140818 588.926297187 c 0xe8
 632.205140818 576.383846573 630.813186334 563.065931668 628 549 c 0
 611 460 557 406 475 393 c 1
 553.326628023 375.313342059 595.47703989 323.578480678 595.47703989 248.548968138 c 0xf0
 595.47703989 234.493263525 593.997785673 219.620041137 591 204 c 0
 566 73 460 0 297 0 c 2
 35 0 l 1
 176 729 l 1
EndSplineSet
Validated: 524289
Position2: "sous-table 'cpsp' Chasses pour composition en capitales dans Latin lookup 1" dx=5 dy=0 dh=10 dv=0
EndChar

StartChar: C
Encoding: 67 67 36
Width: 698
Flags: W
HStem: -14 81<256.843 483.71> 661 81<362.247 593.393>
VStem: 52.6898 104.742<165.442 409.664>
LayerCount: 2
Fore
SplineSet
711 673 m 1
 691 569 l 1
 636 630 567 661 483 661 c 0
 316 661 205 556 167 364 c 0
 160.600546029 330.792022639 157.431862841 300.18661063 157.431862841 272.276895365 c 0
 157.431862841 138.819801911 229.884021976 67 368 67 c 0
 452 67 533 98 611 159 c 1
 591 56 l 1
 513 9 433 -14 346 -14 c 0
 236 -14 155 20 104 87 c 0
 69.5756565278 133.128620253 52.6898373233 191.58160891 52.6898373233 261.706260908 c 0
 52.6898373233 293.434897782 56.1467111277 327.552963725 63 364 c 0
 86 481 136 574 212 641 c 0
 289 708 383 742 493 742 c 0
 581 742 652 720 711 673 c 1
EndSplineSet
Validated: 524289
Position2: "sous-table 'cpsp' Chasses pour composition en capitales dans Latin lookup 1" dx=5 dy=0 dh=10 dv=0
EndChar

StartChar: D
Encoding: 68 68 37
Width: 770
Flags: W
HStem: 0 81<149 414.502> 648 81<259 517.529>
VStem: 624.024 105.574<320.284 555.13>
LayerCount: 2
Fore
SplineSet
259 648 m 1
 149 81 l 1
 268 81 l 2
 469 81 576 169 614 365 c 0
 620.659642419 398.468972156 624.024317975 428.759613446 624.024317975 455.981466101 c 0
 624.024317975 588.175417898 544.677227534 648 378 648 c 2
 259 648 l 1
176 729 m 1
 379 729 l 2
 617.521982213 729 729.598297633 648.728312654 729.598297633 473.216863615 c 0
 729.598297633 440.488637563 725.701140889 404.448701288 718 365 c 0
 670 114 519 0 238 0 c 2
 35 0 l 1
 176 729 l 1
EndSplineSet
Validated: 524289
Position2: "sous-table 'cpsp' Chasses pour composition en capitales dans Latin lookup 1" dx=5 dy=0 dh=10 dv=0
EndChar

StartChar: E
Encoding: 69 69 38
Width: 632
Flags: W
HStem: 0 83<150 505> 347 83<217 548> 646 83<259 621>
LayerCount: 2
Fore
SplineSet
176 729 m 1
 637 729 l 1
 621 646 l 1
 259 646 l 1
 217 430 l 1
 564 430 l 1
 548 347 l 1
 201 347 l 1
 150 83 l 1
 521 83 l 1
 505 0 l 1
 35 0 l 1
 176 729 l 1
EndSplineSet
Validated: 1
Position2: "sous-table 'cpsp' Chasses pour composition en capitales dans Latin lookup 1" dx=5 dy=0 dh=10 dv=0
EndChar

StartChar: F
Encoding: 70 70 39
Width: 575
Flags: W
HStem: 0 21G<35 137.851> 348 83<217 490> 646 83<259 579>
LayerCount: 2
Fore
SplineSet
176 729 m 1
 595 729 l 1
 579 646 l 1
 259 646 l 1
 217 431 l 1
 506 431 l 1
 490 348 l 1
 201 348 l 1
 134 0 l 1
 35 0 l 1
 176 729 l 1
EndSplineSet
Validated: 1
Position2: "sous-table 'cpsp' Chasses pour composition en capitales dans Latin lookup 1" dx=5 dy=0 dh=10 dv=0
EndChar

StartChar: G
Encoding: 71 71 40
Width: 775
Flags: W
HStem: -14 81<258.667 509.351> 300 81<445 590> 661 81<365.84 612.462>
VStem: 52.277 104.701<163.516 407.879>
LayerCount: 2
Fore
SplineSet
552 104 m 1
 590 300 l 1
 429 300 l 1
 445 381 l 1
 704 381 l 1
 643 68 l 1
 556 13 458 -14 354 -14 c 0
 240 -14 157 19 105 86 c 0
 69.8513513514 132.175675676 52.277027027 190.225894814 52.277027027 260.805361973 c 0
 52.277027027 292.63531775 55.8513513514 327.013513514 63 364 c 0
 86 483 136 575 213 642 c 0
 291 709 387 742 501 742 c 0
 596 742 678 718 741 673 c 1
 721 568 l 1
 660 629 584 661 493 661 c 0
 314 661 206 561 167 364 c 0
 160.320250859 329.370774189 156.977660476 297.738811337 156.977660476 269.120406315 c 0
 156.977660476 134.933387386 230.465134113 67 378 67 c 0
 447 67 504 79 552 104 c 1
EndSplineSet
Validated: 524289
Position2: "sous-table 'cpsp' Chasses pour composition en capitales dans Latin lookup 1" dx=5 dy=0 dh=10 dv=0
EndChar

StartChar: H
Encoding: 72 72 41
Width: 752
Flags: W
HStem: 0 21G<35 137.862 492 594.868> 347 83<217 559> 709 20G<172.132 275 629.12 732>
LayerCount: 2
Fore
SplineSet
176 729 m 1
 275 729 l 1
 217 430 l 1
 575 430 l 1
 633 729 l 1
 732 729 l 1
 591 0 l 1
 492 0 l 1
 559 347 l 1
 201 347 l 1
 134 0 l 1
 35 0 l 1
 176 729 l 1
EndSplineSet
Validated: 1
Position2: "sous-table 'cpsp' Chasses pour composition en capitales dans Latin lookup 1" dx=5 dy=0 dh=10 dv=0
EndChar

StartChar: I
Encoding: 73 73 42
Width: 295
Flags: W
HStem: 0 21G<35 137.868> 709 20G<172.132 275>
VStem: 35 240
LayerCount: 2
Fore
SplineSet
176 729 m 1
 275 729 l 1
 134 0 l 1
 35 0 l 1
 176 729 l 1
EndSplineSet
Validated: 1
Position2: "sous-table 'cpsp' Chasses pour composition en capitales dans Latin lookup 1" dx=5 dy=0 dh=10 dv=0
EndChar

StartChar: J
Encoding: 74 74 43
Width: 295
Flags: W
HStem: -200 83<-138 -28.7743> 709 20G<172.106 275>
LayerCount: 2
Fore
SplineSet
176 729 m 1
 275 729 l 1
 143 51 l 2
 109 -125 32 -200 -116 -200 c 2
 -154 -200 l 1
 -138 -117 l 1
 -107 -117 l 2
 -20 -117 20 -76 44 51 c 2
 176 729 l 1
EndSplineSet
Validated: 1
Position2: "sous-table 'cpsp' Chasses pour composition en capitales dans Latin lookup 1" dx=5 dy=0 dh=10 dv=0
EndChar

StartChar: K
Encoding: 75 75 44
Width: 656
Flags: W
HStem: 0 21G<35 137.875 467.932 614> 709 20G<172.132 275 576.87 729>
LayerCount: 2
Fore
SplineSet
176 729 m 1
 275 729 l 1
 215 421 l 1
 602 729 l 1
 729 729 l 1
 301 389 l 1
 614 0 l 1
 484 0 l 1
 202 351 l 1
 134 0 l 1
 35 0 l 1
 176 729 l 1
EndSplineSet
Validated: 1
Position2: "sous-table 'cpsp' Chasses pour composition en capitales dans Latin lookup 1" dx=5 dy=0 dh=10 dv=0
EndChar

StartChar: L
Encoding: 76 76 45
Width: 557
Flags: W
HStem: 0 83<150 489> 709 20G<172.132 275>
LayerCount: 2
Fore
SplineSet
176 729 m 1
 275 729 l 1
 150 83 l 1
 505 83 l 1
 489 0 l 1
 35 0 l 1
 176 729 l 1
EndSplineSet
Validated: 1
Position2: "sous-table 'cpsp' Chasses pour composition en capitales dans Latin lookup 1" dx=5 dy=0 dh=10 dv=0
EndChar

StartChar: M
Encoding: 77 77 46
Width: 863
Flags: W
HStem: 0 21G<35 134.875 606 705.868> 709 20G<172.132 326.629 684.589 843>
LayerCount: 2
Fore
SplineSet
176 729 m 1
 323 729 l 1
 413 233 l 1
 696 729 l 1
 843 729 l 1
 702 0 l 1
 606 0 l 1
 730 640 l 1
 445 140 l 1
 346 140 l 1
 255 640 l 1
 131 0 l 1
 35 0 l 1
 176 729 l 1
EndSplineSet
Validated: 1
Position2: "sous-table 'cpsp' Chasses pour composition en capitales dans Latin lookup 1" dx=5 dy=0 dh=10 dv=0
EndChar

StartChar: N
Encoding: 78 78 47
Width: 748
Flags: W
HStem: 0 21G<35 134.869 447.279 590.868> 709 20G<172.132 315.721 628.131 728>
LayerCount: 2
Fore
SplineSet
176 729 m 1
 309 729 l 1
 514 119 l 1
 632 729 l 1
 728 729 l 1
 587 0 l 1
 454 0 l 1
 249 610 l 1
 131 0 l 1
 35 0 l 1
 176 729 l 1
EndSplineSet
Validated: 1
Position2: "sous-table 'cpsp' Chasses pour composition en capitales dans Latin lookup 1" dx=5 dy=0 dh=10 dv=0
EndChar

StartChar: O
Encoding: 79 79 48
Width: 787
Flags: W
HStem: -14 80<250.262 445.742> 662 80<356.409 552.051>
VStem: 52.6286 104.651<163.432 410.448> 643.767 105.079<317.55 565.91>
LayerCount: 2
Fore
SplineSet
459 662 m 0
 388 662 326 635 273 582 c 0
 220 529 185 456 167 364 c 0
 160.52 330.88 157.28 300.2224 157.28 272.073856 c 0
 157.28 222.032 167.52 179.92 188 146 c 0
 221 93 272 66 343 66 c 0
 414 66 477 93 529 146 c 0
 581 199 616 272 634 364 c 0
 640.527340189 397.361960965 643.767167265 428.225411965 643.767167265 456.542666962 c 0
 643.767167265 506.313971041 633.758469675 548.219390556 614 582 c 0
 582 635 530 662 459 662 c 0
475 742 m 0
 577 742 652 708 700 639 c 0
 732.137857052 592.502674903 748.846206977 534.783890077 748.846206977 466.16335622 c 0
 748.846206977 434.429809654 745.27296357 400.364817851 738 364 c 0
 716 249 667 157 593 88 c 1
 518 20 430 -14 328 -14 c 0
 225 -14 149 20 102 88 c 0
 69.0857142857 135.314285714 52.6285714286 193.443265306 52.6285714286 262.386938776 c 0
 52.6285714286 293.986122449 56.0857142857 327.857142857 63 364 c 0
 86 479 134 571 209 639 c 1
 283 708 372 742 475 742 c 0
EndSplineSet
Validated: 524289
Position2: "sous-table 'cpsp' Chasses pour composition en capitales dans Latin lookup 1" dx=5 dy=0 dh=10 dv=0
EndChar

StartChar: P
Encoding: 80 80 49
Width: 603
Flags: W
HStem: 0 21G<35 137.823> 293 81<206 418.111> 648 81<259 465.079>
VStem: 504.644 106.315<459.621 610.409>
LayerCount: 2
Fore
SplineSet
259 648 m 1
 206 374 l 1
 330 374 l 2
 422 374 484 423 501 511 c 0
 503.440447864 523.632906593 504.644400411 535.462091229 504.644400411 546.457969572 c 0
 504.644400411 612.058659651 461.79287038 648 383 648 c 2
 259 648 l 1
176 729 m 1
 399 729 l 2
 538.833087287 729 610.959339856 673.804210828 610.959339856 567.832050336 c 0
 610.959339856 550.275062646 608.979592368 531.324346736 605 511 c 0
 577 367 477 293 314 293 c 2
 190 293 l 1
 134 0 l 1
 35 0 l 1
 176 729 l 1
EndSplineSet
Validated: 524289
Position2: "sous-table 'cpsp' Chasses pour composition en capitales dans Latin lookup 1" dx=5 dy=0 dh=10 dv=0
EndChar

StartChar: Q
Encoding: 81 81 50
Width: 787
Flags: W
HStem: -14 80<251.674 369> 662 80<356.409 552.051>
VStem: 52.6286 104.651<163.432 410.448> 643.767 105.079<317.95 565.91>
LayerCount: 2
Fore
SplineSet
459 662 m 0
 388 662 326 635 273 582 c 0
 220 529 185 456 167 364 c 0
 160.52 330.88 157.28 300.2224 157.28 272.073856 c 0
 157.28 222.032 167.52 179.92 188 146 c 0
 221 93 272 66 343 66 c 0
 414 66 477 93 529 146 c 0
 581 199 616 272 634 364 c 0
 640.527340189 397.361960965 643.767167265 428.225411965 643.767167265 456.542666962 c 0
 643.767167265 506.313971041 633.758469675 548.219390556 614 582 c 0
 582 635 530 662 459 662 c 0
471 13 m 1
 573 -129 l 1
 454 -129 l 1
 369 -12 l 1
 348 -13 339 -14 328 -14 c 0
 225 -14 149 20 102 88 c 0
 69.0857142857 135.314285714 52.6285714286 193.443265306 52.6285714286 262.386938776 c 0
 52.6285714286 293.986122449 56.0857142857 327.857142857 63 364 c 0
 86 479 134 571 209 639 c 1
 283 708 372 742 475 742 c 0
 577 742 652 708 700 639 c 0
 732.137857052 592.502674903 748.846206977 534.783890077 748.846206977 466.16335622 c 0
 748.846206977 434.429809654 745.27296357 400.364817851 738 364 c 0
 705 195 611 70 471 13 c 1
EndSplineSet
Validated: 524289
Position2: "sous-table 'cpsp' Chasses pour composition en capitales dans Latin lookup 1" dx=5 dy=0 dh=10 dv=0
EndChar

StartChar: R
Encoding: 82 82 51
Width: 695
Flags: W
HStem: 0 21G<35 137.831 490.904 603> 308 81<209 386.122> 648 81<259 470.778>
VStem: 505.75 106.366<466.726 612.026>
LayerCount: 2
Fore
SplineSet
447 342 m 1
 487 327 517 282 541 199 c 1
 603 0 l 1
 497 0 l 1
 440 187 l 2
 425 236 409 268 389 284 c 0
 369 300 339 308 300 308 c 2
 193 308 l 1
 134 0 l 1
 35 0 l 1
 176 729 l 1
 399 729 l 2
 541.701076381 729 612.115727188 678.618551873 612.115727188 575.983880853 c 0
 612.115727188 558.507404185 610.074071026 539.515857667 606 519 c 1
 589 427 532 365 447 342 c 1
259 648 m 1
 209 389 l 1
 333 389 l 2
 428 389 486 434 502 519 c 0
 504.504098395 531.520491975 505.749755583 543.151396201 505.749755583 553.883124663 c 0
 505.749755583 616.007712156 464.006508969 648 383 648 c 2
 259 648 l 1
EndSplineSet
Validated: 524289
Position2: "sous-table 'cpsp' Chasses pour composition en capitales dans Latin lookup 1" dx=5 dy=0 dh=10 dv=0
EndChar

StartChar: S
Encoding: 83 83 52
Width: 635
Flags: W
HStem: -14 80<125.761 364.596> 662 80<286.721 518.088>
VStem: 101.407 102.504<466.58 586.466> 453.02 107.041<145.51 278.08>
LayerCount: 2
Fore
SplineSet
609 705 m 1
 590 609 l 1
 522 645 459 662 398 662 c 0
 290 662 222 619 207 542 c 0
 204.988893001 532.099165544 203.911144009 523.035960068 203.911144009 514.714122914 c 0
 203.911144009 469.242759083 236.088855991 445.905989232 324 429 c 1
 382 417 l 1
 502.366383391 393.09745578 560.061185999 339.316599792 560.061185999 250.058556586 c 0
 560.061185999 234.757637917 558.365767248 218.414187067 555 201 c 0
 527 60 417 -14 234 -14 c 0
 165 -14 89 1 12 32 c 1
 32 134 l 1
 103 89 174 66 249 66 c 0
 361 66 434 111 450 194 c 0
 452 204.285714286 453.020408163 213.857142857 453.020408163 222.766763848 c 0
 453.020408163 276.224489796 416.285714286 305.857142857 334 323 c 2
 277 335 l 2
 155.55977051 359.801173628 101.407336058 406.544019551 101.407336058 488.989391717 c 0
 101.407336058 502.947352258 102.959470558 517.928630094 106 534 c 0
 131 663 243 742 403 742 c 0
 471 742 538 730 609 705 c 1
EndSplineSet
Validated: 524289
Position2: "sous-table 'cpsp' Chasses pour composition en capitales dans Latin lookup 1" dx=5 dy=0 dh=10 dv=0
EndChar

StartChar: T
Encoding: 84 84 53
Width: 611
Flags: W
HStem: 0 21G<193 295.87> 646 83<75 318 417 676>
LayerCount: 2
Fore
SplineSet
75 729 m 1
 692 729 l 1
 676 646 l 1
 417 646 l 1
 292 0 l 1
 193 0 l 1
 318 646 l 1
 59 646 l 1
 75 729 l 1
EndSplineSet
Validated: 1
Position2: "sous-table 'cpsp' Chasses pour composition en capitales dans Latin lookup 1" dx=5 dy=0 dh=10 dv=0
EndChar

StartChar: U
Encoding: 85 85 54
Width: 732
Flags: W
HStem: -14 80<220.217 419.473> 709 20G<161.132 264 620.117 723>
VStem: 67.8917 100.627<113.956 336.219>
LayerCount: 2
Fore
SplineSet
165 729 m 1
 264 729 l 1
 178 286 l 2
 171.73052554 253.39873281 168.518208525 224.815443976 168.518208525 199.994576557 c 0
 168.518208525 106.045357684 214.540775212 66 315 66 c 0
 442 66 508 130 538 286 c 2
 624 729 l 1
 723 729 l 1
 635 274 l 2
 598 83 484 -14 300 -14 c 0
 146.233801795 -14 67.8916560692 53.7419730595 67.8916560692 187.47506323 c 0
 67.8916560692 213.769917293 70.9203768129 242.615999223 77 274 c 2
 165 729 l 1
EndSplineSet
Validated: 524289
Position2: "sous-table 'cpsp' Chasses pour composition en capitales dans Latin lookup 1" dx=5 dy=0 dh=10 dv=0
EndChar

StartChar: V
Encoding: 86 86 55
Width: 684
Flags: W
HStem: 0 21G<219.241 346.495> 709 20G<86 192.648 639.599 754>
LayerCount: 2
Fore
SplineSet
223 0 m 1
 86 729 l 1
 189 729 l 1
 301 115 l 1
 651 729 l 1
 754 729 l 1
 335 0 l 1
 223 0 l 1
EndSplineSet
Validated: 1
Position2: "sous-table 'cpsp' Chasses pour composition en capitales dans Latin lookup 1" dx=5 dy=0 dh=10 dv=0
EndChar

StartChar: W
Encoding: 87 87 56
Width: 989
Flags: W
HStem: 0 21G<151.848 285.784 585.021 718.889> 709 20G<111 212.071 508.136 629.071 925.136 1034>
LayerCount: 2
Fore
SplineSet
111 729 m 1
 211 729 l 1
 244 113 l 1
 517 729 l 1
 628 729 l 1
 661 113 l 1
 934 729 l 1
 1034 729 l 1
 710 0 l 1
 586 0 l 1
 555 633 l 1
 277 0 l 1
 153 0 l 1
 111 729 l 1
EndSplineSet
Validated: 1
Position2: "sous-table 'cpsp' Chasses pour composition en capitales dans Latin lookup 1" dx=5 dy=0 dh=10 dv=0
EndChar

StartChar: X
Encoding: 88 88 57
Width: 685
Flags: W
HStem: 0 21G<-33 90.2258 475.645 591> 709 20G<141 256.52 592.731 716>
LayerCount: 2
Fore
SplineSet
141 729 m 1
 247 729 l 1
 376 458 l 1
 610 729 l 1
 716 729 l 1
 414 379 l 1
 591 0 l 1
 485 0 l 1
 340 310 l 1
 73 0 l 1
 -33 0 l 1
 302 389 l 1
 141 729 l 1
EndSplineSet
Validated: 1
Position2: "sous-table 'cpsp' Chasses pour composition en capitales dans Latin lookup 1" dx=5 dy=0 dh=10 dv=0
EndChar

StartChar: Y
Encoding: 89 89 58
Width: 611
Flags: W
HStem: 0 21G<193 295.862> 709 20G<76 191.6 567.733 691>
LayerCount: 2
Fore
SplineSet
76 729 m 1
 182 729 l 1
 326 429 l 1
 585 729 l 1
 691 729 l 1
 359 347 l 1
 292 0 l 1
 193 0 l 1
 260 347 l 1
 76 729 l 1
EndSplineSet
Validated: 1
Position2: "sous-table 'cpsp' Chasses pour composition en capitales dans Latin lookup 1" dx=5 dy=0 dh=10 dv=0
EndChar

StartChar: Z
Encoding: 90 90 59
Width: 685
Flags: W
HStem: 0 83<121 577> 646 83<134 568>
LayerCount: 2
Fore
SplineSet
134 729 m 1
 707 729 l 1
 693 654 l 1
 121 83 l 1
 593 83 l 1
 577 0 l 1
 -18 0 l 1
 -4 75 l 1
 568 646 l 1
 118 646 l 1
 134 729 l 1
EndSplineSet
Validated: 1
Position2: "sous-table 'cpsp' Chasses pour composition en capitales dans Latin lookup 1" dx=5 dy=0 dh=10 dv=0
EndChar

StartChar: bracketleft
Encoding: 91 91 60
Width: 390
Flags: W
HStem: -132 70<100 204> 690 70<247 364>
LayerCount: 2
Fore
SplineSet
170 760 m 1
 377 760 l 1
 364 690 l 1
 247 690 l 1
 100 -62 l 1
 217 -62 l 1
 204 -132 l 1
 -3 -132 l 1
 170 760 l 1
EndSplineSet
Validated: 1
EndChar

StartChar: backslash
Encoding: 92 92 61
Width: 337
Flags: W
HStem: 709 20G<78 163.287>
VStem: 78 177
LayerCount: 2
Fore
SplineSet
161 729 m 1
 255 -93 l 1
 172 -93 l 1
 78 729 l 1
 161 729 l 1
EndSplineSet
Validated: 1
EndChar

StartChar: bracketright
Encoding: 93 93 62
Width: 390
Flags: W
HStem: -132 70<21 138> 690 70<181 285>
LayerCount: 2
Fore
SplineSet
388 760 m 1
 215 -132 l 1
 8 -132 l 1
 21 -62 l 1
 138 -62 l 1
 285 690 l 1
 168 690 l 1
 181 760 l 1
 388 760 l 1
EndSplineSet
Validated: 1
EndChar

StartChar: asciicircum
Encoding: 94 94 63
Width: 838
Flags: W
HStem: 457 272
LayerCount: 2
Fore
SplineSet
545 729 m 1
 757 457 l 1
 659 457 l 1
 482 650 l 1
 229 457 l 1
 131 457 l 1
 449 729 l 1
 545 729 l 1
EndSplineSet
Validated: 1
EndChar

StartChar: underscore
Encoding: 95 95 64
Width: 500
Flags: W
HStem: -236 70<-106 401>
LayerCount: 2
Fore
SplineSet
414 -166 m 1
 401 -236 l 1
 -119 -236 l 1
 -106 -166 l 1
 414 -166 l 1
EndSplineSet
Validated: 1
EndChar

StartChar: grave
Encoding: 96 96 65
Width: 500
Flags: W
HStem: 617 183
VStem: 175 198
LayerCount: 2
Fore
SplineSet
271 800 m 1
 373 617 l 1
 298 617 l 1
 175 800 l 1
 271 800 l 1
EndSplineSet
Validated: 1
EndChar

StartChar: a
Encoding: 97 97 66
Width: 613
Flags: W
HStem: -14 75<142.438 289.761> 0 21G<369 462.846> 275 70<188.479 422> 484 76<188.551 398.875>
VStem: 23.1017 93.3293<86.5938 213.521> 440.116 87.4705<345.574 445.277>
LayerCount: 2
Fore
SplineSet
333 275 m 2xbc
 260 275 208 267 177 250 c 0
 146 233 126 205 119 165 c 1
 117.275693465 156.51110629 116.431041672 148.444446855 116.431041672 140.837358175 c 0
 116.431041672 91.0926066553 152.550005424 61 215 61 c 0
 315 61 395 138 418 255 c 2
 422 275 l 1
 333 275 l 2xbc
519 312 m 2
 459 0 l 1
 369 0 l 1x7c
 385 83 l 1
 331 16 266 -14 177 -14 c 0
 79.653944252 -14 23.1017139794 37.3700024505 23.1017139794 119.755401155 c 0
 23.1017139794 132.1572497 24.3832242407 145.261927264 27 159 c 0
 51 282 147 345 310 345 c 2
 436 345 l 1
 437 354 l 1
 439.084221684 364.811899984 440.116385705 375.012927776 440.116385705 384.578768926 c 0
 440.116385705 448.447274808 394.103878333 484 308 484 c 0
 245 484 182 468 122 439 c 1
 138 522 l 1
 208 547 272 560 331 560 c 0
 462.434515454 560 527.586918266 504.65101934 527.586918266 391.128783443 c 0
 527.586918266 367.320003623 524.721138302 340.952427164 519 312 c 2
EndSplineSet
Validated: 524289
Substitution2: "sous-table Substitution simple lookups10" ordfeminine
Substitution2: "sous-table 'aalt' Activer toutes les variantes dans Latin lookup 0" ordfeminine
EndChar

StartChar: b
Encoding: 98 98 67
Width: 635
Flags: W
HStem: -14 75<211.76 360.35> 0 21G<28 121.659> 485 75<298.534 436.636> 740 20G<171.132 265>
VStem: 484.09 94.2163<221.582 435.29>
LayerCount: 2
Fore
SplineSet
477 273 m 0xb8
 481.758820668 298.126573128 484.089950027 321.368967926 484.089950027 342.534060495 c 0
 484.089950027 432.557716384 441.916481461 485 365 485 c 0
 270 485 196 405 171 273 c 0
 165.919936163 247.208906672 163.435847627 223.402970928 163.435847627 201.791048066 c 0
 163.435847627 112.792157284 205.561771713 61 282 61 c 0
 377 61 451 141 477 273 c 0xb8
208 464 m 1
 257 529 321 560 401 560 c 0
 468 560 517 534 548 481 c 0
 568.297713144 446.297458172 578.306215245 404.735442315 578.306215245 356.033243485 c 0
 578.306215245 330.354247104 575.523760958 302.690215148 570 273 c 0
 553 187 518 118 467 65 c 0
 416 12 357 -14 290 -14 c 0xb8
 210 -14 158 17 133 82 c 1
 118 0 l 1
 28 0 l 1x78
 175 760 l 1
 265 760 l 1
 208 464 l 1
EndSplineSet
Validated: 524289
EndChar

StartChar: c
Encoding: 99 99 68
Width: 550
Flags: W
HStem: -14 76<195.117 393.845> 484 76<268.943 471.438>
VStem: 36.5906 96.9186<122.588 325.333>
LayerCount: 2
Fore
SplineSet
527 526 m 1
 510 442 l 1
 465 470 417 484 365 484 c 0
 249 484 165 406 140 273 c 0
 135.64774237 250.736528278 133.509137953 230.014207526 133.509137953 210.940920389 c 0
 133.509137953 116.072086506 186.41776481 62 283 62 c 0
 335 62 388 76 445 104 c 1
 429 21 l 1
 373 -3 319 -14 258 -14 c 0
 176 -14 116 12 77 63 c 0
 50.1689135531 98.7747819292 36.5905566248 143.069175692 36.5905566248 195.883181288 c 0
 36.5905566248 219.836332412 39.3835783601 245.541938649 45 273 c 1
 62 362 99 432 158 483 c 0
 217 534 290 560 375 560 c 0
 431 560 482 549 527 526 c 1
EndSplineSet
Validated: 524289
EndChar

StartChar: d
Encoding: 100 100 69
Width: 635
Flags: W
HStem: -14 75<177.635 315.473> 0 21G<391 484.868> 485 75<252.969 402.861> 740 20G<534.149 628>
VStem: 35.9688 94.3741<109.949 324.418>
LayerCount: 2
Fore
SplineSet
481 464 m 1xb8
 538 760 l 1
 628 760 l 1
 481 0 l 1
 391 0 l 1x78
 406 82 l 1
 357 17 293 -14 213 -14 c 0
 147 -14 98 12 66 65 c 0
 45.9791666667 99.2291666667 35.96875 140.131944444 35.96875 187.977710865 c 0
 35.96875 214.215711806 38.9791666667 242.541666667 45 273 c 0
 61 359 96 428 147 481 c 0
 199 534 258 560 324 560 c 0
 404 560 456 529 481 464 c 1xb8
138 273 m 0
 132.864381478 246.92685981 130.342811328 222.882533283 130.342811328 201.082802935 c 0
 130.342811328 112.517445497 171.962283774 61 249 61 c 0xb8
 344 61 418 141 444 273 c 0
 448.758820668 298.126573128 451.089950027 321.368967926 451.089950027 342.534060495 c 0
 451.089950027 432.557716384 408.916481461 485 332 485 c 0
 236 485 163 405 138 273 c 0
EndSplineSet
Validated: 524289
EndChar

StartChar: e
Encoding: 101 101 70
Width: 615
Flags: W
HStem: -14 76<196.672 424.332> 252 70<151 474.003> 484 76<261.042 429.782>
VStem: 36.3409 94.98<124.35 251.267> 474.914 88.7987<322.495 438.869>
LayerCount: 2
Fore
SplineSet
556 296 m 2
 547 252 l 1
 134 252 l 1
 132.209702039 238.125190806 131.320857238 224.976552212 131.320857238 212.565291647 c 0
 131.320857238 114.056373888 187.315341082 62 293 62 c 0
 362 62 429 78 499 113 c 1
 483 28 l 1
 414 0 342 -14 273 -14 c 0
 186 -14 121 11 80 62 c 0
 50.5491317504 97.7617685888 36.340872832 141.882387456 36.340872832 195.051423544 c 0
 36.340872832 217.706960666 38.9205895296 242.005369946 44 268 c 0
 61 357 99 428 157 481 c 0
 216 534 286 560 368 560 c 0
 442 560 496 536 530 489 c 0
 552.371536831 457.13750815 563.71308666 417.00252605 563.71308666 369.218179356 c 0
 563.71308666 346.516378727 561.153194264 322.088045961 556 296 c 2
471 322 m 1
 473.629345548 336.461400512 474.914407594 350.154639024 474.914407594 362.995558728 c 0
 474.914407594 438.061135332 430.999347014 484 355 484 c 0
 255 484 180 425 151 322 c 1
 471 322 l 1
EndSplineSet
Validated: 524289
EndChar

StartChar: f
Encoding: 102 102 71
Width: 352
Flags: W
HStem: 0 21G<46 139.857> 477 70<66 138 242 376> 685 75<284.117 441>
LayerCount: 2
Fore
SplineSet
455 760 m 1
 441 685 l 1
 355 685 l 2
 291 685 264 663 251 595 c 2
 242 547 l 1
 390 547 l 1
 376 477 l 1
 228 477 l 1
 136 0 l 1
 46 0 l 1
 138 477 l 1
 52 477 l 1
 66 547 l 1
 152 547 l 1
 159 585 l 1
 183 706 247 760 370 760 c 2
 455 760 l 1
EndSplineSet
Validated: 1
EndChar

StartChar: g
Encoding: 103 103 72
Width: 635
Flags: W
HStem: -208 74<80.0557 291.107> 0 75<180.026 318.056> 485 75<250.708 405.887> 527 20G<493.145 587>
VStem: 36.9688 94.9482<124.236 332.216>
LayerCount: 2
Fore
SplineSet
445 280 m 0xe8
 449.804806564 304.79280187 452.171713986 327.627896854 452.171713986 348.342003994 c 0
 452.171713986 435.405946109 410.357350532 485 332 485 c 0
 236 485 164 409 139 280 c 0
 134.248198499 255.480704256 131.916931995 232.876160076 131.916931995 212.344304023 c 0
 131.916931995 124.854728364 174.246917763 75 252 75 c 0
 349 75 420 151 445 280 c 0xe8
494 68 m 2
 457 -119 359 -208 188 -208 c 0
 125 -208 72 -199 23 -179 c 1
 40 -92 l 1
 87 -120 135 -134 188 -134 c 0
 305 -134 376 -73 401 52 c 1
 409 96 l 1
 360 32 296 0 216 0 c 0
 149 0 98 25 67 76 c 0
 46.9791666667 108.9375 36.96875 148.965711806 36.96875 196.084635417 c 0
 36.96875 221.924045139 39.9791666667 249.895833333 46 280 c 0
 62 365 95 432 146 483 c 0
 197 534 257 560 324 560 c 0xe8
 404 560 456 528 481 464 c 1
 497 547 l 1
 587 547 l 1xd8
 494 68 l 2
EndSplineSet
Validated: 524289
EndChar

StartChar: h
Encoding: 104 104 73
Width: 634
Flags: W
HStem: 0 21G<28 121.883 396 489.879> 482 78<303.874 436.082> 740 20G<171.132 265>
VStem: 464.898 93.023<259.195 453.77>
LayerCount: 2
Fore
SplineSet
550 330 m 2
 486 0 l 1
 396 0 l 1
 459 327 l 2
 462.936762845 347.471166793 464.897517723 365.888835111 464.897517723 382.268258042 c 0
 464.897517723 449.101482542 432.252948621 482 368 482 c 0
 271 482 198 416 178 309 c 2
 118 0 l 1
 28 0 l 1
 175 760 l 1
 265 760 l 1
 207 462 l 1
 263 527 327 560 403 560 c 0
 505.187628715 560 557.920470344 507.203673246 557.920470344 405.435416706 c 0
 557.920470344 382.716666086 555.292470138 357.557344512 550 330 c 2
EndSplineSet
Validated: 524289
EndChar

StartChar: i
Encoding: 105 105 74
Width: 278
Flags: W
HStem: 0 21G<31 124.876> 527 20G<133.124 227> 646 114<178 246>
VStem: 31 237
LayerCount: 2
Fore
SplineSet
137 547 m 1
 227 547 l 1
 121 0 l 1
 31 0 l 1
 137 547 l 1
178 760 m 1
 268 760 l 1
 246 646 l 1
 156 646 l 1
 178 760 l 1
EndSplineSet
Validated: 1
EndChar

StartChar: j
Encoding: 106 106 75
Width: 278
Flags: W
HStem: -208 76<-107 -14.4016> 527 20G<133.122 227> 646 114<178 246>
LayerCount: 2
Fore
SplineSet
137 547 m 1
 227 547 l 1
 119 -10 l 2
 92 -149 29 -208 -88 -208 c 2
 -122 -208 l 1
 -107 -132 l 1
 -83 -132 l 2
 -49 -132 -25 -124 -9 -108 c 0
 7 -92 19 -59 29 -10 c 2
 137 547 l 1
178 760 m 1
 268 760 l 1
 246 646 l 1
 156 646 l 1
 178 760 l 1
EndSplineSet
Validated: 1
EndChar

StartChar: k
Encoding: 107 107 76
Width: 579
Flags: W
HStem: 0 21G<28 121.82 378.996 513> 527 20G<465.39 607> 740 20G<171.132 265>
LayerCount: 2
Fore
SplineSet
175 760 m 1
 265 760 l 1
 178 311 l 1
 492 547 l 1
 607 547 l 1
 267 291 l 1
 513 0 l 1
 396 0 l 1
 169 267 l 1
 118 0 l 1
 28 0 l 1
 175 760 l 1
EndSplineSet
Validated: 1
EndChar

StartChar: l
Encoding: 108 108 77
Width: 278
Flags: W
HStem: 0 21G<31 124.868> 740 20G<174.132 268>
VStem: 31 237
LayerCount: 2
Fore
SplineSet
178 760 m 1
 268 760 l 1
 121 0 l 1
 31 0 l 1
 178 760 l 1
EndSplineSet
Validated: 1
EndChar

StartChar: m
Encoding: 109 109 78
Width: 974
Flags: W
HStem: 0 21G<28 121.883 382 475.883 736 829.879> 482 78<300.672 426.572 655.678 780.528> 527 20G<130.124 224>
VStem: 805.364 92.3525<259.195 456.573>
LayerCount: 2
Fore
SplineSet
542 442 m 1xd0
 603 522 671 560 756 560 c 0
 848.129139962 560 897.716356553 504.828443128 897.716356553 404.782296397 c 0
 897.716356553 382.117924118 895.17154054 357.150587837 890 330 c 2
 826 0 l 1
 736 0 l 1
 799 327 l 2
 803.236228055 349.24019729 805.363844804 369.012870711 805.363844804 386.365533871 c 0
 805.363844804 450.937936759 775.90233339 482 716 482 c 0
 623 482 552 416 532 309 c 2
 472 0 l 1
 382 0 l 1
 445 327 l 2
 449.226809702 349.190750934 451.354373774 368.924937833 451.354373774 386.2497581 c 0
 451.354373774 450.900808477 421.726782648 482 361 482 c 0xd0
 269 482 198 416 178 309 c 2
 118 0 l 1
 28 0 l 1
 134 547 l 1
 224 547 l 1xb0
 207 462 l 1
 261 529 323 560 402 560 c 0
 482 560 530 519 542 442 c 1xd0
EndSplineSet
Validated: 524289
EndChar

StartChar: n
Encoding: 110 110 79
Width: 634
Flags: W
HStem: 0 21G<28 121.883 396 489.879> 482 78<303.874 436.082> 527 20G<130.124 224>
VStem: 464.898 93.023<259.195 453.77>
LayerCount: 2
Fore
SplineSet
550 330 m 2xd0
 486 0 l 1
 396 0 l 1
 459 327 l 2
 462.936762845 347.471166793 464.897517723 365.888835111 464.897517723 382.268258042 c 0
 464.897517723 449.101482542 432.252948621 482 368 482 c 0xd0
 271 482 198 416 178 309 c 2
 118 0 l 1
 28 0 l 1
 134 547 l 1
 224 547 l 1xb0
 207 462 l 1
 263 527 327 560 403 560 c 0
 505.187628715 560 557.920470344 507.203673246 557.920470344 405.435416706 c 0
 557.920470344 382.716666086 555.292470138 357.557344512 550 330 c 2xd0
EndSplineSet
Validated: 524289
EndChar

StartChar: o
Encoding: 111 111 80
Width: 612
Flags: W
HStem: -14 76<182.329 335.209> 484 76<259.276 408.973>
VStem: 36.3881 96.2563<113.931 323.416> 458.898 96.5748<222.7 428.784>
LayerCount: 2
Fore
SplineSet
337 484 m 0
 241 484 165 404 140 273 c 0
 135.0573326 248.096560406 132.644394892 225.036209587 132.644394892 204.018180931 c 0
 132.644394892 114.474704877 176.439951455 62 255 62 c 0
 351 62 426 142 452 273 c 0
 456.634837452 296.915761252 458.898093214 319.216097296 458.898093214 339.677984161 c 0
 458.898093214 429.586132257 415.202224184 484 337 484 c 0
351 560 m 0
 481.638308677 560 555.472878727 484.962962556 555.472878727 354.856069337 c 0
 555.472878727 329.597545261 552.690123053 302.263489988 547 273 c 0
 512 94 396 -14 240 -14 c 0
 108.91511061 -14 36.3880877056 61.2886854827 36.3880877056 190.330273638 c 0
 36.3880877056 215.841429392 39.2227460425 243.453472617 45 273 c 0
 80 453 194 560 351 560 c 0
EndSplineSet
Validated: 524289
Substitution2: "sous-table Substitution simple lookups10" ordmasculine
Substitution2: "sous-table 'aalt' Activer toutes les variantes dans Latin lookup 0" ordmasculine
EndChar

StartChar: p
Encoding: 112 112 81
Width: 635
Flags: W
HStem: -208 21G<-13 80.8621> -14 75<211.76 360.35> 485 75<298.534 436.636> 527 20G<130.106 224>
VStem: 484.09 94.2163<221.582 435.29>
LayerCount: 2
Fore
SplineSet
133 82 m 1xe8
 77 -208 l 1
 -13 -208 l 1
 134 547 l 1
 224 547 l 1xd8
 208 464 l 1
 257 529 321 560 401 560 c 0
 468 560 517 534 548 481 c 0
 568.297713144 446.297458172 578.306215245 404.735442315 578.306215245 356.033243485 c 0
 578.306215245 330.354247104 575.523760958 302.690215148 570 273 c 0
 553 187 518 118 467 65 c 0
 416 12 357 -14 290 -14 c 0
 210 -14 158 17 133 82 c 1xe8
477 273 m 0
 481.758820668 298.126573128 484.089950027 321.368967926 484.089950027 342.534060495 c 0
 484.089950027 432.557716384 441.916481461 485 365 485 c 0xe8
 270 485 196 405 171 273 c 0
 165.919936163 247.208906672 163.435847627 223.402970928 163.435847627 201.791048066 c 0
 163.435847627 112.792157284 205.561771713 61 282 61 c 0
 377 61 451 141 477 273 c 0
EndSplineSet
Validated: 524289
EndChar

StartChar: q
Encoding: 113 113 82
Width: 635
Flags: W
HStem: -208 21G<350 443.894> -14 75<177.635 315.473> 485 75<252.969 402.861> 527 20G<493.145 587>
VStem: 35.9688 94.3741<109.949 324.418>
LayerCount: 2
Fore
SplineSet
138 273 m 0xe8
 132.864381478 246.92685981 130.342811328 222.882533283 130.342811328 201.082802935 c 0
 130.342811328 112.517445497 171.962283774 61 249 61 c 0
 344 61 418 141 444 273 c 0
 448.758820668 298.126573128 451.089950027 321.368967926 451.089950027 342.534060495 c 0
 451.089950027 432.557716384 408.916481461 485 332 485 c 0
 236 485 163 405 138 273 c 0xe8
406 82 m 1
 357 17 293 -14 213 -14 c 0
 147 -14 98 12 66 65 c 0
 45.9791666667 99.2291666667 35.96875 140.131944444 35.96875 187.977710865 c 0
 35.96875 214.215711806 38.9791666667 242.541666667 45 273 c 0
 61 359 96 428 147 481 c 0
 199 534 258 560 324 560 c 0xe8
 404 560 456 529 481 464 c 1
 497 547 l 1
 587 547 l 1xd8
 440 -208 l 1
 350 -208 l 1
 406 82 l 1
EndSplineSet
Validated: 524289
EndChar

StartChar: r
Encoding: 114 114 83
Width: 411
Flags: W
HStem: 0 21G<28 121.819> 480 80<300.133 440.35> 527 20G<130.124 224>
LayerCount: 2
Fore
SplineSet
437 463 m 1xc0
 420 475 397 480 369 480 c 0xc0
 268 480 198 412 173 288 c 1
 118 0 l 1
 28 0 l 1
 134 547 l 1
 224 547 l 1xa0
 207 462 l 1
 257 529 323 560 410 560 c 0
 423 560 437 559 455 555 c 1
 437 463 l 1xc0
EndSplineSet
Validated: 1
EndChar

StartChar: s
Encoding: 115 115 84
Width: 521
Flags: W
HStem: -14 75<76.5368 298.207> 485 75<204.801 428.71>
VStem: 68.4338 89.9625<349.904 444.271> 346.042 95.7355<106.469 199.553>
LayerCount: 2
Fore
SplineSet
483 531 m 1
 466 446 l 1
 420 471 369 485 310 485 c 0
 221 485 171 458 160 403 c 0
 158.962800165 397.684350845 158.39625561 392.704884034 158.39625561 388.018013532 c 0
 158.39625561 356.554700866 183.927798103 338.277350433 264 320 c 1
 293 313 l 1
 397.989651177 289.099916805 441.777804849 252.813816258 441.777804849 187.350259662 c 0
 441.777804849 176.120376752 440.489235203 164.031878417 438 151 c 0
 418 50 321 -14 180 -14 c 0
 121 -14 61 -3 -6 20 c 1
 12 113 l 1
 73 78 133 61 196 61 c 0
 281 61 334 91 344 144 c 0
 345.348480035 150.742400177 346.042336645 156.975648801 346.042336645 162.738979054 c 0
 346.042336645 178.345376574 340.954559894 190.506048092 330 200 c 1
 317 213 283 226 230 238 c 2
 200 245 l 2
 108.777819351 265.461049865 68.4337972282 301.185547288 68.4337972282 363.946938837 c 0
 68.4337972282 374.802170438 69.6406999101 386.466218272 72 399 c 0
 92 502 178 560 313 560 c 0
 380 560 437 550 483 531 c 1
EndSplineSet
Validated: 524289
EndChar

StartChar: t
Encoding: 116 116 85
Width: 392
Flags: W
HStem: 0 75<155.081 305> 477 70<70 122 226 397>
VStem: 56.5441 91.685<83.6569 254.25>
LayerCount: 2
Fore
SplineSet
256 702 m 1
 226 547 l 1
 411 547 l 1
 397 477 l 1
 212 477 l 1
 154 180 l 2
 150.22291236 158.753882025 148.2291236 141.29727417 148.2291236 127.419686555 c 0
 148.2291236 111.90407192 150.72135955 100.862232585 156 94 c 0
 166 81 190 75 227 75 c 2
 319 75 l 1
 305 0 l 1
 213 0 l 2
 144 0 98 13 76 39 c 0
 63.0294117647 55.0588235294 56.5441176471 79.1288927336 56.5441176471 111.210207612 c 0
 56.5441176471 131.070069204 59.0294117647 154 64 180 c 2
 122 477 l 1
 56 477 l 1
 70 547 l 1
 136 547 l 1
 166 702 l 1
 256 702 l 1
EndSplineSet
Validated: 524289
EndChar

StartChar: u
Encoding: 117 117 86
Width: 634
Flags: W
HStem: -14 78<177.236 309.231> 0 21G<390 483.876> 527 20G<124.073 218 492.129 586>
VStem: 55.1665 92.8415<92.5312 284.43> 128 90<511.354 547>
LayerCount: 2
Fore
SplineSet
63 216 m 2xb0
 128 547 l 1
 218 547 l 1
 154 219 l 2
 150.007968159 198.441036019 148.007976096 179.913952612 148.007976096 163.426702063 c 0
 148.007976096 97.3131557958 180.167728956 64 245 64 c 0xa8
 342 64 415 130 436 237 c 2
 496 547 l 1
 586 547 l 1
 480 0 l 1
 390 0 l 1x68
 406 84 l 1
 349 17 287 -14 211 -14 c 0
 108.57793105 -14 55.1664512318 39.0388567316 55.1664512318 141.265790844 c 0
 55.1664512318 163.800706351 57.7619199964 188.725859292 63 216 c 2xb0
EndSplineSet
Validated: 524289
EndChar

StartChar: v
Encoding: 118 118 87
Width: 592
Flags: W
HStem: 0 21G<168.38 305.371> 527 20G<73 171.573 498.671 605>
LayerCount: 2
Fore
SplineSet
73 547 m 1
 168 547 l 1
 250 88 l 1
 510 547 l 1
 605 547 l 1
 294 0 l 1
 172 0 l 1
 73 547 l 1
EndSplineSet
Validated: 1
EndChar

StartChar: w
Encoding: 119 119 88
Width: 818
Flags: W
HStem: 0 21G<120.647 237.152 462.616 579.104> 527 20G<85 176.358 389.867 506.358 719.867 819>
LayerCount: 2
Fore
SplineSet
85 547 m 1
 175 547 l 1
 204 120 l 1
 399 547 l 1
 505 547 l 1
 534 120 l 1
 729 547 l 1
 819 547 l 1
 570 0 l 1
 464 0 l 1
 433 448 l 1
 228 0 l 1
 122 0 l 1
 85 547 l 1
EndSplineSet
Validated: 1
EndChar

StartChar: x
Encoding: 120 120 89
Width: 592
Flags: W
HStem: 0 21G<-34 90.6047 379.023 496> 527 20G<90 206.974 467.231 592>
LayerCount: 2
Fore
SplineSet
592 547 m 1
 342 281 l 1
 496 0 l 1
 390 0 l 1
 272 215 l 1
 72 0 l 1
 -34 0 l 1
 233 286 l 1
 90 547 l 1
 196 547 l 1
 303 352 l 1
 486 547 l 1
 592 547 l 1
EndSplineSet
Validated: 1
EndChar

StartChar: y
Encoding: 121 121 90
Width: 592
Flags: W
HStem: -208 75<-10 107.242> 527 20G<73 172.112 498.131 605>
LayerCount: 2
Fore
SplineSet
249 -51 m 2
 211 -116 178 -158 149 -178 c 0
 121 -198 87 -208 47 -208 c 2
 -25 -208 l 1
 -10 -133 l 1
 43 -133 l 2
 68 -133 88 -127 103 -115 c 1
 119 -104 140 -76 165 -32 c 2
 189 9 l 1
 73 547 l 1
 168 547 l 1
 256 119 l 1
 510 547 l 1
 605 547 l 1
 249 -51 l 2
EndSplineSet
Validated: 1
EndChar

StartChar: z
Encoding: 122 122 91
Width: 525
Flags: W
HStem: 0 72<94 419> 475 72<98 410>
LayerCount: 2
Fore
SplineSet
98 547 m 1
 525 547 l 1
 509 465 l 1
 94 72 l 1
 432 72 l 1
 419 0 l 1
 -20 0 l 1
 -5 82 l 1
 410 475 l 1
 84 475 l 1
 98 547 l 1
EndSplineSet
Validated: 1
EndChar

StartChar: braceleft
Encoding: 123 123 92
Width: 636
Flags: W
HStem: -163 70<312.516 416> 264 70<126 227.661> 690 70<456.376 582>
VStem: 208.891 92.122<-80.2692 86.7656> 246.05 92.0612<66.3125 244.648>
LayerCount: 2
Fore
SplineSet
429 -93 m 1xf0
 416 -163 l 1
 386 -163 l 2
 305 -163 252 -151 230 -127 c 0
 215.84985515 -112.23463146 208.891213865 -88.3852584162 208.891213865 -55.4518808675 c 0xf0
 208.891213865 -34.854521337 211.613131648 -10.7038943812 217 17 c 2
 240 134 l 2
 243.957991211 154.623217364 246.049985579 172.295555999 246.049985579 187.351492242 c 0
 246.049985579 244.57029673 215.834989924 264 143 264 c 2
 113 264 l 1
 126 334 l 1
 156 334 l 2
 249 334 285 366 303 463 c 1
 326 580 l 2
 340 652 364 700 395 724 c 0
 427 748 484 760 565 760 c 2
 595 760 l 1
 582 690 l 1
 549 690 l 2
 503 690 471 683 454 668 c 0
 438 654 425 624 416 578 c 2
 392 457 l 2
 372 354 339 315 264 299 c 1
 315.26414085 286.183964787 338.111195443 259.727728171 338.111195443 204.206587078 c 0xe8
 338.111195443 186.0809737 335.676195939 164.857673149 331 140 c 1
 307 19 l 2
 303.03724142 -1.25409940989 301.013181058 -18.4062816711 301.013181058 -32.4565467838 c 0
 301.013181058 -50.316473386 304.283678107 -63.1642911247 311 -71 c 1
 322 -86 350 -93 396 -93 c 2
 429 -93 l 1xf0
EndSplineSet
Validated: 524289
EndChar

StartChar: bar
Encoding: 124 124 93
Width: 337
Flags: W
HStem: 744 20G<208.12 295>
VStem: 18 277
LayerCount: 2
Fore
SplineSet
295 764 m 1
 101 -236 l 1
 18 -236 l 1
 212 764 l 1
 295 764 l 1
EndSplineSet
Validated: 1
EndChar

StartChar: braceright
Encoding: 125 125 94
Width: 636
Flags: W
HStem: -163 70<43 171.624> 264 70<398.84 499> 690 70<209 313.21>
VStem: 286.484 92.8566<353.544 528.828> 323.987 92.122<510.234 678.181>
LayerCount: 2
Fore
SplineSet
43 -93 m 1xf0
 77 -93 l 2
 123 -93 155 -86 171 -72 c 0
 187 -58 200 -28 209 19 c 2
 233 140 l 1
 252 241 286 282 362 299 c 1
 310.095014019 311.035938778 286.483743326 336.086986588 286.483743326 391.605891462 c 0xf0
 286.483743326 409.891157111 289.044923473 431.481355884 294 457 c 2
 318 578 l 2
 321.96275858 598.25409941 323.986818942 615.406281671 323.986818942 629.456546784 c 0
 323.986818942 647.316473386 320.716321893 660.164291125 314 668 c 1
 304 683 276 690 230 690 c 2
 196 690 l 1
 209 760 l 1
 240 760 l 2
 321 760 373 748 395 724 c 0
 409.15014485 709.23463146 416.108786135 685.385258416 416.108786135 652.451880867 c 0xe8
 416.108786135 631.854521337 413.386868352 607.703894381 408 580 c 2
 385 463 l 1
 381.307439134 443.101199775 379.340295662 425.937817371 379.340295662 411.224961339 c 0
 379.340295662 354.217561932 408.873088873 334 482 334 c 2
 512 334 l 1
 499 264 l 1
 469 264 l 2
 377 264 341 233 322 134 c 2
 299 17 l 2
 285 -55 261 -103 230 -127 c 0
 198 -151 142 -163 61 -163 c 2
 30 -163 l 1
 43 -93 l 1xf0
EndSplineSet
Validated: 524289
EndChar

StartChar: asciitilde
Encoding: 126 126 95
Width: 838
Flags: W
HStem: 240 81<461.417 636.313> 306 81<197.401 371.583>
LayerCount: 2
Fore
SplineSet
746 399 m 1x80
 729 312 l 1
 651 260 592 240 529 240 c 0x80
 493 240 453 250 410 269 c 0
 407 270 404 271 402 272 c 0
 401 273 397 274 392 276 c 0
 346 296 308 306 277 306 c 0
 220 306 162 283 87 228 c 1
 104 315 l 1
 182 367 241 387 304 387 c 0x40
 340 387 380 377 423 358 c 0
 426 357 429 356 431 355 c 0
 433 354 436 353 441 351 c 0
 487 331 525 321 556 321 c 0
 612 321 668 344 746 399 c 1x80
EndSplineSet
Validated: 1
EndChar

StartChar: Euro
Encoding: 8364 8364 96
Width: 636
Flags: W
HStem: -14 78<258.08 427.827> 254 60<25 89 192 371> 415 60<56 112 231 474> 664 78<366.316 543.402>
VStem: 88.7025 99.1789<142.975 254 314 408.069>
LayerCount: 2
Fore
SplineSet
637 673 m 1
 617 569 l 1
 570 637 526 664 459 664 c 0
 356 664 275 596 231 475 c 1
 513 475 l 1
 474 415 l 1
 211 415 l 1
 207 399 205 387 200 364 c 0
 196 343 194 330 192 314 c 1
 410 314 l 1
 371 254 l 1
 188 254 l 1
 187.920906297 250.809887302 187.881432748 247.655919307 187.881432748 244.538407552 c 0
 187.881432748 129.40965089 241.715550478 64 342 64 c 0
 409 64 464 91 537 159 c 1
 517 56 l 1
 449 9 386 -14 323 -14 c 0
 173.129476859 -14 88.7025399597 78.5559291135 88.7025399597 237.452684052 c 0
 88.7025399597 242.891093222 88.8014396055 248.407215554 89 254 c 1
 -14 254 l 1
 25 314 l 1
 93 314 l 1
 95 329 97 343 101 364 c 0
 106 387 109 400 112 415 c 1
 17 415 l 1
 56 475 l 1
 132 475 l 1
 191 643 317 742 470 742 c 0
 534 742 589 720 637 673 c 1
EndSplineSet
Validated: 524289
EndChar

StartChar: quotesinglbase
Encoding: 8218 8218 97
Width: 318
Flags: W
HStem: -116 240
VStem: -1 190
LayerCount: 2
Fore
SplineSet
86 124 m 1
 189 124 l 1
 172 40 l 1
 62 -116 l 1
 -1 -116 l 1
 69 40 l 1
 86 124 l 1
EndSplineSet
Validated: 1
EndChar

StartChar: florin
Encoding: 402 402 98
Width: 636
Flags: W
HStem: -208 70<-51.9578 86.8376> 344 70<191 298 420 546> 690 70<547.432 683.03>
LayerCount: 2
Fore
SplineSet
707 742 m 1
 691 662 l 1
 670 681 646 690 618 690 c 0
 555 690 511 651 479 566 c 2
 420 414 l 1
 560 414 l 1
 546 344 l 1
 391 344 l 1
 269 34 l 2
 232 -59 196 -122 158 -156 c 0
 120 -191 72 -208 11 -208 c 0
 -26 -208 -57 -202 -85 -187 c 1
 -69 -106 l 1
 -38 -127 -10 -138 21 -138 c 0
 84 -138 122 -98 166 10 c 1
 298 344 l 1
 177 344 l 1
 191 414 l 1
 327 414 l 1
 389 575 l 2
 436 695 514 760 613 760 c 0
 648 760 680 754 707 742 c 1
EndSplineSet
Validated: 1
EndChar

StartChar: quotedblbase
Encoding: 8222 8222 99
Width: 518
Flags: W
HStem: -116 240
LayerCount: 2
Fore
SplineSet
286 124 m 1
 389 124 l 1
 372 40 l 1
 262 -116 l 1
 199 -116 l 1
 269 40 l 1
 286 124 l 1
86 124 m 1
 189 124 l 1
 172 40 l 1
 62 -116 l 1
 -1 -116 l 1
 69 40 l 1
 86 124 l 1
EndSplineSet
Validated: 1
EndChar

StartChar: ellipsis
Encoding: 8230 8230 100
Width: 1000
Flags: W
HStem: 0 124<76 156 409 489 742 822>
LayerCount: 2
Fore
SplineSet
409 124 m 1
 513 124 l 1
 489 0 l 1
 385 0 l 1
 409 124 l 1
742 124 m 1
 846 124 l 1
 822 0 l 1
 718 0 l 1
 742 124 l 1
76 124 m 1
 180 124 l 1
 156 0 l 1
 52 0 l 1
 76 124 l 1
EndSplineSet
Validated: 1
EndChar

StartChar: dagger
Encoding: 8224 8224 101
Width: 500
Flags: W
HStem: 449 75<66 231 331 496> 709 20G<281.098 371>
LayerCount: 2
Fore
SplineSet
285 729 m 1
 371 729 l 1
 331 524 l 1
 510 524 l 1
 496 449 l 1
 317 449 l 1
 211 -96 l 1
 125 -96 l 1
 231 449 l 1
 52 449 l 1
 66 524 l 1
 245 524 l 1
 285 729 l 1
EndSplineSet
Validated: 1
EndChar

StartChar: daggerdbl
Encoding: 8225 8225 102
Width: 500
Flags: W
HStem: 109 75<0 165 265 430> 449 75<66 231 331 496> 709 20G<281.098 371>
LayerCount: 2
Fore
SplineSet
430 109 m 1
 251 109 l 1
 211 -96 l 1
 125 -96 l 1
 165 109 l 1
 -14 109 l 1
 0 184 l 1
 179 184 l 1
 231 449 l 1
 52 449 l 1
 66 524 l 1
 245 524 l 1
 285 729 l 1
 371 729 l 1
 331 524 l 1
 510 524 l 1
 496 449 l 1
 317 449 l 1
 265 184 l 1
 444 184 l 1
 430 109 l 1
EndSplineSet
Validated: 1
EndChar

StartChar: circumflex
Encoding: 710 710 103
Width: 500
Flags: W
HStem: 616 184
VStem: 150 312
LayerCount: 2
Fore
SplineSet
306 800 m 1
 378 800 l 1
 462 616 l 1
 394 616 l 1
 330 736 l 1
 218 616 l 1
 150 616 l 1
 306 800 l 1
EndSplineSet
Validated: 1
EndChar

StartChar: perthousand
Encoding: 8240 8240 104
Width: 1342
Flags: W
HStem: -14 62<623.264 729.644 1015.26 1121.64> 321 62<668.89 775.571 1061.1 1167.57> 345 62<189.108 296.102> 680 62<235.323 341.892>
VStem: 91.1421 78.6021<427.46 597.37> 361.256 78.6021<489.897 659.346> 524.488 78.7516<69.2618 238.103> 794.37 78.561<130.63 300.027> 916.488 78.7516<68.4043 238.505> 1186.37 78.561<130.549 301.008>
LayerCount: 2
Fore
SplineSet
1118 321 m 0xdfc0
 1062 321 1017 271 1000 184 c 0
 996.8 167.2 995.24 151.68 995.24 137.6 c 0
 995.24 81.28 1020.2 48 1065 48 c 0
 1121 48 1165 100 1181 184 c 0
 1184.6084567 202.042283492 1186.36964921 218.597744592 1186.36964921 233.484676435 c 0
 1186.36964921 288.732392859 1162.11331911 321 1118 321 c 0xdfc0
1130 383 m 0
 1215.89420268 383 1264.93062943 328.756480703 1264.93062943 240.567193469 c 0
 1264.93062943 223.004330946 1262.98581685 204.095159958 1259 184 c 0
 1236 63 1156 -14 1053 -14 c 0
 965.733962357 -14 916.488404706 40.2143881376 916.488404706 129.146976902 c 0
 916.488404706 146.200513797 918.299219863 164.530678412 922 184 c 0
 946 307 1027 383 1130 383 c 0
304 742 m 0
 390.094545569 742 439.857855358 688.201823941 439.857855358 599.87757801 c 0
 439.857855358 582.534301443 437.939135013 563.859805691 434 544 c 0
 410 421 331 345 227 345 c 0xbfc0
 140.905454431 345 91.142144642 398.099498448 91.142144642 487.362402027 c 0
 91.142144642 504.889992642 93.060864987 523.811933058 97 544 c 0
 121 665 201 742 304 742 c 0
745 742 m 1
 823 742 l 1
 220 -14 l 1
 142 -14 l 1
 745 742 l 1
292 680 m 0
 236 680 192 628 175 544 c 0
 171.463164378 525.899723581 169.74427568 509.400971833 169.74427568 494.620813571 c 0
 169.74427568 438.359307105 194.650752638 407 239 407 c 0
 296 407 339 457 356 544 c 0
 359.536835622 561.476128956 361.25572432 577.567155494 361.25572432 592.092973747 c 0
 361.25572432 647.386320611 336.349247362 680 292 680 c 0
738 383 m 0xdfc0
 823.89420268 383 872.930629428 328.756480703 872.930629428 240.567193469 c 0
 872.930629428 223.004330946 870.985816851 204.095159958 867 184 c 0
 844 63 764 -14 661 -14 c 0
 573.733962357 -14 524.488404706 40.2143881376 524.488404706 129.146976902 c 0
 524.488404706 146.200513797 526.299219863 164.530678412 530 184 c 0
 554 307 634 383 738 383 c 0xdfc0
726 321 m 0
 670 321 625 271 608 184 c 0
 604.8 167.2 603.24 151.68 603.24 137.6 c 0
 603.24 81.28 628.2 48 673 48 c 0
 729 48 773 100 789 184 c 0
 792.608456698 202.042283492 794.369649212 218.597744592 794.369649212 233.484676435 c 0
 794.369649212 288.732392859 770.113319111 321 726 321 c 0
EndSplineSet
Validated: 524289
Ligature2: "sous-table Remplacement de ligature lookups11" zero fraction zero zero
Ligature2: "sous-table Remplacement de ligature lookups11" zero slash zero zero
EndChar

StartChar: Scaron
Encoding: 352 352 105
Width: 635
Flags: W
HStem: -14 80<125.761 364.596> 662 80<286.721 518.088>
VStem: 101.407 102.504<466.58 586.466> 453.02 107.041<145.51 278.08>
LayerCount: 2
Fore
SplineSet
609 705 m 1
 590 609 l 1
 522 645 459 662 398 662 c 0
 290 662 222 619 207 542 c 0
 204.988893001 532.099165544 203.911144009 523.035960068 203.911144009 514.714122914 c 0
 203.911144009 469.242759083 236.088855991 445.905989232 324 429 c 1
 382 417 l 1
 502.366383391 393.09745578 560.061185999 339.316599792 560.061185999 250.058556586 c 0
 560.061185999 234.757637917 558.365767248 218.414187067 555 201 c 0
 527 60 417 -14 234 -14 c 0
 165 -14 89 1 12 32 c 1
 32 134 l 1
 103 89 174 66 249 66 c 0
 361 66 434 111 450 194 c 0
 452 204.285714286 453.020408163 213.857142857 453.020408163 222.766763848 c 0
 453.020408163 276.224489796 416.285714286 305.857142857 334 323 c 2
 277 335 l 2
 155.55977051 359.801173628 101.407336058 406.544019551 101.407336058 488.989391717 c 0
 101.407336058 502.947352258 102.959470558 517.928630094 106 534 c 0
 131 663 243 742 403 742 c 0
 471 742 538 730 609 705 c 1
364 798 m 1
 286 928 l 1
 354 928 l 1
 418 841 l 1
 516 928 l 1
 584 928 l 1
 456 798 l 1
 364 798 l 1
EndSplineSet
Validated: 524289
Position2: "sous-table 'cpsp' Chasses pour composition en capitales dans Latin lookup 1" dx=5 dy=0 dh=10 dv=0
EndChar

StartChar: guilsinglleft
Encoding: 8249 8249 106
Width: 400
Flags: W
VStem: 67 276
LayerCount: 2
Fore
SplineSet
343 517 m 1
 325 424 l 1
 152 293 l 1
 274 162 l 1
 256 69 l 1
 67 273 l 1
 74 313 l 1
 343 517 l 1
EndSplineSet
Validated: 1
EndChar

StartChar: OE
Encoding: 338 338 107
Width: 1070
Flags: W
HStem: 0 83<285.127 489 588 943> 347 83<655 986> 646 83<386.831 598 697 1059>
VStem: 53.5867 105.449<188.692 411.758>
LayerCount: 2
Fore
SplineSet
1075 729 m 1
 1059 646 l 1
 697 646 l 1
 655 430 l 1
 1002 430 l 1
 986 347 l 1
 639 347 l 1
 588 83 l 1
 959 83 l 1
 943 0 l 1
 423 0 l 2
 178.655384498 0 53.5866568203 93.9297616619 53.5866568203 273.421849642 c 0
 53.5866568203 301.817546683 56.7167926258 332.354639947 63 365 c 1
 110 602 281 729 564 729 c 2
 1075 729 l 1
598 646 m 1
 535 646 l 2
 326 646 204 553 167 365 c 0
 161.691732434 337.279047158 159.035995698 311.601847578 159.035995698 287.968401259 c 0
 159.035995698 151.32280042 247.817442255 83 426 83 c 2
 489 83 l 1
 598 646 l 1
EndSplineSet
Validated: 524289
Ligature2: "sous-table 'dpng' Dipthongs (Obsolete) dans Latin lookup 9" O e
Ligature2: "sous-table 'dpng' Dipthongs (Obsolete) dans Latin lookup 9" O E
Position2: "sous-table 'cpsp' Chasses pour composition en capitales dans Latin lookup 1" dx=5 dy=0 dh=10 dv=0
EndChar

StartChar: quoteleft
Encoding: 8216 8216 108
Width: 318
Flags: W
HStem: 489 240
VStem: 117 189
LayerCount: 2
Fore
SplineSet
220 489 m 1
 117 489 l 1
 133 573 l 1
 243 729 l 1
 306 729 l 1
 236 573 l 1
 220 489 l 1
EndSplineSet
Validated: 1
EndChar

StartChar: quoteright
Encoding: 8217 8217 109
Width: 318
Flags: W
HStem: 499 230
VStem: 120 188
LayerCount: 2
Fore
SplineSet
205 729 m 1
 308 729 l 1
 294 655 l 1
 183 499 l 1
 120 499 l 1
 191 655 l 1
 205 729 l 1
EndSplineSet
Validated: 1
EndChar

StartChar: quotedblleft
Encoding: 8220 8220 110
Width: 518
Flags: W
HStem: 489 240
LayerCount: 2
Fore
SplineSet
220 489 m 1
 117 489 l 1
 133 573 l 1
 243 729 l 1
 306 729 l 1
 236 573 l 1
 220 489 l 1
420 489 m 1
 317 489 l 1
 333 573 l 1
 443 729 l 1
 506 729 l 1
 436 573 l 1
 420 489 l 1
EndSplineSet
Validated: 1
EndChar

StartChar: quotedblright
Encoding: 8221 8221 111
Width: 518
Flags: W
HStem: 489 240
LayerCount: 2
Fore
SplineSet
203 729 m 1
 306 729 l 1
 290 645 l 1
 180 489 l 1
 117 489 l 1
 187 645 l 1
 203 729 l 1
403 729 m 1
 506 729 l 1
 490 645 l 1
 380 489 l 1
 317 489 l 1
 387 645 l 1
 403 729 l 1
EndSplineSet
Validated: 1
EndChar

StartChar: bullet
Encoding: 8226 8226 112
Width: 590
Flags: W
HStem: 227 289<250.396 357.771>
VStem: 155.819 296.213<320.994 423.324>
LayerCount: 2
Fore
SplineSet
159 372 m 0
 167 413 187 447 221 474 c 1
 254 502 292 516 333 516 c 0
 373 516 404 502 427 474 c 0
 443.411267233 453.858899305 452.03200618 429.822534466 452.03200618 401.890905484 c 0
 452.03200618 392.379000772 451.032266461 382.415365611 449 372 c 0
 441 331 420 297 387 269 c 0
 353 241 317 227 276 227 c 0
 235 227 203 241 181 269 c 0
 164.079763017 289.598549371 155.818714527 313.444294427 155.818714527 340.935375171 c 0
 155.818714527 350.813443438 156.88529982 361.162161579 159 372 c 0
EndSplineSet
Validated: 524289
EndChar

StartChar: endash
Encoding: 8211 8211 113
Width: 500
Flags: W
HStem: 239 70<-3 483>
LayerCount: 2
Fore
SplineSet
-3 309 m 1
 497 309 l 1
 483 239 l 1
 -17 239 l 1
 -3 309 l 1
EndSplineSet
Validated: 1
EndChar

StartChar: emdash
Encoding: 8212 8212 114
Width: 1000
Flags: W
HStem: 239 70<-3 983>
LayerCount: 2
Fore
SplineSet
-3 309 m 1
 997 309 l 1
 983 239 l 1
 -17 239 l 1
 -3 309 l 1
EndSplineSet
Validated: 1
EndChar

StartChar: tilde
Encoding: 732 732 115
Width: 500
Flags: W
HStem: 639 62<353.981 418.735> 715 62<229.777 294.465>
VStem: 150 61<639 697.688> 438 61<718.312 777>
LayerCount: 2
Fore
SplineSet
315 669 m 2
 292 696 l 1
 279 709 270 715 262 715 c 0
 237 715 222 692 211 639 c 1
 150 639 l 1
 168 727 213 777 272 777 c 0
 297 777 314 768 334 747 c 1
 356 720 l 1
 369 707 378 701 386 701 c 0
 411 701 426 724 438 777 c 1
 499 777 l 1
 480 689 436 639 377 639 c 0
 352 639 334 648 315 669 c 2
EndSplineSet
Validated: 1
EndChar

StartChar: trademark
Encoding: 8482 8482 116
Width: 1000
Flags: W
HStem: 683 46<222 311 367 466>
LayerCount: 2
Fore
SplineSet
614 729 m 1
 675 604 l 1
 779 729 l 1
 862 729 l 1
 807 447 l 1
 752 447 l 1
 798 683 l 1
 674 535 l 1
 647 535 l 1
 577 683 l 1
 531 447 l 1
 475 447 l 1
 530 729 l 1
 614 729 l 1
475 729 m 1
 466 683 l 1
 367 683 l 1
 321 447 l 1
 265 447 l 1
 311 683 l 1
 213 683 l 1
 222 729 l 1
 475 729 l 1
EndSplineSet
Validated: 1
EndChar

StartChar: scaron
Encoding: 353 353 117
Width: 521
Flags: W
HStem: -14 75<76.5368 298.207> 485 75<204.801 428.71>
VStem: 68.4338 89.9625<349.904 444.271> 346.042 95.7355<106.469 199.553>
LayerCount: 2
Fore
SplineSet
483 531 m 1
 466 446 l 1
 420 471 369 485 310 485 c 0
 221 485 171 458 160 403 c 0
 158.962800165 397.684350845 158.39625561 392.704884034 158.39625561 388.018013532 c 0
 158.39625561 356.554700866 183.927798103 338.277350433 264 320 c 1
 293 313 l 1
 397.989651177 289.099916805 441.777804849 252.813816258 441.777804849 187.350259662 c 0
 441.777804849 176.120376752 440.489235203 164.031878417 438 151 c 0
 418 50 321 -14 180 -14 c 0
 121 -14 61 -3 -6 20 c 1
 12 113 l 1
 73 78 133 61 196 61 c 0
 281 61 334 91 344 144 c 0
 345.348480035 150.742400177 346.042336645 156.975648801 346.042336645 162.738979054 c 0
 346.042336645 178.345376574 340.954559894 190.506048092 330 200 c 1
 317 213 283 226 230 238 c 2
 200 245 l 2
 108.777819351 265.461049865 68.4337972282 301.185547288 68.4337972282 363.946938837 c 0
 68.4337972282 374.802170438 69.6406999101 386.466218272 72 399 c 0
 92 502 178 560 313 560 c 0
 380 560 437 550 483 531 c 1
281 616 m 1
 197 800 l 1
 265 800 l 1
 330 680 l 1
 441 800 l 1
 509 800 l 1
 353 616 l 1
 281 616 l 1
EndSplineSet
Validated: 524289
EndChar

StartChar: guilsinglright
Encoding: 8250 8250 118
Width: 400
Flags: W
VStem: 44 276
LayerCount: 2
Fore
SplineSet
131 517 m 1
 320 313 l 1
 313 273 l 1
 44 69 l 1
 62 162 l 1
 234 293 l 1
 113 424 l 1
 131 517 l 1
EndSplineSet
Validated: 1
EndChar

StartChar: oe
Encoding: 339 339 119
Width: 1023
Flags: W
HStem: -14 76<182.329 335.298 604.159 832.114> 252 70<559 882.003> 484 76<259.276 408.491 668.72 838.893>
VStem: 36.3881 96.2563<113.931 323.416> 458.898 80.4228<212.565 339.678> 882.914 88.56<322.715 439.448>
LayerCount: 2
Fore
SplineSet
879 322 m 1
 881.629345548 336.461400512 882.914407594 350.154639024 882.914407594 362.995558728 c 0
 882.914407594 438.061135332 838.999347014 484 763 484 c 0
 663 484 588 425 559 322 c 1
 879 322 l 1
964 296 m 2
 955 252 l 1
 542 252 l 1
 540.209702039 238.125190806 539.320857238 224.976552212 539.320857238 212.565291647 c 0
 539.320857238 114.056373888 595.315341082 62 701 62 c 0
 770 62 837 78 907 113 c 1
 891 28 l 1
 821 0 750 -14 681 -14 c 0
 577 -14 505 22 466 93 c 1
 407 21 332 -14 240 -14 c 0
 108.91511061 -14 36.3880877056 61.2886854827 36.3880877056 190.330273638 c 0
 36.3880877056 215.841429392 39.2227460425 243.453472617 45 273 c 0
 80 453 194 560 351 560 c 0
 443 560 505 524 535 453 c 1
 599 522 683 560 776 560 c 0
 849 560 903 536 937 489 c 0
 959.659209895 456.727791968 971.474420488 415.968975785 971.474420488 367.371025646 c 0
 971.474420488 345.192794179 969.013716414 321.381939348 964 296 c 2
337 484 m 0
 241 484 165 404 140 273 c 0
 135.0573326 248.096560406 132.644394892 225.036209587 132.644394892 204.018180931 c 0
 132.644394892 114.474704877 176.439951455 62 255 62 c 0
 351 62 426 142 452 273 c 0
 456.634837452 296.915761252 458.898093214 319.216097296 458.898093214 339.677984161 c 0
 458.898093214 429.586132257 415.202224184 484 337 484 c 0
EndSplineSet
Validated: 524289
Ligature2: "sous-table 'dpng' Dipthongs (Obsolete) dans Latin lookup 9" o e
EndChar

StartChar: Ydieresis
Encoding: 376 376 120
Width: 611
Flags: W
HStem: 0 21G<193 295.862> 709 20G<76 191.6 567.733 691> 814 99<275 355 466 546>
LayerCount: 2
Fore
SplineSet
76 729 m 1
 182 729 l 1
 326 429 l 1
 585 729 l 1
 691 729 l 1
 359 347 l 1
 292 0 l 1
 193 0 l 1
 260 347 l 1
 76 729 l 1
466 913 m 1
 565 913 l 1
 546 814 l 1
 447 814 l 1
 466 913 l 1
275 913 m 1
 374 913 l 1
 355 814 l 1
 256 814 l 1
 275 913 l 1
EndSplineSet
Validated: 1
Position2: "sous-table 'cpsp' Chasses pour composition en capitales dans Latin lookup 1" dx=5 dy=0 dh=10 dv=0
EndChar

StartChar: exclamdown
Encoding: 161 161 121
Width: 401
Flags: W
HStem: 0 21G<88 190.875> 605 124<229 304>
VStem: 194 79<466.318 494>
LayerCount: 2
Fore
SplineSet
304 605 m 1
 205 605 l 1
 229 729 l 1
 328 729 l 1
 304 605 l 1
187 0 m 1
 88 0 l 1
 150 320 l 1
 194 494 l 1
 273 494 l 1
 249 320 l 1
 187 0 l 1
EndSplineSet
Validated: 1
Position2: "sous-table 'cpsp' Chasses pour composition en capitales dans Latin lookup 1" dx=5 dy=0 dh=10 dv=0
EndChar

StartChar: cent
Encoding: 162 162 122
Width: 636
Flags: W
HStem: -12 76<219.425 265> 482 77<292.891 361 426 505.668>
VStem: 65.9905 96.2858<122.002 325.889>
LayerCount: 2
Fore
SplineSet
280 64 m 1
 361 482 l 1
 263 470 192 393 169 273 c 0
 164.491035536 250.455177682 162.276340925 229.392806653 162.276340925 209.978668663 c 0
 162.276340925 126.056593757 203.660110816 72.9333912875 280 64 c 1
556 526 m 1
 539 442 l 1
 497 469 456 481 412 484 c 1
 330 62 l 1
 375 65 422 79 474 104 c 1
 458 21 l 1
 411 1 365 -10 315 -14 c 1
 288 -153 l 1
 238 -153 l 1
 265 -12 l 1
 136.045591717 -1.11423826181 65.9904965942 73.5791127337 65.9904965942 196.227099672 c 0
 65.9904965942 220.047854981 68.6330874893 245.677536309 74 273 c 0
 106 441 216 544 376 559 c 1
 403 699 l 1
 453 699 l 1
 426 559 l 1
 474 556 516 546 556 526 c 1
EndSplineSet
Validated: 524289
EndChar

StartChar: sterling
Encoding: 163 163 123
Width: 636
Flags: W
HStem: 0 83<16 131 229 485> 310 70<91 175 286 464> 664 78<382.174 561.799>
LayerCount: 2
Fore
SplineSet
613 713 m 1
 596 624 l 1
 552 651 511 664 471 664 c 0
 423 664 386 651 362 626 c 0
 338 601 320 554 307 485 c 2
 286 380 l 1
 477 380 l 1
 464 310 l 1
 273 310 l 1
 229 83 l 1
 501 83 l 1
 485 0 l 1
 0 0 l 1
 16 83 l 1
 131 83 l 1
 175 310 l 1
 78 310 l 1
 91 380 l 1
 188 380 l 1
 211 496 l 2
 244 667 326 742 477 742 c 0
 517 742 566 732 613 713 c 1
EndSplineSet
Validated: 1
EndChar

StartChar: currency
Encoding: 164 164 124
Width: 636
Flags: W
HStem: 105 77<221.618 366.22> 444 77<263.545 410.716>
VStem: 104.912 76.8488<220.856 363.066> 450.625 77.3387<264.744 403.129>
LayerCount: 2
Fore
SplineSet
466 485 m 1
 587 587 l 1
 632 531 l 1
 511 430 l 1
 522.409923899 403.824292232 527.963713805 378.099056309 527.963713805 351.917259971 c 0
 527.963713805 339.08998476 526.630624048 326.153120238 524 313 c 0
 516 272 496 235 464 198 c 1
 546 97 l 1
 480 42 l 1
 398 143 l 1
 354 118 316 105 276 105 c 0
 239 105 201 117 166 141 c 1
 45 40 l 1
 1 96 l 1
 122 197 l 1
 110.724801428 225.187996429 104.912224463 252.879390893 104.912224463 279.724228034 c 0
 104.912224463 290.973389108 105.932899375 302.073896697 108 313 c 0
 116 354 136 392 168 428 c 1
 86 529 l 1
 153 585 l 1
 235 484 l 1
 275 509 316 521 357 521 c 0
 396 521 430 509 466 485 c 1
448 314 m 0
 449.75 323.25 450.625 332.0625 450.625 340.46875 c 0
 450.625 365.6875 442.75 387.25 427 406 c 0
 407 431 379 444 342 444 c 0
 305 444 271 431 240 406 c 1
 211 381 192 351 185 314 c 0
 182.827329179 303.951397454 181.761025193 294.271583853 181.761025193 285.000622045 c 0
 181.761025193 260.134937957 189.431677052 238.210403685 204 220 c 0
 225 195 254 182 291 182 c 0
 328 182 361 195 391 220 c 0
 421 246 440 277 448 314 c 0
EndSplineSet
Validated: 524289
EndChar

StartChar: yen
Encoding: 165 165 125
Width: 636
Flags: W
HStem: 0 21G<206 307.874> 222 60<57 249 357 549> 383 60<89 218 463 580> 709 20G<118 217.959 565.38 673>
LayerCount: 2
Fore
SplineSet
549 222 m 1
 347 222 l 1
 304 0 l 1
 206 0 l 1
 249 222 l 1
 46 222 l 1
 57 282 l 1
 260 282 l 1
 265 307 l 1
 239 383 l 1
 77 383 l 1
 89 443 l 1
 218 443 l 1
 118 729 l 1
 211 729 l 1
 330 387 l 1
 580 729 l 1
 673 729 l 1
 463 443 l 1
 592 443 l 1
 580 383 l 1
 418 383 l 1
 362 307 l 1
 357 282 l 1
 560 282 l 1
 549 222 l 1
EndSplineSet
Validated: 1
EndChar

StartChar: brokenbar
Encoding: 166 166 126
Width: 337
Flags: W
VStem: 30 252
LayerCount: 2
Fore
SplineSet
185 199 m 1
 113 -171 l 1
 30 -171 l 1
 102 199 l 1
 185 199 l 1
282 699 m 1
 210 329 l 1
 127 329 l 1
 199 699 l 1
 282 699 l 1
EndSplineSet
Validated: 1
EndChar

StartChar: section
Encoding: 167 167 127
Width: 500
Flags: W
HStem: -95 70<60.5468 240.428> 672 70<253.043 428.522>
VStem: 47.3517 83.0766<297.9 404.815> 127.608 91.5739<545.287 638.856> 279.771 91.7276<11.6191 109.038> 369.457 82.9977<252.934 356.376>
LayerCount: 2
Fore
SplineSet
210 457 m 1xe4
 164 428 138 399 132 368 c 0
 130.949130613 362.745653064 130.428337931 357.579652245 130.428337931 352.492713521 c 0
 130.428337931 333.376174696 137.783129794 315.376174696 152 298 c 1
 171 277 217 244 289 200 c 1
 336 229 362 260 368 289 c 0
 368.976199468 293.880997339 369.456856927 298.685757445 369.456856927 303.421722594 c 0
 369.456856927 322.942916487 361.290442023 341.295277658 346 359 c 0
 328 381 282 414 210 457 c 1xe4
480 714 m 1
 465 634 l 1
 415 659 370 672 334 672 c 0
 271 672 229 645 220 598 c 0
 219.454545455 595.363636364 219.181818182 592.685950413 219.181818182 589.968444778 c 0
 219.181818182 562.79338843 246.454545455 531.636363636 301 498 c 0
 308 493 314 490 318 487 c 0
 380 448 418 416 435 391 c 0
 446.636363636 372.818181818 452.454545455 352.520661157 452.454545455 330.107438017 c 0xd4
 452.454545455 321.702479339 451.636363636 313 450 304 c 0
 438 245 400 201 333 166 c 1
 359.164414426 139.835585574 371.498998908 111.785285246 371.498998908 80.852268708 c 0
 371.498998908 72.7708617191 370.657111654 64.4926972281 369 56 c 0
 352 -36 268 -95 156 -95 c 0
 108 -95 61 -86 7 -67 c 1
 23 13 l 1
 74 -12 122 -25 159 -25 c 0
 226 -25 269 4 279 53 c 0
 279.514285714 55.8285714286 279.771428571 58.6865306122 279.771428571 61.5732478134 c 0
 279.771428571 92.3648979592 250.514285714 126.428571429 192 163 c 1
 182 170 l 1
 119 209 80 241 64 266 c 0
 52.6640419541 283.712434447 47.3517063215 303.432743031 47.3517063215 325.160925754 c 0xe8
 47.3517063215 334.100722054 48.2509842672 343.38041347 50 353 c 0
 62 412 101 459 167 491 c 1
 140.567325932 514.228713575 127.607940593 541.948523393 127.607940593 575.187236235 c 0xd0
 127.607940593 583.445555474 128.407920986 592.044555547 130 601 c 0
 147 686 229 742 337 742 c 0
 385 742 432 733 480 714 c 1
EndSplineSet
Validated: 524289
EndChar

StartChar: dieresis
Encoding: 168 168 128
Width: 500
Flags: W
HStem: 659 99<189 269 380 460>
VStem: 170 309
LayerCount: 2
Fore
SplineSet
380 758 m 1
 479 758 l 1
 460 659 l 1
 361 659 l 1
 380 758 l 1
189 758 m 1
 288 758 l 1
 269 659 l 1
 170 659 l 1
 189 758 l 1
EndSplineSet
Validated: 1
EndChar

StartChar: copyright
Encoding: 169 169 129
Width: 1000
Flags: W
HStem: 0 50<336.245 564.582> 141 58<412.503 598.215> 524 58<468.342 656.226> 675 50<449.495 679.842>
VStem: 137.716 50.4516<197.538 416.289> 285.396 81.0195<245.057 415.328> 825.423 50.8614<307.804 529.607>
LayerCount: 2
Fore
SplineSet
577 725 m 0
 676 725 755 689 813 618 c 0
 855.46503799 565.104952679 876.28406225 504.439541456 876.28406225 435.590271594 c 0
 876.28406225 412.024496801 873.844987337 387.499933351 869 362 c 0
 850 263 798 178 713 107 c 0
 628 36 536 0 437 0 c 0
 338 0 258 36 201 107 c 0
 158.53496201 159.895047321 137.71593775 220.560458544 137.71593775 288.996233671 c 0
 137.71593775 312.420477206 140.155012663 336.755065982 145 362 c 0
 164 462 216 547 301 618 c 0
 385 689 478 725 577 725 c 0
568 675 m 0
 483 675 403 644 330 583 c 0
 257 522 210 446 194 362 c 0
 190.106859333 341.561011499 188.167491949 321.654870256 188.167491949 302.353605764 c 0
 188.167491949 242.330679762 206.922743292 188.157401207 244 142 c 0
 293 81 361 50 446 50 c 0
 531 50 612 81 685 142 c 0
 758 203 802 277 819 362 c 0
 823.297938429 383.995331962 825.422668065 405.159731149 825.422668065 425.477037844 c 0
 825.422668065 485.522495646 806.864644435 538.169194456 771 583 c 0
 722 644 653 675 568 675 c 0
690 555 m 1
 678 492 l 1
 639 513 599 524 556 524 c 0
 459 524 390 463 371 362 c 0
 367.930437751 346.038276307 366.415540548 331.136551509 366.415540548 317.345439224 c 0
 366.415540548 241.279359062 412.501289356 199 498 199 c 0
 539 199 580 208 627 231 c 1
 615 169 l 1
 568 150 521 141 476 141 c 0
 355.516889549 141 285.396035908 203.952821012 285.396035908 308.187743929 c 0
 285.396035908 325.07261244 287.236028444 343.040735866 291 362 c 0
 317 498 422 582 562 582 c 0
 610 582 651 572 690 555 c 1
EndSplineSet
Validated: 524289
EndChar

StartChar: ordfeminine
Encoding: 170 170 130
Width: 471
Flags: W
HStem: 229 60<61 385> 341 58<168.609 289.088> 539 56<188.788 371> 686 56<178.315 365.645>
VStem: 79.433 74.5349<415.397 506.952> 385.108 70.5506<595.272 666.309>
LayerCount: 2
Fore
SplineSet
61 289 m 1
 397 289 l 1
 385 229 l 1
 49 229 l 1
 61 289 l 1
450 569 m 2
 408 350 l 1
 335 350 l 1
 345 405 l 1
 309 364 256 341 196 341 c 0
 122.335253955 341 79.4329501429 377.914930679 79.4329501429 436.232746687 c 0
 79.4329501429 444.41480759 80.2774576742 453.018172158 82 462 c 0
 99 550 170 595 293 595 c 2
 382 595 l 1
 383 597 l 1
 384.404890363 604.663038342 385.108377188 611.820413668 385.108377188 618.476292554 c 0
 385.108377188 663.934564135 352.293484767 686 286 686 c 0
 246 686 198 674 149 653 c 1
 161 715 l 1
 213 734 262 742 307 742 c 0
 406.495668541 742 455.659020141 702.153582422 455.659020141 621.291781923 c 0
 455.659020141 605.44028424 453.769744736 588.012625624 450 569 c 2
309 539 m 2
 204 539 165 519 155 468 c 1
 154.308044383 463.947117101 153.967862087 460.021263457 153.967862087 456.236927849 c 0
 153.967862087 421.737956537 182.239092528 399 230 399 c 0
 298 399 354 450 369 525 c 1
 371 539 l 1
 309 539 l 2
EndSplineSet
Validated: 524289
EndChar

StartChar: guillemotleft
Encoding: 171 171 131
Width: 612
Flags: W
LayerCount: 2
Fore
SplineSet
555 517 m 1
 537 424 l 1
 364 293 l 1
 486 162 l 1
 468 69 l 1
 279 273 l 1
 286 313 l 1
 555 517 l 1
343 517 m 1
 325 424 l 1
 152 293 l 1
 274 162 l 1
 256 69 l 1
 67 273 l 1
 74 313 l 1
 343 517 l 1
EndSplineSet
Validated: 1
EndChar

StartChar: logicalnot
Encoding: 172 172 132
Width: 838
Flags: W
HStem: 338 83<124 652>
LayerCount: 2
Fore
SplineSet
124 421 m 1
 750 421 l 1
 696 140 l 1
 614 140 l 1
 652 338 l 1
 108 338 l 1
 124 421 l 1
EndSplineSet
Validated: 1
EndChar

StartChar: minus
Encoding: 8722 8722 133
Width: 838
Flags: W
HStem: 272 83<112 721>
LayerCount: 2
Fore
SplineSet
112 355 m 1
 738 355 l 1
 721 272 l 1
 95 272 l 1
 112 355 l 1
EndSplineSet
Validated: 1
EndChar

StartChar: registered
Encoding: 174 174 134
Width: 1000
Flags: W
HStem: 0 50<336.245 564.582> 339 49<439 502.528> 523 50<465 600.727> 675 50<449.495 679.842>
VStem: 137.716 50.4516<197.538 416.289> 609.962 78.7098<412.745 511.747> 825.423 50.8614<307.804 529.607>
LayerCount: 2
Fore
SplineSet
568 675 m 0
 483 675 403 644 330 583 c 0
 257 522 210 446 194 362 c 0
 190.106859333 341.561011499 188.167491949 321.654870256 188.167491949 302.353605764 c 0
 188.167491949 242.330679762 206.922743292 188.157401207 244 142 c 0
 293 81 361 50 446 50 c 0
 531 50 612 81 685 142 c 0
 758 203 802 277 819 362 c 0
 823.297938429 383.995331962 825.422668065 405.159731149 825.422668065 425.477037844 c 0
 825.422668065 485.522495646 806.864644435 538.169194456 771 583 c 0
 722 644 653 675 568 675 c 0
577 725 m 0
 676 725 755 689 813 618 c 0
 855.46503799 565.104952679 876.28406225 504.439541456 876.28406225 435.590271594 c 0
 876.28406225 412.024496801 873.844987337 387.499933351 869 362 c 0
 850 263 798 178 713 107 c 0
 628 36 536 0 437 0 c 0
 338 0 258 36 201 107 c 0
 158.53496201 159.895047321 137.71593775 220.560458544 137.71593775 288.996233671 c 0
 137.71593775 312.420477206 140.155012663 336.755065982 145 362 c 0
 164 462 216 547 301 618 c 0
 385 689 478 725 577 725 c 0
525 523 m 2
 465 523 l 1
 439 388 l 1
 499 388 l 2
 571 388 598 406 608 455 c 0
 609.288509053 462.015215953 609.962108632 468.415522433 609.962108632 474.233198997 c 0
 609.962108632 509.050928889 585.835095251 523 525 523 c 2
538 573 m 2
 639.360876656 573 688.671860669 543.479165367 688.671860669 482.383314628 c 0
 688.671860669 474.162254673 687.779016088 465.369484732 686 456 c 0
 675 400 633 362 568 351 c 1
 583 346 598 322 620 274 c 1
 666 165 l 1
 582 165 l 1
 538 267 l 2
 525 298 513 318 503 326 c 0
 493 335 478 339 461 339 c 2
 429 339 l 1
 396 165 l 1
 320 165 l 1
 399 573 l 1
 538 573 l 2
EndSplineSet
Validated: 524289
EndChar

StartChar: macron
Encoding: 175 175 135
Width: 500
Flags: W
HStem: 673 72<185 463>
VStem: 171 306
LayerCount: 2
Fore
SplineSet
185 745 m 1
 477 745 l 1
 463 673 l 1
 171 673 l 1
 185 745 l 1
EndSplineSet
Validated: 1
EndChar

StartChar: degree
Encoding: 176 176 136
Width: 500
Flags: W
HStem: 432 62<227.067 346.895> 679 63<254.473 373.373>
VStem: 141.984 63.2711<515.243 630.3> 395.069 63.3714<541.816 657.891>
LayerCount: 2
Fore
SplineSet
318 679 m 0
 266 679 218 638 207 586 c 0
 205.822684223 579.877957962 205.255240319 573.922244616 205.255240319 568.178551622 c 0
 205.255240319 525.135902763 237.122042038 494 283 494 c 0
 335 494 383 534 393 586 c 0
 394.397725437 592.607429339 395.068891883 599.037255369 395.068891883 605.227930819 c 0
 395.068891883 647.757431834 363.392570661 679 318 679 c 0
331 742 m 0
 372 742 409 725 432 696 c 0
 449.080735804 674.463420074 458.440258945 647.963203436 458.440258945 618.137660565 c 0
 458.440258945 607.801731828 457.316233816 597.066450454 455 586 c 0
 447 543 425 506 388 476 c 0
 352 447 312 432 269 432 c 0
 225 432 191 447 168 476 c 0
 150.795637795 497.692456693 141.98418898 523.86113386 141.98418898 554.087496075 c 0
 141.98418898 564.269858269 142.984125984 574.912692913 145 586 c 1
 154 629 176 666 212 696 c 0
 248 727 288 742 331 742 c 0
EndSplineSet
Validated: 524289
EndChar

StartChar: plusminus
Encoding: 177 177 137
Width: 838
Flags: W
HStem: 0 83<59 669> 355 83<128 384 482 738>
LayerCount: 2
Fore
SplineSet
518 627 m 1
 482 438 l 1
 754 438 l 1
 738 355 l 1
 466 355 l 1
 429 166 l 1
 347 166 l 1
 384 355 l 1
 112 355 l 1
 128 438 l 1
 400 438 l 1
 436 627 l 1
 518 627 l 1
59 83 m 1
 685 83 l 1
 669 0 l 1
 43 0 l 1
 59 83 l 1
EndSplineSet
Validated: 1
EndChar

StartChar: twosuperior
Encoding: 178 178 138
Width: 401
Flags: W
HStem: 326 56<142 338> 689 53<143.254 304.049>
VStem: 318.506 76.7491<584.58 672.989>
LayerCount: 2
Fore
SplineSet
142 382 m 1
 349 382 l 1
 338 326 l 1
 46 326 l 1
 56 380 l 1
 69 390 88 404 112 422 c 0
 243 521 311 586 317 617 c 0
 318.01282473 621.839051488 318.506410308 626.500801803 318.506410308 630.963872966 c 0
 318.506410308 666.159825988 287.810515538 689 239 689 c 0
 206 689 164 678 113 655 c 1
 124 715 l 1
 177 734 223 742 260 742 c 0
 344.730822309 742 395.255503154 705.40738355 395.255503154 647.121686605 c 0
 395.255503154 640.05759632 394.513352502 632.674859116 393 625 c 0
 384 580 317 511 191 418 c 0
 170 403 154 391 142 382 c 1
EndSplineSet
Validated: 524289
EndChar

StartChar: threesuperior
Encoding: 179 179 139
Width: 401
Flags: W
HStem: 319 53<70.2793 260.978> 518 53<174 285.779> 689 53<140.204 315.134>
VStem: 300.519 74.5259<409.702 501.112> 325.998 75.9763<594.904 676.561>
LayerCount: 2
Fore
SplineSet
299 547 m 1xe8
 348.196232452 536.642898431 375.044641382 507.662610593 375.044641382 465.845603438 c 0
 375.044641382 459.212367779 374.369082026 452.256134737 373 445 c 0
 357 364 285 319 170 319 c 0
 133 319 93 326 50 339 c 1
 62 398 l 1
 92 381 129 372 173 372 c 0
 244 372 290 400 299 445 c 0
 300.0125 450.4 300.51875 455.50890625 300.51875 460.323871094 c 0xf0
 300.51875 498.30859375 269.0125 518 206 518 c 2
 164 518 l 1
 174 571 l 1
 220 571 l 2
 281 571 318 592 325 631 c 0
 325.667320266 634.527264266 325.998381257 637.909119115 325.998381257 641.141232643 c 0
 325.998381257 671.81307174 296.184780535 689 241 689 c 0
 214 689 184 684 129 669 c 1
 139 725 l 1
 190 736 232 742 268 742 c 0
 351.521659682 742 401.974690265 708.931370901 401.974690265 655.108063754 c 0
 401.974690265 649 401.324929292 642.624646459 400 636 c 0
 392 592 354 559 299 547 c 1xe8
EndSplineSet
Validated: 524289
EndChar

StartChar: acute
Encoding: 180 180 140
Width: 500
Flags: W
HStem: 616 184
VStem: 237 270
LayerCount: 2
Fore
SplineSet
410 800 m 1
 507 800 l 1
 312 616 l 1
 237 616 l 1
 410 800 l 1
EndSplineSet
Validated: 1
EndChar

StartChar: mu
Encoding: 181 181 141
Width: 636
Flags: W
HStem: -208 21G<-19 74.9259> -14 78<178.124 340.453 465.942 549.195> 527 20G<124.106 218 492.113 586>
LayerCount: 2
Fore
SplineSet
-19 -208 m 1
 128 547 l 1
 218 547 l 1
 152 207 l 2
 148.702574621 190.512873104 147.061702641 175.441346386 147.061702641 161.790646986 c 0
 147.061702641 96.7850437306 184.272285967 64 257 64 c 0
 353 64 413 119 434 228 c 2
 496 547 l 1
 586 547 l 1
 504 126 l 2
 502 116.25 501 107.8125 501 100.640625 c 0
 501 79.125 510 69 528 69 c 0
 535 69 543 72 564 80 c 1
 550 8 l 1
 520 -7 496 -14 473 -14 c 0
 428.97826087 -14 406.967391304 9.92485822306 406.967391304 59.6469548779 c 0
 406.967391304 60.7518903592 406.97826087 61.8695652174 407 63 c 1
 365 11 313 -14 249 -14 c 0
 182 -14 141 11 124 62 c 1
 71 -208 l 1
 -19 -208 l 1
EndSplineSet
Validated: 524289
EndChar

StartChar: paragraph
Encoding: 182 182 142
Width: 636
Flags: W
HStem: 669 60<433 526>
LayerCount: 2
Fore
SplineSet
387 729 m 2
 606 729 l 1
 446 -96 l 1
 377 -96 l 1
 526 669 l 1
 433 669 l 1
 284 -96 l 1
 215 -96 l 1
 295 317 l 1
 175.239551153 326.546122734 110.457428964 384.292422265 110.457428964 477.82075759 c 0
 110.457428964 492.065150231 111.960074808 507.139520737 115 523 c 0
 127 585 158 635 207 672 c 0
 258 710 317 729 387 729 c 2
EndSplineSet
Validated: 524289
EndChar

StartChar: periodcentered
Encoding: 183 183 143
Width: 318
Flags: W
HStem: 285 124<123 202>
VStem: 99 127
LayerCount: 2
Fore
SplineSet
123 409 m 1
 226 409 l 1
 202 285 l 1
 99 285 l 1
 123 409 l 1
EndSplineSet
Validated: 1
EndChar

StartChar: cedilla
Encoding: 184 184 144
Width: 500
Flags: W
HStem: -193 60<53.1654 184.61> -20 20G<170 239.405>
VStem: 196.609 65.0659<-120.342 -19.3777>
LayerCount: 2
Fore
SplineSet
228 0 m 1
 250.810122388 -32.5858891251 261.674542862 -61.1898776124 261.674542862 -87.4338876206 c 0
 261.674542862 -93.4050611938 261.112116631 -99.254064072 260 -105 c 0
 249 -162 204 -193 127 -193 c 0
 98 -193 70 -189 43 -181 c 1
 56 -117 l 1
 77 -128 98 -133 129 -133 c 0
 168 -133 190 -116 196 -87 c 1
 196.404141504 -84.3057233042 196.608657019 -81.4844118873 196.608657019 -78.5213971771 c 0
 196.608657019 -59.4895312965 188.171009469 -34.6114466083 170 0 c 1
 228 0 l 1
EndSplineSet
Validated: 524289
EndChar

StartChar: onesuperior
Encoding: 185 185 145
Width: 401
Flags: W
HStem: 326 54<86 186 256 346> 658 57<142 170.55> 714 20G<142 325>
VStem: 76 280
LayerCount: 2
Fore
SplineSet
86 380 m 1xb0
 186 380 l 1
 244 678 l 1
 131 658 l 1
 142 715 l 1xd0
 258 734 l 1
 325 734 l 1
 256 380 l 1
 356 380 l 1
 346 326 l 1
 76 326 l 1
 86 380 l 1xb0
EndSplineSet
Validated: 1
EndChar

StartChar: ordmasculine
Encoding: 186 186 146
Width: 471
Flags: W
HStem: 229 60<61 385> 341 57<190.978 316.231> 686 56<239.347 364.748>
VStem: 83.5963 77.0715<429.623 594.028> 394.488 76.9189<488.618 656.135>
LayerCount: 2
Fore
SplineSet
61 289 m 1
 397 289 l 1
 385 229 l 1
 49 229 l 1
 61 289 l 1
317 742 m 0
 415.454414287 742 471.40711708 686.53166466 471.40711708 593.937254843 c 0
 471.40711708 577.435981987 469.630121182 559.755626107 466 541 c 0
 442 417 355 341 239 341 c 0
 139.679643653 341 83.5963383024 395.766931263 83.5963383024 488.172454651 c 0
 83.5963383024 504.621214856 85.3734064302 522.262599889 89 541 c 0
 113 665 200 742 317 742 c 0
306 686 m 0
 238 686 182 629 165 541 c 0
 162.083261121 526.073159853 160.667822069 512.058874503 160.667822069 499.083409797 c 0
 160.667822069 436.432324057 193.666955517 398 250 398 c 0
 318 398 373 454 390 541 c 0
 393.014430677 556.781431191 394.488194146 571.52527018 394.488194146 585.103284804 c 0
 394.488194146 648.099016054 362.764957841 686 306 686 c 0
EndSplineSet
Validated: 524289
EndChar

StartChar: guillemotright
Encoding: 187 187 147
Width: 612
Flags: W
LayerCount: 2
Fore
SplineSet
131 517 m 1
 320 313 l 1
 313 273 l 1
 44 69 l 1
 62 162 l 1
 234 293 l 1
 113 424 l 1
 131 517 l 1
343 517 m 1
 532 313 l 1
 525 273 l 1
 256 69 l 1
 274 162 l 1
 446 293 l 1
 325 424 l 1
 343 517 l 1
EndSplineSet
Validated: 1
EndChar

StartChar: onequarter
Encoding: 188 188 148
Width: 969
Flags: W
HStem: -14 21G<152 245.926 738 811.736> 91 53<614 755 835 891> 326 54<86 186 256 346> 658 57<142 170.55> 714 28G<142 325 738.074 832>
LayerCount: 2
Fore
SplineSet
86 380 m 1xf0
 186 380 l 1
 244 678 l 1
 131 658 l 1
 142 715 l 1
 258 734 l 1
 325 734 l 1
 256 380 l 1
 356 380 l 1
 346 326 l 1
 76 326 l 1
 86 380 l 1xf0
754 742 m 1xe8
 832 742 l 1
 230 -14 l 1
 152 -14 l 1
 754 742 l 1xe8
805 349 m 1
 614 144 l 1
 765 144 l 1
 805 349 l 1
806 408 m 1
 887 408 l 1
 835 144 l 1
 901 144 l 1
 891 91 l 1
 825 91 l 1
 808 0 l 1
 738 0 l 1
 755 91 l 1
 553 91 l 1
 565 150 l 1
 806 408 l 1
EndSplineSet
Validated: 1
Ligature2: "sous-table Remplacement de ligature lookups11" one fraction four
Ligature2: "sous-table Remplacement de ligature lookups11" one slash four
EndChar

StartChar: onehalf
Encoding: 189 189 149
Width: 969
Flags: W
HStem: -14 21G<152 245.926> 0 56<646 843> 326 54<86 186 256 346> 363 53<646.781 808.136> 658 57<142 170.55> 714 28G<142 325 738.074 832>
VStem: 823.247 76.7251<258.58 346.392>
LayerCount: 2
Fore
SplineSet
86 380 m 1x2a
 186 380 l 1
 244 678 l 1
 131 658 l 1
 142 715 l 1
 258 734 l 1
 325 734 l 1
 256 380 l 1
 356 380 l 1
 346 326 l 1
 76 326 l 1
 86 380 l 1x2a
754 742 m 1x86
 832 742 l 1
 230 -14 l 1
 152 -14 l 1
 754 742 l 1x86
646 56 m 1x52
 853 56 l 1
 843 0 l 1
 551 0 l 1
 561 54 l 1
 574 64 593 78 616 96 c 0
 747 195 816 260 822 291 c 0
 822.837368243 295.500854306 823.247451527 299.848324268 823.247451527 304.025208209 c 0
 823.247451527 339.753195048 793.24309333 363 744 363 c 0
 711 363 669 352 617 329 c 1
 629 389 l 1
 682 408 727 416 764 416 c 0
 849.333547642 416 899.972578144 378.884935153 899.972578144 319.874568215 c 0
 899.972578144 313.189965073 899.322777691 306.224401236 898 299 c 0
 889 254 821 185 695 92 c 0
 674 77 658 65 646 56 c 1x52
EndSplineSet
Validated: 524289
Ligature2: "sous-table Remplacement de ligature lookups11" one fraction two
Ligature2: "sous-table Remplacement de ligature lookups11" one slash two
EndChar

StartChar: threequarters
Encoding: 190 190 150
Width: 969
Flags: W
HStem: -14 21G<152 245.926 738 811.736> 91 53<614 755 835 891> 319 53<70.2793 260.978> 518 53<174 285.779> 689 53<140.204 315.134>
VStem: 300.519 74.5259<409.702 501.112> 325.998 75.9763<594.904 676.561>
LayerCount: 2
Fore
SplineSet
299 547 m 1xfa
 348.196232452 536.642898431 375.044641382 507.662610593 375.044641382 465.845603438 c 0
 375.044641382 459.212367779 374.369082026 452.256134737 373 445 c 0
 357 364 285 319 170 319 c 0
 133 319 93 326 50 339 c 1
 62 398 l 1
 92 381 129 372 173 372 c 0
 244 372 290 400 299 445 c 0
 300.0125 450.4 300.51875 455.50890625 300.51875 460.323871094 c 0xfc
 300.51875 498.30859375 269.0125 518 206 518 c 2
 164 518 l 1
 174 571 l 1
 220 571 l 2
 281 571 318 592 325 631 c 0
 325.667320266 634.527264266 325.998381257 637.909119115 325.998381257 641.141232643 c 0
 325.998381257 671.81307174 296.184780535 689 241 689 c 0
 214 689 184 684 129 669 c 1
 139 725 l 1
 190 736 232 742 268 742 c 0
 351.521659682 742 401.974690265 708.931370901 401.974690265 655.108063754 c 0
 401.974690265 649 401.324929292 642.624646459 400 636 c 0
 392 592 354 559 299 547 c 1xfa
754 742 m 1
 832 742 l 1
 230 -14 l 1
 152 -14 l 1
 754 742 l 1
805 349 m 1
 614 144 l 1
 765 144 l 1
 805 349 l 1
806 408 m 1
 887 408 l 1
 835 144 l 1
 901 144 l 1
 891 91 l 1
 825 91 l 1
 808 0 l 1
 738 0 l 1
 755 91 l 1
 553 91 l 1
 565 150 l 1
 806 408 l 1
EndSplineSet
Validated: 524289
Ligature2: "sous-table Remplacement de ligature lookups11" three fraction four
Ligature2: "sous-table Remplacement de ligature lookups11" three slash four
EndChar

StartChar: questiondown
Encoding: 191 191 151
Width: 531
Flags: W
HStem: -14 80<162.377 328.428> 605 124<319 394>
VStem: 33.25 101.875<91.6782 206.789>
LayerCount: 2
Fore
SplineSet
284 533 m 1
 377 533 l 1
 362 457 l 2
 356 424 346 397 333 376 c 0
 320 355 296 330 261 302 c 2
 209 259 l 1
 165 224 143 195 137 163 c 0
 135.741810141 156.480288915 135.124686765 150.18298865 135.124686765 144.142517418 c 0
 135.124686765 97.3728478783 172.121043632 66 235 66 c 0
 286 66 350 89 421 133 c 1
 403 41 l 1
 335 4 270 -14 203 -14 c 0
 143 -14 98 2 67 33 c 1
 44.5 57 33.25 86.625 33.25 121.453125 c 0
 33.25 133.0625 34.5 145.25 37 158 c 0
 47 207 75 248 145 304 c 1
 196 346 l 2
 233 377 246 391 254 407 c 0
 260 420 266 438 272 473 c 2
 284 533 l 1
394 605 m 1
 295 605 l 1
 319 729 l 1
 418 729 l 1
 394 605 l 1
EndSplineSet
Validated: 524289
Position2: "sous-table 'cpsp' Chasses pour composition en capitales dans Latin lookup 1" dx=5 dy=0 dh=10 dv=0
EndChar

StartChar: Agrave
Encoding: 192 192 152
Width: 684
Flags: W
HStem: 0 21G<-55 59.9091 506.791 613> 187 82<197 465> 709 20G<352.505 479.759>
LayerCount: 2
Fore
SplineSet
401 632 m 1
 197 269 l 1
 465 269 l 1
 401 632 l 1
364 729 m 1
 476 729 l 1
 613 0 l 1
 510 0 l 1
 480 187 l 1
 151 187 l 1
 49 0 l 1
 -55 0 l 1
 364 729 l 1
431 927 m 1
 502 798 l 1
 427 798 l 1
 340 927 l 1
 431 927 l 1
EndSplineSet
Validated: 1
Position2: "sous-table 'cpsp' Chasses pour composition en capitales dans Latin lookup 1" dx=5 dy=0 dh=10 dv=0
EndChar

StartChar: Aacute
Encoding: 193 193 153
Width: 684
Flags: W
HStem: 0 21G<-55 59.9091 506.791 613> 187 82<197 465> 709 20G<352.505 479.759>
LayerCount: 2
Fore
SplineSet
401 632 m 1
 197 269 l 1
 465 269 l 1
 401 632 l 1
364 729 m 1
 476 729 l 1
 613 0 l 1
 510 0 l 1
 480 187 l 1
 151 187 l 1
 49 0 l 1
 -55 0 l 1
 364 729 l 1
486 927 m 1
 576 927 l 1
 440 798 l 1
 365 798 l 1
 486 927 l 1
EndSplineSet
Validated: 1
Position2: "sous-table 'cpsp' Chasses pour composition en capitales dans Latin lookup 1" dx=5 dy=0 dh=10 dv=0
EndChar

StartChar: Acircumflex
Encoding: 194 194 154
Width: 684
Flags: W
HStem: 0 21G<-55 59.9091 506.791 613> 187 82<197 465> 709 20G<352.505 479.759>
LayerCount: 2
Fore
SplineSet
401 632 m 1
 197 269 l 1
 465 269 l 1
 401 632 l 1
364 729 m 1
 476 729 l 1
 613 0 l 1
 510 0 l 1
 480 187 l 1
 151 187 l 1
 49 0 l 1
 -55 0 l 1
 364 729 l 1
413 928 m 1
 505 928 l 1
 583 798 l 1
 515 798 l 1
 451 885 l 1
 353 798 l 1
 285 798 l 1
 413 928 l 1
EndSplineSet
Validated: 1
Position2: "sous-table 'cpsp' Chasses pour composition en capitales dans Latin lookup 1" dx=5 dy=0 dh=10 dv=0
EndChar

StartChar: Atilde
Encoding: 195 195 155
Width: 684
Flags: W
HStem: 0 21G<-55 59.9091 506.791 613> 187 82<197 465> 709 20G<352.505 479.759> 814 59<464.092 547.688> 863 58<346.591 429.4>
VStem: 276 61<814 855.516> 557 62<881.844 918>
LayerCount: 2
Fore
SplineSet
401 632 m 1xe6
 197 269 l 1
 465 269 l 1
 401 632 l 1xe6
364 729 m 1
 476 729 l 1
 613 0 l 1
 510 0 l 1
 480 187 l 1
 151 187 l 1
 49 0 l 1
 -55 0 l 1
 364 729 l 1
439 835 m 1
 414 851 l 2
 400 860 391 863 383 863 c 0xee
 359 863 343 846 337 817 c 1
 337 814 l 1
 276 814 l 1xf6
 288 879 333 921 389 921 c 0xee
 413 921 428 917 455 900 c 1
 481 885 l 2
 494 877 504 873 513 873 c 0xf6
 534 873 552 891 557 918 c 1
 558 921 l 1
 619 921 l 1xee
 605 856 561 814 506 814 c 0xf6
 483 814 469 818 439 835 c 1
EndSplineSet
Validated: 1
Position2: "sous-table 'cpsp' Chasses pour composition en capitales dans Latin lookup 1" dx=5 dy=0 dh=10 dv=0
EndChar

StartChar: Adieresis
Encoding: 196 196 156
Width: 684
Flags: W
HStem: 0 21G<-55 59.9091 506.791 613> 187 82<197 465> 709 20G<352.505 479.759> 814 99<311 391 502 582>
LayerCount: 2
Fore
SplineSet
401 632 m 1
 197 269 l 1
 465 269 l 1
 401 632 l 1
364 729 m 1
 476 729 l 1
 613 0 l 1
 510 0 l 1
 480 187 l 1
 151 187 l 1
 49 0 l 1
 -55 0 l 1
 364 729 l 1
502 913 m 1
 601 913 l 1
 582 814 l 1
 483 814 l 1
 502 913 l 1
311 913 m 1
 410 913 l 1
 391 814 l 1
 292 814 l 1
 311 913 l 1
EndSplineSet
Validated: 1
Position2: "sous-table 'cpsp' Chasses pour composition en capitales dans Latin lookup 1" dx=5 dy=0 dh=10 dv=0
EndChar

StartChar: Aring
Encoding: 197 197 157
Width: 684
Flags: W
HStem: 0 21G<-55 59.9091 506.791 613> 187 82<198 464> 868 60<389.965 495.299>
VStem: 296.127 61.4291<733.314 835.661> 508.405 61.2051<753.789 854.865>
LayerCount: 2
Fore
SplineSet
507 794 m 0
 507.947986128 798.858428906 508.404507889 803.6045231 508.404507889 808.196684241 c 0
 508.404507889 842.357504867 483.141571094 868 447 868 c 0
 406 868 367 837 359 794 c 0
 358.025666962 789.006543182 357.555662761 784.131751972 357.555662761 779.420790365 c 0
 357.555662761 745.451248074 381.993456818 720 418 720 c 0
 459 720 499 753 507 794 c 0
401 632 m 1
 198 269 l 1
 464 269 l 1
 401 632 l 1
337 682 m 1
 309.424992498 703.272148644 296.126526948 730.751489441 296.126526948 764.927060591 c 0
 296.126526948 774.1293558 297.090716215 783.817153145 299 794 c 0
 306 831 325 863 356 889 c 0
 387 915 422 928 459 928 c 0
 496 928 524 915 545 889 c 0
 561.548249327 869.442978068 569.609580603 846.491188916 569.609580603 820.570219318 c 0
 569.609580603 812.030665638 568.734647941 803.168853405 567 794 c 0
 558 749 529 709 485 682 c 1
 613 0 l 1
 510 0 l 1
 480 187 l 1
 151 187 l 1
 49 0 l 1
 -55 0 l 1
 337 682 l 1
EndSplineSet
Validated: 524289
Position2: "sous-table 'cpsp' Chasses pour composition en capitales dans Latin lookup 1" dx=5 dy=0 dh=10 dv=0
EndChar

StartChar: AE
Encoding: 198 198 158
Width: 974
Flags: W
HStem: 0 83<492 847> 187 82<205 413> 347 83<559 890> 646 83<440 503 601 963>
LayerCount: 2
Fore
SplineSet
979 729 m 1
 963 646 l 1
 601 646 l 1
 559 430 l 1
 906 430 l 1
 890 347 l 1
 543 347 l 1
 492 83 l 1
 863 83 l 1
 847 0 l 1
 377 0 l 1
 413 187 l 1
 155 187 l 1
 41 0 l 1
 -59 0 l 1
 387 729 l 1
 979 729 l 1
440 652 m 1
 205 269 l 1
 429 269 l 1
 503 652 l 1
 440 652 l 1
EndSplineSet
Validated: 1
Ligature2: "sous-table 'dpng' Dipthongs (Obsolete) dans Latin lookup 9" A e
Ligature2: "sous-table 'dpng' Dipthongs (Obsolete) dans Latin lookup 9" A E
Position2: "sous-table 'cpsp' Chasses pour composition en capitales dans Latin lookup 1" dx=5 dy=0 dh=10 dv=0
EndChar

StartChar: Ccedilla
Encoding: 199 199 159
Width: 698
Flags: W
HStem: -193 60<200.165 331.61> -13.5235 80.5235<258.557 333.52> 661 81<362.247 593.393>
VStem: 52.6898 104.742<165.442 409.664> 343.609 65.0659<-120.342 -18.9371>
LayerCount: 2
Fore
SplineSet
711 673 m 1
 691 569 l 1
 636 630 567 661 483 661 c 0
 316 661 205 556 167 364 c 0
 160.600546029 330.792022639 157.431862841 300.18661063 157.431862841 272.276895365 c 0
 157.431862841 138.819801911 229.884021976 67 368 67 c 0
 452 67 533 98 611 159 c 1
 591 56 l 1
 524.279839398 15.7968263037 456.09630607 -6.84587468723 383.320026202 -12.5539778354 c 1
 400.460001444 -40.0092096917 408.674542854 -64.6137333762 408.674542862 -87.4338876206 c 0
 408.674542862 -93.4050611938 408.112116631 -99.254064072 407 -105 c 0
 396 -162 351 -193 274 -193 c 0
 245 -193 217 -189 190 -181 c 1
 203 -117 l 1
 224 -128 245 -133 276 -133 c 0
 315 -133 337 -116 343 -87 c 0
 343.404141504 -84.3057233042 343.608657019 -81.4844118873 343.608657019 -78.5213971771 c 0
 343.608657019 -62.0644666136 337.299718185 -41.2362421974 323.844095836 -13.5234898793 c 1
 225.063895844 -9.1964002086 151.513001493 24.5809588235 104 87 c 0
 69.5756565278 133.128620253 52.6898373233 191.58160891 52.6898373233 261.706260908 c 0
 52.6898373233 293.434897782 56.1467111277 327.552963725 63 364 c 0
 86 481 136 574 212 641 c 0
 289 708 383 742 493 742 c 0
 581 742 652 720 711 673 c 1
EndSplineSet
Validated: 524289
Position2: "sous-table 'cpsp' Chasses pour composition en capitales dans Latin lookup 1" dx=5 dy=0 dh=10 dv=0
EndChar

StartChar: Egrave
Encoding: 200 200 160
Width: 632
Flags: W
HStem: 0 83<150 505> 347 83<217 548> 646 83<259 621>
LayerCount: 2
Fore
SplineSet
176 729 m 1
 637 729 l 1
 621 646 l 1
 259 646 l 1
 217 430 l 1
 564 430 l 1
 548 347 l 1
 201 347 l 1
 150 83 l 1
 521 83 l 1
 505 0 l 1
 35 0 l 1
 176 729 l 1
416 927 m 1
 487 798 l 1
 412 798 l 1
 325 927 l 1
 416 927 l 1
EndSplineSet
Validated: 1
Position2: "sous-table 'cpsp' Chasses pour composition en capitales dans Latin lookup 1" dx=5 dy=0 dh=10 dv=0
EndChar

StartChar: Eacute
Encoding: 201 201 161
Width: 632
Flags: W
HStem: 0 83<150 505> 347 83<217 548> 646 83<259 621>
LayerCount: 2
Fore
SplineSet
176 729 m 1
 637 729 l 1
 621 646 l 1
 259 646 l 1
 217 430 l 1
 564 430 l 1
 548 347 l 1
 201 347 l 1
 150 83 l 1
 521 83 l 1
 505 0 l 1
 35 0 l 1
 176 729 l 1
471 927 m 1
 561 927 l 1
 425 798 l 1
 350 798 l 1
 471 927 l 1
EndSplineSet
Validated: 1
Position2: "sous-table 'cpsp' Chasses pour composition en capitales dans Latin lookup 1" dx=5 dy=0 dh=10 dv=0
EndChar

StartChar: Ecircumflex
Encoding: 202 202 162
Width: 632
Flags: W
HStem: 0 83<150 505> 347 83<217 548> 646 83<259 621>
LayerCount: 2
Fore
SplineSet
176 729 m 1
 637 729 l 1
 621 646 l 1
 259 646 l 1
 217 430 l 1
 564 430 l 1
 548 347 l 1
 201 347 l 1
 150 83 l 1
 521 83 l 1
 505 0 l 1
 35 0 l 1
 176 729 l 1
398 928 m 1
 490 928 l 1
 568 798 l 1
 500 798 l 1
 436 885 l 1
 338 798 l 1
 270 798 l 1
 398 928 l 1
EndSplineSet
Validated: 1
Position2: "sous-table 'cpsp' Chasses pour composition en capitales dans Latin lookup 1" dx=5 dy=0 dh=10 dv=0
EndChar

StartChar: Edieresis
Encoding: 203 203 163
Width: 632
Flags: W
HStem: 0 83<150 505> 347 83<217 548> 646 83<259 621> 814 99<296 376 487 567>
LayerCount: 2
Fore
SplineSet
176 729 m 1
 637 729 l 1
 621 646 l 1
 259 646 l 1
 217 430 l 1
 564 430 l 1
 548 347 l 1
 201 347 l 1
 150 83 l 1
 521 83 l 1
 505 0 l 1
 35 0 l 1
 176 729 l 1
487 913 m 1
 586 913 l 1
 567 814 l 1
 468 814 l 1
 487 913 l 1
296 913 m 1
 395 913 l 1
 376 814 l 1
 277 814 l 1
 296 913 l 1
EndSplineSet
Validated: 1
Position2: "sous-table 'cpsp' Chasses pour composition en capitales dans Latin lookup 1" dx=5 dy=0 dh=10 dv=0
EndChar

StartChar: Igrave
Encoding: 204 204 164
Width: 295
Flags: W
HStem: 0 21G<35 137.868> 709 20G<172.132 275>
VStem: 35 273
LayerCount: 2
Fore
SplineSet
176 729 m 1
 275 729 l 1
 134 0 l 1
 35 0 l 1
 176 729 l 1
237 927 m 1
 308 798 l 1
 233 798 l 1
 146 927 l 1
 237 927 l 1
EndSplineSet
Validated: 1
Position2: "sous-table 'cpsp' Chasses pour composition en capitales dans Latin lookup 1" dx=5 dy=0 dh=10 dv=0
EndChar

StartChar: Iacute
Encoding: 205 205 165
Width: 295
Flags: W
HStem: 0 21G<35 137.868> 709 20G<172.132 275>
LayerCount: 2
Fore
SplineSet
176 729 m 1
 275 729 l 1
 134 0 l 1
 35 0 l 1
 176 729 l 1
292 927 m 1
 382 927 l 1
 246 798 l 1
 171 798 l 1
 292 927 l 1
EndSplineSet
Validated: 1
Position2: "sous-table 'cpsp' Chasses pour composition en capitales dans Latin lookup 1" dx=5 dy=0 dh=10 dv=0
EndChar

StartChar: Icircumflex
Encoding: 206 206 166
Width: 295
Flags: W
HStem: 0 21G<35 137.868> 709 20G<172.132 275>
LayerCount: 2
Fore
SplineSet
176 729 m 1
 275 729 l 1
 134 0 l 1
 35 0 l 1
 176 729 l 1
219 928 m 1
 311 928 l 1
 389 798 l 1
 321 798 l 1
 257 885 l 1
 159 798 l 1
 91 798 l 1
 219 928 l 1
EndSplineSet
Validated: 1
Position2: "sous-table 'cpsp' Chasses pour composition en capitales dans Latin lookup 1" dx=5 dy=0 dh=10 dv=0
EndChar

StartChar: Idieresis
Encoding: 207 207 167
Width: 295
Flags: W
HStem: 0 21G<35 137.868> 709 20G<172.132 275> 814 99<117 197 308 388>
LayerCount: 2
Fore
SplineSet
176 729 m 1
 275 729 l 1
 134 0 l 1
 35 0 l 1
 176 729 l 1
308 913 m 1
 407 913 l 1
 388 814 l 1
 289 814 l 1
 308 913 l 1
117 913 m 1
 216 913 l 1
 197 814 l 1
 98 814 l 1
 117 913 l 1
EndSplineSet
Validated: 1
Position2: "sous-table 'cpsp' Chasses pour composition en capitales dans Latin lookup 1" dx=5 dy=0 dh=10 dv=0
EndChar

StartChar: Eth
Encoding: 208 208 168
Width: 775
Flags: W
HStem: 0 81<154 419.502> 342 70<22 106 219 369> 648 81<264 522.529>
VStem: 629.024 105.574<320.284 555.13>
LayerCount: 2
Fore
SplineSet
181 729 m 1
 384 729 l 2
 622.521982213 729 734.598297633 648.728312654 734.598297633 473.216863615 c 0
 734.598297633 440.488637563 730.701140889 404.448701288 723 365 c 0
 675 114 524 0 243 0 c 2
 40 0 l 1
 106 342 l 1
 8 342 l 1
 22 412 l 1
 120 412 l 1
 181 729 l 1
264 648 m 1
 219 412 l 1
 383 412 l 1
 369 342 l 1
 205 342 l 1
 154 81 l 1
 273 81 l 2
 474 81 581 169 619 365 c 0
 625.659642419 398.468972156 629.024317975 428.759613446 629.024317975 455.981466101 c 0
 629.024317975 588.175417898 549.677227534 648 383 648 c 2
 264 648 l 1
EndSplineSet
Validated: 524289
Position2: "sous-table 'cpsp' Chasses pour composition en capitales dans Latin lookup 1" dx=5 dy=0 dh=10 dv=0
EndChar

StartChar: Ntilde
Encoding: 209 209 169
Width: 748
Flags: W
HStem: 0 21G<35 134.869 447.279 590.868> 709 20G<172.132 315.721 628.131 728> 814 59<496.092 579.688> 863 58<378.591 461.4>
VStem: 308 61<814 855.516> 589 62<881.844 918>
LayerCount: 2
Fore
SplineSet
176 729 m 1xcc
 309 729 l 1
 514 119 l 1
 632 729 l 1
 728 729 l 1
 587 0 l 1
 454 0 l 1
 249 610 l 1
 131 0 l 1
 35 0 l 1
 176 729 l 1xcc
471 835 m 1
 446 851 l 2
 432 860 423 863 415 863 c 0xdc
 391 863 375 846 369 817 c 1
 369 814 l 1
 308 814 l 1xec
 320 879 365 921 421 921 c 0xdc
 445 921 460 917 487 900 c 1
 513 885 l 2
 526 877 536 873 545 873 c 0xec
 566 873 584 891 589 918 c 1
 590 921 l 1
 651 921 l 1xdc
 637 856 593 814 538 814 c 0xec
 515 814 501 818 471 835 c 1
EndSplineSet
Validated: 1
Position2: "sous-table 'cpsp' Chasses pour composition en capitales dans Latin lookup 1" dx=5 dy=0 dh=10 dv=0
EndChar

StartChar: Ograve
Encoding: 210 210 170
Width: 787
Flags: W
HStem: -14 80<250.262 445.742> 662 80<356.409 552.051>
VStem: 52.6286 104.651<163.432 410.448> 643.767 105.079<317.55 565.91>
LayerCount: 2
Fore
SplineSet
459 662 m 0
 388 662 326 635 273 582 c 0
 220 529 185 456 167 364 c 0
 160.52 330.88 157.28 300.2224 157.28 272.073856 c 0
 157.28 222.032 167.52 179.92 188 146 c 0
 221 93 272 66 343 66 c 0
 414 66 477 93 529 146 c 0
 581 199 616 272 634 364 c 0
 640.527340189 397.361960965 643.767167265 428.225411965 643.767167265 456.542666962 c 0
 643.767167265 506.313971041 633.758469675 548.219390556 614 582 c 0
 582 635 530 662 459 662 c 0
475 742 m 0
 577 742 652 708 700 639 c 0
 732.137857052 592.502674903 748.846206977 534.783890077 748.846206977 466.16335622 c 0
 748.846206977 434.429809654 745.27296357 400.364817851 738 364 c 0
 716 249 667 157 593 88 c 1
 518 20 430 -14 328 -14 c 0
 225 -14 149 20 102 88 c 0
 69.0857142857 135.314285714 52.6285714286 193.443265306 52.6285714286 262.386938776 c 0
 52.6285714286 293.986122449 56.0857142857 327.857142857 63 364 c 0
 86 479 134 571 209 639 c 1
 283 708 372 742 475 742 c 0
483 927 m 1
 554 798 l 1
 479 798 l 1
 392 927 l 1
 483 927 l 1
EndSplineSet
Validated: 524289
Position2: "sous-table 'cpsp' Chasses pour composition en capitales dans Latin lookup 1" dx=5 dy=0 dh=10 dv=0
EndChar

StartChar: Oacute
Encoding: 211 211 171
Width: 787
Flags: W
HStem: -14 80<250.262 445.742> 662 80<356.409 552.051>
VStem: 52.6286 104.651<163.432 410.448> 643.767 105.079<317.55 565.91>
LayerCount: 2
Fore
SplineSet
459 662 m 0
 388 662 326 635 273 582 c 0
 220 529 185 456 167 364 c 0
 160.52 330.88 157.28 300.2224 157.28 272.073856 c 0
 157.28 222.032 167.52 179.92 188 146 c 0
 221 93 272 66 343 66 c 0
 414 66 477 93 529 146 c 0
 581 199 616 272 634 364 c 0
 640.527340189 397.361960965 643.767167265 428.225411965 643.767167265 456.542666962 c 0
 643.767167265 506.313971041 633.758469675 548.219390556 614 582 c 0
 582 635 530 662 459 662 c 0
475 742 m 0
 577 742 652 708 700 639 c 0
 732.137857052 592.502674903 748.846206977 534.783890077 748.846206977 466.16335622 c 0
 748.846206977 434.429809654 745.27296357 400.364817851 738 364 c 0
 716 249 667 157 593 88 c 1
 518 20 430 -14 328 -14 c 0
 225 -14 149 20 102 88 c 0
 69.0857142857 135.314285714 52.6285714286 193.443265306 52.6285714286 262.386938776 c 0
 52.6285714286 293.986122449 56.0857142857 327.857142857 63 364 c 0
 86 479 134 571 209 639 c 1
 283 708 372 742 475 742 c 0
538 927 m 1
 628 927 l 1
 492 798 l 1
 417 798 l 1
 538 927 l 1
EndSplineSet
Validated: 524289
Position2: "sous-table 'cpsp' Chasses pour composition en capitales dans Latin lookup 1" dx=5 dy=0 dh=10 dv=0
EndChar

StartChar: Ocircumflex
Encoding: 212 212 172
Width: 787
Flags: W
HStem: -14 80<250.262 445.742> 662 80<356.409 552.051>
VStem: 52.6286 104.651<163.432 410.448> 643.767 105.079<317.55 565.91>
LayerCount: 2
Fore
SplineSet
459 662 m 0
 388 662 326 635 273 582 c 0
 220 529 185 456 167 364 c 0
 160.52 330.88 157.28 300.2224 157.28 272.073856 c 0
 157.28 222.032 167.52 179.92 188 146 c 0
 221 93 272 66 343 66 c 0
 414 66 477 93 529 146 c 0
 581 199 616 272 634 364 c 0
 640.527340189 397.361960965 643.767167265 428.225411965 643.767167265 456.542666962 c 0
 643.767167265 506.313971041 633.758469675 548.219390556 614 582 c 0
 582 635 530 662 459 662 c 0
475 742 m 0
 577 742 652 708 700 639 c 0
 732.137857052 592.502674903 748.846206977 534.783890077 748.846206977 466.16335622 c 0
 748.846206977 434.429809654 745.27296357 400.364817851 738 364 c 0
 716 249 667 157 593 88 c 1
 518 20 430 -14 328 -14 c 0
 225 -14 149 20 102 88 c 0
 69.0857142857 135.314285714 52.6285714286 193.443265306 52.6285714286 262.386938776 c 0
 52.6285714286 293.986122449 56.0857142857 327.857142857 63 364 c 0
 86 479 134 571 209 639 c 1
 283 708 372 742 475 742 c 0
465 928 m 1
 557 928 l 1
 635 798 l 1
 567 798 l 1
 503 885 l 1
 405 798 l 1
 337 798 l 1
 465 928 l 1
EndSplineSet
Validated: 524289
Position2: "sous-table 'cpsp' Chasses pour composition en capitales dans Latin lookup 1" dx=5 dy=0 dh=10 dv=0
EndChar

StartChar: Otilde
Encoding: 213 213 173
Width: 787
Flags: W
HStem: -14 80<250.262 445.742> 662 80<356.409 552.051> 814 59<516.092 599.688> 863 58<398.591 481.4>
VStem: 52.6286 104.651<163.432 410.448> 328 61<814 855.516> 609 62<881.844 918> 643.767 105.079<317.55 565.91>
LayerCount: 2
Fore
SplineSet
459 662 m 0xcd
 388 662 326 635 273 582 c 0
 220 529 185 456 167 364 c 0
 160.52 330.88 157.28 300.2224 157.28 272.073856 c 0
 157.28 222.032 167.52 179.92 188 146 c 0
 221 93 272 66 343 66 c 0
 414 66 477 93 529 146 c 0
 581 199 616 272 634 364 c 0
 640.527340189 397.361960965 643.767167265 428.225411965 643.767167265 456.542666962 c 0
 643.767167265 506.313971041 633.758469675 548.219390556 614 582 c 0
 582 635 530 662 459 662 c 0xcd
475 742 m 0
 577 742 652 708 700 639 c 0
 732.137857052 592.502674903 748.846206977 534.783890077 748.846206977 466.16335622 c 0
 748.846206977 434.429809654 745.27296357 400.364817851 738 364 c 0
 716 249 667 157 593 88 c 1
 518 20 430 -14 328 -14 c 0
 225 -14 149 20 102 88 c 0
 69.0857142857 135.314285714 52.6285714286 193.443265306 52.6285714286 262.386938776 c 0
 52.6285714286 293.986122449 56.0857142857 327.857142857 63 364 c 0
 86 479 134 571 209 639 c 1
 283 708 372 742 475 742 c 0
491 835 m 1
 466 851 l 2
 452 860 443 863 435 863 c 0xde
 411 863 395 846 389 817 c 1
 389 814 l 1
 328 814 l 1xee
 340 879 385 921 441 921 c 0xde
 465 921 480 917 507 900 c 1
 533 885 l 2
 546 877 556 873 565 873 c 0xee
 586 873 604 891 609 918 c 1
 610 921 l 1
 671 921 l 1xde
 657 856 613 814 558 814 c 0xee
 535 814 521 818 491 835 c 1
EndSplineSet
Validated: 524289
Position2: "sous-table 'cpsp' Chasses pour composition en capitales dans Latin lookup 1" dx=5 dy=0 dh=10 dv=0
EndChar

StartChar: Odieresis
Encoding: 214 214 174
Width: 787
Flags: W
HStem: -14 80<250.262 445.742> 662 80<356.409 552.051> 814 99<363 443 554 634>
VStem: 52.6286 104.651<163.432 410.448> 643.767 105.079<317.55 565.91>
LayerCount: 2
Fore
SplineSet
459 662 m 0
 388 662 326 635 273 582 c 0
 220 529 185 456 167 364 c 0
 160.52 330.88 157.28 300.2224 157.28 272.073856 c 0
 157.28 222.032 167.52 179.92 188 146 c 0
 221 93 272 66 343 66 c 0
 414 66 477 93 529 146 c 0
 581 199 616 272 634 364 c 0
 640.527340189 397.361960965 643.767167265 428.225411965 643.767167265 456.542666962 c 0
 643.767167265 506.313971041 633.758469675 548.219390556 614 582 c 0
 582 635 530 662 459 662 c 0
475 742 m 0
 577 742 652 708 700 639 c 0
 732.137857052 592.502674903 748.846206977 534.783890077 748.846206977 466.16335622 c 0
 748.846206977 434.429809654 745.27296357 400.364817851 738 364 c 0
 716 249 667 157 593 88 c 1
 518 20 430 -14 328 -14 c 0
 225 -14 149 20 102 88 c 0
 69.0857142857 135.314285714 52.6285714286 193.443265306 52.6285714286 262.386938776 c 0
 52.6285714286 293.986122449 56.0857142857 327.857142857 63 364 c 0
 86 479 134 571 209 639 c 1
 283 708 372 742 475 742 c 0
554 913 m 1
 653 913 l 1
 634 814 l 1
 535 814 l 1
 554 913 l 1
363 913 m 1
 462 913 l 1
 443 814 l 1
 344 814 l 1
 363 913 l 1
EndSplineSet
Validated: 524289
Position2: "sous-table 'cpsp' Chasses pour composition en capitales dans Latin lookup 1" dx=5 dy=0 dh=10 dv=0
EndChar

StartChar: multiply
Encoding: 215 215 175
Width: 838
Flags: W
LayerCount: 2
Fore
SplineSet
742 537 m 1
 475 313 l 1
 655 90 l 1
 586 31 l 1
 405 255 l 1
 138 31 l 1
 91 90 l 1
 357 313 l 1
 178 537 l 1
 247 596 l 1
 428 372 l 1
 695 596 l 1
 742 537 l 1
EndSplineSet
Validated: 1
EndChar

StartChar: Oslash
Encoding: 216 216 176
Width: 787
Flags: W
HStem: -14 80<251.795 445.742> 662 80<356.409 549.802> 741 20G<750.14 790.535>
VStem: 52.6552 104.545<185.697 410.448> 643.8 104.545<315.555 541.643>
LayerCount: 2
Fore
SplineSet
631 543 m 1x98
 201 130 l 1
 233 89 282 66 343 66 c 0
 414 66 477 93 529 146 c 0
 581 199 616 272 634 364 c 0
 640.533333333 397.6 643.8 428.586666667 643.8 456.85837037 c 0
 643.8 489.168888889 639.533333333 517.933333333 631 543 c 1x98
602 598 m 1
 570 639 520 662 459 662 c 0xd8
 388 662 326 635 273 582 c 0
 220 529 185 456 167 364 c 0
 160.466666667 329.933333333 157.2 298.044444444 157.2 269.248 c 0
 157.2 236.337777778 161.466666667 207.466666667 170 184 c 1
 602 598 l 1
90 107 m 1
 65.1034482759 150.896551724 52.6551724138 202.948870392 52.6551724138 262.875722662 c 0
 52.6551724138 294.416171225 56.1034482759 328.137931034 63 364 c 0
 86 479 134 571 209 639 c 1
 283 708 372 742 475 742 c 0xd8
 560 742 627 717 674 668 c 1
 771 761 l 1xb8
 813 718 l 1
 711 621 l 1
 735.896551724 577.103448276 748.344827586 524.621878716 748.344827586 464.680224691 c 0
 748.344827586 433.131985731 744.896551724 399.517241379 738 364 c 0
 716 249 667 157 593 88 c 1
 518 20 430 -14 328 -14 c 0
 245 -14 177 10 127 59 c 1
 30 -34 l 1
 -12 9 l 1
 90 107 l 1
EndSplineSet
Validated: 524289
Position2: "sous-table 'cpsp' Chasses pour composition en capitales dans Latin lookup 1" dx=5 dy=0 dh=10 dv=0
EndChar

StartChar: Ugrave
Encoding: 217 217 177
Width: 732
Flags: W
HStem: -14 80<220.217 419.473> 709 20G<161.132 264 620.117 723>
VStem: 67.8917 100.627<113.956 336.219>
LayerCount: 2
Fore
SplineSet
165 729 m 1
 264 729 l 1
 178 286 l 2
 171.73052554 253.39873281 168.518208525 224.815443976 168.518208525 199.994576557 c 0
 168.518208525 106.045357684 214.540775212 66 315 66 c 0
 442 66 508 130 538 286 c 2
 624 729 l 1
 723 729 l 1
 635 274 l 2
 598 83 484 -14 300 -14 c 0
 146.233801795 -14 67.8916560692 53.7419730595 67.8916560692 187.47506323 c 0
 67.8916560692 213.769917293 70.9203768129 242.615999223 77 274 c 2
 165 729 l 1
455 927 m 1
 526 798 l 1
 451 798 l 1
 364 927 l 1
 455 927 l 1
EndSplineSet
Validated: 524289
Position2: "sous-table 'cpsp' Chasses pour composition en capitales dans Latin lookup 1" dx=5 dy=0 dh=10 dv=0
EndChar

StartChar: Uacute
Encoding: 218 218 178
Width: 732
Flags: W
HStem: -14 80<220.217 419.473> 709 20G<161.132 264 620.117 723>
VStem: 67.8917 100.627<113.956 336.219>
LayerCount: 2
Fore
SplineSet
165 729 m 1
 264 729 l 1
 178 286 l 2
 171.73052554 253.39873281 168.518208525 224.815443976 168.518208525 199.994576557 c 0
 168.518208525 106.045357684 214.540775212 66 315 66 c 0
 442 66 508 130 538 286 c 2
 624 729 l 1
 723 729 l 1
 635 274 l 2
 598 83 484 -14 300 -14 c 0
 146.233801795 -14 67.8916560692 53.7419730595 67.8916560692 187.47506323 c 0
 67.8916560692 213.769917293 70.9203768129 242.615999223 77 274 c 2
 165 729 l 1
510 927 m 1
 600 927 l 1
 464 798 l 1
 389 798 l 1
 510 927 l 1
EndSplineSet
Validated: 524289
Position2: "sous-table 'cpsp' Chasses pour composition en capitales dans Latin lookup 1" dx=5 dy=0 dh=10 dv=0
EndChar

StartChar: Ucircumflex
Encoding: 219 219 179
Width: 732
Flags: W
HStem: -14 80<220.217 419.473> 709 20G<161.132 264 620.117 723>
VStem: 67.8917 100.627<113.956 336.219>
LayerCount: 2
Fore
SplineSet
165 729 m 1
 264 729 l 1
 178 286 l 2
 171.73052554 253.39873281 168.518208525 224.815443976 168.518208525 199.994576557 c 0
 168.518208525 106.045357684 214.540775212 66 315 66 c 0
 442 66 508 130 538 286 c 2
 624 729 l 1
 723 729 l 1
 635 274 l 2
 598 83 484 -14 300 -14 c 0
 146.233801795 -14 67.8916560692 53.7419730595 67.8916560692 187.47506323 c 0
 67.8916560692 213.769917293 70.9203768129 242.615999223 77 274 c 2
 165 729 l 1
437 928 m 1
 529 928 l 1
 607 798 l 1
 539 798 l 1
 475 885 l 1
 377 798 l 1
 309 798 l 1
 437 928 l 1
EndSplineSet
Validated: 524289
Position2: "sous-table 'cpsp' Chasses pour composition en capitales dans Latin lookup 1" dx=5 dy=0 dh=10 dv=0
EndChar

StartChar: Udieresis
Encoding: 220 220 180
Width: 732
Flags: W
HStem: -14 80<220.217 419.473> 709 20G<161.132 264 620.117 723> 814 99<335 415 526 606>
VStem: 67.8917 100.627<113.956 336.219>
LayerCount: 2
Fore
SplineSet
165 729 m 1
 264 729 l 1
 178 286 l 2
 171.73052554 253.39873281 168.518208525 224.815443976 168.518208525 199.994576557 c 0
 168.518208525 106.045357684 214.540775212 66 315 66 c 0
 442 66 508 130 538 286 c 2
 624 729 l 1
 723 729 l 1
 635 274 l 2
 598 83 484 -14 300 -14 c 0
 146.233801795 -14 67.8916560692 53.7419730595 67.8916560692 187.47506323 c 0
 67.8916560692 213.769917293 70.9203768129 242.615999223 77 274 c 2
 165 729 l 1
526 913 m 1
 625 913 l 1
 606 814 l 1
 507 814 l 1
 526 913 l 1
335 913 m 1
 434 913 l 1
 415 814 l 1
 316 814 l 1
 335 913 l 1
EndSplineSet
Validated: 524289
Position2: "sous-table 'cpsp' Chasses pour composition en capitales dans Latin lookup 1" dx=5 dy=0 dh=10 dv=0
EndChar

StartChar: Yacute
Encoding: 221 221 181
Width: 611
Flags: W
HStem: 0 21G<193 295.862> 709 20G<76 191.6 567.733 691>
LayerCount: 2
Fore
SplineSet
76 729 m 1
 182 729 l 1
 326 429 l 1
 585 729 l 1
 691 729 l 1
 359 347 l 1
 292 0 l 1
 193 0 l 1
 260 347 l 1
 76 729 l 1
450 927 m 1
 540 927 l 1
 404 798 l 1
 329 798 l 1
 450 927 l 1
EndSplineSet
Validated: 1
Position2: "sous-table 'cpsp' Chasses pour composition en capitales dans Latin lookup 1" dx=5 dy=0 dh=10 dv=0
EndChar

StartChar: Thorn
Encoding: 222 222 182
Width: 605
Flags: W
HStem: 0 21G<35 137.879> 165 81<181 393.972> 519 81<250 440.079> 709 20G<172.132 275>
VStem: 479.644 106.315<332.289 481.344>
LayerCount: 2
Fore
SplineSet
176 729 m 1
 275 729 l 1
 250 600 l 1
 374 600 l 2
 513.833087287 600 585.959339856 545.540154684 585.959339856 439.777191088 c 0
 585.959339856 422.254862192 583.979592368 403.324346736 580 383 c 0
 552 239 453 165 290 165 c 2
 166 165 l 1
 134 0 l 1
 35 0 l 1
 176 729 l 1
234 519 m 1
 181 246 l 1
 305 246 l 2
 397 246 459 295 476 383 c 0
 478.440447864 395.489350836 479.644400411 407.195587971 479.644400411 418.086168634 c 0
 479.644400411 483.058659651 436.79287038 519 358 519 c 2
 234 519 l 1
EndSplineSet
Validated: 524289
Position2: "sous-table 'cpsp' Chasses pour composition en capitales dans Latin lookup 1" dx=5 dy=0 dh=10 dv=0
EndChar

StartChar: germandbls
Encoding: 223 223 183
Width: 630
Flags: W
HStem: -14 75<211.46 413.49> 0 21G<28 122.87> 685 75<299.226 456.721>
VStem: 294.552 91.9836<367.851 470.473> 460.039 94.7269<106.283 223.098> 485.073 85.7176<575.984 657.495>
LayerCount: 2
Fore
SplineSet
135 555 m 2x74
 161 686 257 760 398 760 c 0
 512.992314686 760 570.790717448 704.235935874 570.790717448 599.357206841 c 0x74
 570.790717448 580.197149565 568.861706859 559.397899784 565 537 c 1
 465 532 400 493 388 430 c 0
 387.034523859 425.011706602 386.535119807 420.204663462 386.535119807 415.533039131 c 0
 386.535119807 391.172619293 400.114682229 370.494444673 432 347 c 2
 456 329 l 2
 504 294 533 265 544 242 c 0
 551.004901725 227.353387302 554.765595306 211.084670532 554.765595306 192.677364252 c 0
 554.765595306 182.179144514 553.542335266 170.985294824 551 159 c 0
 530 47 442 -14 305 -14 c 0
 264 -14 220 -6 176 10 c 1
 192 90 l 1
 240 70 282 61 325 61 c 0
 401 61 446 92 458 152 c 0
 459.372583002 159.206060761 460.038671968 165.941125497 460.038671968 172.205194209 c 0xb8
 460.038671968 184.195959493 457.597979746 194.460894757 453 203 c 1
 447 217 429 234 400 254 c 2
 360 281 l 1
 315.483996791 312.565893185 294.551558376 344.786885392 294.551558376 387.73725686 c 0
 294.551558376 397.852530564 295.712582518 408.562912592 298 420 c 0
 314 503 382 561 484 580 c 1
 484.717547033 586.009456401 485.073073464 591.785610636 485.073073464 597.321968535 c 0
 485.073073464 653.510990527 448.452383325 685 382 685 c 0
 298 685 243 638 226 553 c 2
 119 0 l 1
 28 0 l 1
 135 555 l 2x74
EndSplineSet
Validated: 524289
EndChar

StartChar: agrave
Encoding: 224 224 184
Width: 613
Flags: W
HStem: -14 75<142.438 289.761> 0 21G<369 462.846> 275 70<188.479 422> 484 76<188.551 398.875>
VStem: 23.1017 93.3293<86.5938 213.521> 440.116 87.4705<345.574 445.277>
LayerCount: 2
Fore
SplineSet
333 275 m 2xbc
 260 275 208 267 177 250 c 0
 146 233 126 205 119 165 c 1
 117.275693465 156.51110629 116.431041672 148.444446855 116.431041672 140.837358175 c 0
 116.431041672 91.0926066553 152.550005424 61 215 61 c 0
 315 61 395 138 418 255 c 2
 422 275 l 1
 333 275 l 2xbc
519 312 m 2
 459 0 l 1
 369 0 l 1x7c
 385 83 l 1
 331 16 266 -14 177 -14 c 0
 79.653944252 -14 23.1017139794 37.3700024505 23.1017139794 119.755401155 c 0
 23.1017139794 132.1572497 24.3832242407 145.261927264 27 159 c 0
 51 282 147 345 310 345 c 2
 436 345 l 1
 437 354 l 1
 439.084221684 364.811899984 440.116385705 375.012927776 440.116385705 384.578768926 c 0
 440.116385705 448.447274808 394.103878333 484 308 484 c 0
 245 484 182 468 122 439 c 1
 138 522 l 1
 208 547 272 560 331 560 c 0
 462.434515454 560 527.586918266 504.65101934 527.586918266 391.128783443 c 0
 527.586918266 367.320003623 524.721138302 340.952427164 519 312 c 2
311 800 m 1
 413 617 l 1
 338 617 l 1
 215 800 l 1
 311 800 l 1
EndSplineSet
Validated: 524289
EndChar

StartChar: aacute
Encoding: 225 225 185
Width: 613
Flags: W
HStem: -14 75<142.438 289.761> 0 21G<369 462.846> 275 70<188.479 422> 484 76<188.551 398.875>
VStem: 23.1017 93.3293<86.5938 213.521> 440.116 87.4705<345.574 445.277>
LayerCount: 2
Fore
SplineSet
333 275 m 2xbc
 260 275 208 267 177 250 c 0
 146 233 126 205 119 165 c 1
 117.275693465 156.51110629 116.431041672 148.444446855 116.431041672 140.837358175 c 0
 116.431041672 91.0926066553 152.550005424 61 215 61 c 0
 315 61 395 138 418 255 c 2
 422 275 l 1
 333 275 l 2xbc
519 312 m 2
 459 0 l 1
 369 0 l 1x7c
 385 83 l 1
 331 16 266 -14 177 -14 c 0
 79.653944252 -14 23.1017139794 37.3700024505 23.1017139794 119.755401155 c 0
 23.1017139794 132.1572497 24.3832242407 145.261927264 27 159 c 0
 51 282 147 345 310 345 c 2
 436 345 l 1
 437 354 l 1
 439.084221684 364.811899984 440.116385705 375.012927776 440.116385705 384.578768926 c 0
 440.116385705 448.447274808 394.103878333 484 308 484 c 0
 245 484 182 468 122 439 c 1
 138 522 l 1
 208 547 272 560 331 560 c 0
 462.434515454 560 527.586918266 504.65101934 527.586918266 391.128783443 c 0
 527.586918266 367.320003623 524.721138302 340.952427164 519 312 c 2
450 800 m 1
 547 800 l 1
 352 616 l 1
 277 616 l 1
 450 800 l 1
EndSplineSet
Validated: 524289
EndChar

StartChar: acircumflex
Encoding: 226 226 186
Width: 613
Flags: W
HStem: -14 75<142.438 289.761> 0 21G<369 462.846> 275 70<188.479 422> 484 76<188.551 398.875>
VStem: 23.1017 93.3293<86.5938 213.521> 440.116 87.4705<345.574 445.277>
LayerCount: 2
Fore
SplineSet
333 275 m 2xbc
 260 275 208 267 177 250 c 0
 146 233 126 205 119 165 c 1
 117.275693465 156.51110629 116.431041672 148.444446855 116.431041672 140.837358175 c 0
 116.431041672 91.0926066553 152.550005424 61 215 61 c 0
 315 61 395 138 418 255 c 2
 422 275 l 1
 333 275 l 2xbc
519 312 m 2
 459 0 l 1
 369 0 l 1x7c
 385 83 l 1
 331 16 266 -14 177 -14 c 0
 79.653944252 -14 23.1017139794 37.3700024505 23.1017139794 119.755401155 c 0
 23.1017139794 132.1572497 24.3832242407 145.261927264 27 159 c 0
 51 282 147 345 310 345 c 2
 436 345 l 1
 437 354 l 1
 439.084221684 364.811899984 440.116385705 375.012927776 440.116385705 384.578768926 c 0
 440.116385705 448.447274808 394.103878333 484 308 484 c 0
 245 484 182 468 122 439 c 1
 138 522 l 1
 208 547 272 560 331 560 c 0
 462.434515454 560 527.586918266 504.65101934 527.586918266 391.128783443 c 0
 527.586918266 367.320003623 524.721138302 340.952427164 519 312 c 2
346 800 m 1
 418 800 l 1
 502 616 l 1
 434 616 l 1
 370 736 l 1
 258 616 l 1
 190 616 l 1
 346 800 l 1
EndSplineSet
Validated: 524289
EndChar

StartChar: atilde
Encoding: 227 227 187
Width: 613
Flags: W
HStem: -14 75<142.438 289.761> 0 21G<369 462.846> 275 70<188.479 422> 484 76<188.551 398.875> 639 62<393.981 458.735> 715 62<269.777 334.465>
VStem: 23.1017 93.3293<86.5938 213.521> 190 61<639 697.688> 440.116 87.4705<345.574 445.277> 478 61<718.312 777>
LayerCount: 2
Fore
SplineSet
333 275 m 2xbf
 260 275 208 267 177 250 c 0
 146 233 126 205 119 165 c 1
 117.275693465 156.51110629 116.431041672 148.444446855 116.431041672 140.837358175 c 0
 116.431041672 91.0926066553 152.550005424 61 215 61 c 0
 315 61 395 138 418 255 c 2
 422 275 l 1
 333 275 l 2xbf
519 312 m 2
 459 0 l 1
 369 0 l 1x7f80
 385 83 l 1
 331 16 266 -14 177 -14 c 0
 79.653944252 -14 23.1017139794 37.3700024505 23.1017139794 119.755401155 c 0
 23.1017139794 132.1572497 24.3832242407 145.261927264 27 159 c 0
 51 282 147 345 310 345 c 2
 436 345 l 1
 437 354 l 1
 439.084221684 364.811899984 440.116385705 375.012927776 440.116385705 384.578768926 c 0
 440.116385705 448.447274808 394.103878333 484 308 484 c 0
 245 484 182 468 122 439 c 1
 138 522 l 1
 208 547 272 560 331 560 c 0
 462.434515454 560 527.586918266 504.65101934 527.586918266 391.128783443 c 0xbf80
 527.586918266 367.320003623 524.721138302 340.952427164 519 312 c 2
355 669 m 2
 332 696 l 1
 319 709 310 715 302 715 c 0
 277 715 262 692 251 639 c 1
 190 639 l 1
 208 727 253 777 312 777 c 0
 337 777 354 768 374 747 c 1
 396 720 l 1
 409 707 418 701 426 701 c 0
 451 701 466 724 478 777 c 1
 539 777 l 1x3f40
 520 689 476 639 417 639 c 0
 392 639 374 648 355 669 c 2
EndSplineSet
Validated: 524289
EndChar

StartChar: adieresis
Encoding: 228 228 188
Width: 613
Flags: W
HStem: -14 75<142.438 289.761> 0 21G<369 462.846> 275 70<188.479 422> 484 76<188.551 398.875> 659 99<229 309 420 500>
VStem: 23.1017 93.3293<86.5938 213.521> 440.116 87.4705<345.574 445.277>
LayerCount: 2
Fore
SplineSet
333 275 m 2xbe
 260 275 208 267 177 250 c 0
 146 233 126 205 119 165 c 1
 117.275693465 156.51110629 116.431041672 148.444446855 116.431041672 140.837358175 c 0
 116.431041672 91.0926066553 152.550005424 61 215 61 c 0
 315 61 395 138 418 255 c 2
 422 275 l 1
 333 275 l 2xbe
519 312 m 2
 459 0 l 1
 369 0 l 1x7e
 385 83 l 1
 331 16 266 -14 177 -14 c 0
 79.653944252 -14 23.1017139794 37.3700024505 23.1017139794 119.755401155 c 0
 23.1017139794 132.1572497 24.3832242407 145.261927264 27 159 c 0
 51 282 147 345 310 345 c 2
 436 345 l 1
 437 354 l 1
 439.084221684 364.811899984 440.116385705 375.012927776 440.116385705 384.578768926 c 0
 440.116385705 448.447274808 394.103878333 484 308 484 c 0
 245 484 182 468 122 439 c 1
 138 522 l 1
 208 547 272 560 331 560 c 0
 462.434515454 560 527.586918266 504.65101934 527.586918266 391.128783443 c 0
 527.586918266 367.320003623 524.721138302 340.952427164 519 312 c 2
420 758 m 1
 519 758 l 1
 500 659 l 1
 401 659 l 1
 420 758 l 1
229 758 m 1
 328 758 l 1
 309 659 l 1
 210 659 l 1
 229 758 l 1
EndSplineSet
Validated: 524289
EndChar

StartChar: aring
Encoding: 229 229 189
Width: 613
Flags: W
HStem: -14 75<142.438 289.761> 0 21G<369 462.846> 275 70<188.479 422> 484 76<188.551 398.875> 610 60<307.852 413.248> 818 60<328.204 433.787>
VStem: 23.1017 93.3293<86.5938 213.521> 234.375 61.1426<681.761 785.221> 440.116 87.4705<345.574 445.277> 446.444 61.3447<702.779 804.776>
LayerCount: 2
Fore
SplineSet
333 275 m 2xbf
 260 275 208 267 177 250 c 0
 146 233 126 205 119 165 c 1
 117.275693465 156.51110629 116.431041672 148.444446855 116.431041672 140.837358175 c 0
 116.431041672 91.0926066553 152.550005424 61 215 61 c 0
 315 61 395 138 418 255 c 2
 422 275 l 1
 333 275 l 2xbf
519 312 m 2
 459 0 l 1
 369 0 l 1x7f80
 385 83 l 1
 331 16 266 -14 177 -14 c 0
 79.653944252 -14 23.1017139794 37.3700024505 23.1017139794 119.755401155 c 0
 23.1017139794 132.1572497 24.3832242407 145.261927264 27 159 c 0
 51 282 147 345 310 345 c 2
 436 345 l 1
 437 354 l 1
 439.084221684 364.811899984 440.116385705 375.012927776 440.116385705 384.578768926 c 0
 440.116385705 448.447274808 394.103878333 484 308 484 c 0
 245 484 182 468 122 439 c 1
 138 522 l 1
 208 547 272 560 331 560 c 0
 462.434515454 560 527.586918266 504.65101934 527.586918266 391.128783443 c 0xbf80
 527.586918266 367.320003623 524.721138302 340.952427164 519 312 c 2
445 744 m 0
 445.974333038 748.993456818 446.444337239 753.868248028 446.444337239 758.579209635 c 0x3f40
 446.444337239 792.548751926 422.006543182 818 386 818 c 0
 343 818 305 785 297 744 c 0
 296.002007911 738.63579252 295.517572242 733.458332829 295.517572242 728.504507215 c 0
 295.517572242 693.747993097 319.36420748 670 357 670 c 0
 398 670 437 703 445 744 c 0
505 744 m 0
 498 707 479 675 448 649 c 0
 417 623 382 610 345 610 c 0
 308 610 279 623 258 649 c 0
 242.25 668.5 234.375 691.375 234.375 717.203125 c 0
 234.375 725.8125 235.25 734.75 237 744 c 0
 244 781 264 813 295 839 c 0
 326 865 360 878 397 878 c 0
 434 878 464 865 485 839 c 0
 500.458632786 819.86074036 507.78905715 797.470197351 507.78905715 772.227263003 c 0
 507.78905715 763.178573464 506.847122405 753.763361282 505 744 c 0
EndSplineSet
Validated: 524289
EndChar

StartChar: ae
Encoding: 230 230 190
Width: 982
Flags: W
HStem: -14 75<142.454 298.385 563.546 790.622> 252 70<518 841.003> 275 70<188.479 422> 484 76<188.551 399.165 628.314 797.893>
VStem: 22.8766 93.5545<88.5306 212.25> 841.914 88.56<322.715 439.448>
LayerCount: 2
Fore
SplineSet
838 322 m 1xdc
 840.629345548 336.461400512 841.914407594 350.154639024 841.914407594 362.995558728 c 0
 841.914407594 438.061135332 797.999347014 484 722 484 c 0
 622 484 547 425 518 322 c 1
 838 322 l 1xdc
514 470 m 1
 573 529 648 560 735 560 c 0
 808 560 862 536 896 489 c 0
 918.659209895 456.727791968 930.474420488 415.968975785 930.474420488 367.371025646 c 0
 930.474420488 345.192794179 928.013716414 321.381939348 923 296 c 2
 914 252 l 1
 501 252 l 1xdc
 499.187056626 237.949688851 498.285676616 224.631196178 498.285676616 212.059069627 c 0
 498.285676616 113.676806924 553.483766344 61 659 61 c 0
 727 61 795 78 866 113 c 1
 850 28 l 1
 780 0 709 -14 640 -14 c 0
 532 -14 457 26 423 103 c 1
 359 24 282 -14 189 -14 c 0
 82.1809606947 -14 22.8765853434 34.2688649692 22.8765853434 118.361899544 c 0
 22.8765853434 131.100322357 24.2373969546 144.660774669 27 159 c 0
 51 282 147 345 310 345 c 2
 436 345 l 1xbc
 437 354 l 1
 439.084221684 364.811899984 440.116385705 375.012927776 440.116385705 384.578768926 c 0
 440.116385705 448.447274808 394.103878333 484 308 484 c 0
 245 484 182 468 122 439 c 1
 138 522 l 1
 208 547 272 560 331 560 c 0
 423 560 489 527 514 470 c 1
333 275 m 2xbc
 260 275 208 267 177 250 c 0
 146 233 126 205 119 165 c 1
 117.275693465 156.51110629 116.431041672 148.444446855 116.431041672 140.837358175 c 0
 116.431041672 91.0926066553 152.550005424 61 215 61 c 0
 315 61 395 138 418 255 c 2
 422 275 l 1
 333 275 l 2xbc
EndSplineSet
Validated: 524289
Ligature2: "sous-table 'dpng' Dipthongs (Obsolete) dans Latin lookup 9" a e
EndChar

StartChar: ccedilla
Encoding: 231 231 191
Width: 550
Flags: W
HStem: -193 60<123.165 254.61> -13.8402 75.8402<196.222 256.598> 484 76<268.943 471.438>
VStem: 36.5906 96.9186<122.588 325.333> 266.609 65.0659<-120.342 -19.3452>
LayerCount: 2
Fore
SplineSet
527 526 m 1
 510 442 l 1
 465 470 417 484 365 484 c 0
 249 484 165 406 140 273 c 0
 135.64774237 250.736528278 133.509137953 230.014207526 133.509137953 210.940920389 c 0
 133.509137953 116.072086506 186.41776481 62 283 62 c 0
 335 62 388 76 445 104 c 1
 429 21 l 1
 388.010174396 3.43293188393 348.091883105 -7.1691631965 305.715679322 -11.5906067029 c 1
 323.266954587 -39.434102405 331.674542867 -64.3471467077 331.674542862 -87.4338876206 c 0
 331.674542862 -93.4050611938 331.112116631 -99.254064072 330 -105 c 0
 319 -162 274 -193 197 -193 c 0
 168 -193 140 -189 113 -181 c 1
 126 -117 l 1
 147 -128 168 -133 199 -133 c 0
 238 -133 260 -116 266 -87 c 0
 266.404141504 -84.3057233042 266.608657019 -81.4844118873 266.608657019 -78.5213971771 c 0
 266.608657019 -62.1272199322 260.347740751 -41.3950223775 246.997710462 -13.8402112513 c 1
 170.610127411 -11.5944916103 114.234301773 14.3089899895 77 63 c 0
 50.1689135531 98.7747819292 36.5905566248 143.069175692 36.5905566248 195.883181288 c 0
 36.5905566248 219.836332412 39.3835783601 245.541938649 45 273 c 0
 62 362 99 432 158 483 c 0
 217 534 290 560 375 560 c 0
 431 560 482 549 527 526 c 1
EndSplineSet
Validated: 524289
EndChar

StartChar: egrave
Encoding: 232 232 192
Width: 615
Flags: W
HStem: -14 76<196.672 424.332> 252 70<151 474.003> 484 76<261.042 429.782>
VStem: 36.3409 94.98<124.35 251.267> 474.914 88.7987<322.495 438.869>
LayerCount: 2
Fore
SplineSet
556 296 m 2
 547 252 l 1
 134 252 l 1
 132.209702039 238.125190806 131.320857238 224.976552212 131.320857238 212.565291647 c 0
 131.320857238 114.056373888 187.315341082 62 293 62 c 0
 362 62 429 78 499 113 c 1
 483 28 l 1
 414 0 342 -14 273 -14 c 0
 186 -14 121 11 80 62 c 0
 50.5491317504 97.7617685888 36.340872832 141.882387456 36.340872832 195.051423544 c 0
 36.340872832 217.706960666 38.9205895296 242.005369946 44 268 c 0
 61 357 99 428 157 481 c 0
 216 534 286 560 368 560 c 0
 442 560 496 536 530 489 c 0
 552.371536831 457.13750815 563.71308666 417.00252605 563.71308666 369.218179356 c 0
 563.71308666 346.516378727 561.153194264 322.088045961 556 296 c 2
471 322 m 1
 473.629345548 336.461400512 474.914407594 350.154639024 474.914407594 362.995558728 c 0
 474.914407594 438.061135332 430.999347014 484 355 484 c 0
 255 484 180 425 151 322 c 1
 471 322 l 1
339 800 m 1
 441 617 l 1
 366 617 l 1
 243 800 l 1
 339 800 l 1
EndSplineSet
Validated: 524289
EndChar

StartChar: eacute
Encoding: 233 233 193
Width: 615
Flags: W
HStem: -14 76<196.672 424.332> 252 70<151 474.003> 484 76<261.042 429.782>
VStem: 36.3409 94.98<124.35 251.267> 474.914 88.7987<322.495 438.869>
LayerCount: 2
Fore
SplineSet
556 296 m 2
 547 252 l 1
 134 252 l 1
 132.209702039 238.125190806 131.320857238 224.976552212 131.320857238 212.565291647 c 0
 131.320857238 114.056373888 187.315341082 62 293 62 c 0
 362 62 429 78 499 113 c 1
 483 28 l 1
 414 0 342 -14 273 -14 c 0
 186 -14 121 11 80 62 c 0
 50.5491317504 97.7617685888 36.340872832 141.882387456 36.340872832 195.051423544 c 0
 36.340872832 217.706960666 38.9205895296 242.005369946 44 268 c 0
 61 357 99 428 157 481 c 0
 216 534 286 560 368 560 c 0
 442 560 496 536 530 489 c 0
 552.371536831 457.13750815 563.71308666 417.00252605 563.71308666 369.218179356 c 0
 563.71308666 346.516378727 561.153194264 322.088045961 556 296 c 2
471 322 m 1
 473.629345548 336.461400512 474.914407594 350.154639024 474.914407594 362.995558728 c 0
 474.914407594 438.061135332 430.999347014 484 355 484 c 0
 255 484 180 425 151 322 c 1
 471 322 l 1
478 800 m 1
 575 800 l 1
 380 616 l 1
 305 616 l 1
 478 800 l 1
EndSplineSet
Validated: 524289
EndChar

StartChar: ecircumflex
Encoding: 234 234 194
Width: 615
Flags: W
HStem: -14 76<196.672 424.332> 252 70<151 474.003> 484 76<261.042 429.782>
VStem: 36.3409 94.98<124.35 251.267> 474.914 88.7987<322.495 438.869>
LayerCount: 2
Fore
SplineSet
556 296 m 2
 547 252 l 1
 134 252 l 1
 132.209702039 238.125190806 131.320857238 224.976552212 131.320857238 212.565291647 c 0
 131.320857238 114.056373888 187.315341082 62 293 62 c 0
 362 62 429 78 499 113 c 1
 483 28 l 1
 414 0 342 -14 273 -14 c 0
 186 -14 121 11 80 62 c 0
 50.5491317504 97.7617685888 36.340872832 141.882387456 36.340872832 195.051423544 c 0
 36.340872832 217.706960666 38.9205895296 242.005369946 44 268 c 0
 61 357 99 428 157 481 c 0
 216 534 286 560 368 560 c 0
 442 560 496 536 530 489 c 0
 552.371536831 457.13750815 563.71308666 417.00252605 563.71308666 369.218179356 c 0
 563.71308666 346.516378727 561.153194264 322.088045961 556 296 c 2
471 322 m 1
 473.629345548 336.461400512 474.914407594 350.154639024 474.914407594 362.995558728 c 0
 474.914407594 438.061135332 430.999347014 484 355 484 c 0
 255 484 180 425 151 322 c 1
 471 322 l 1
374 800 m 1
 446 800 l 1
 530 616 l 1
 462 616 l 1
 398 736 l 1
 286 616 l 1
 218 616 l 1
 374 800 l 1
EndSplineSet
Validated: 524289
EndChar

StartChar: edieresis
Encoding: 235 235 195
Width: 615
Flags: W
HStem: -14 76<196.672 424.332> 252 70<151 474.003> 484 76<261.042 429.782> 659 99<257 337 448 528>
VStem: 36.3409 94.98<124.35 251.267> 474.914 88.7987<322.495 438.869>
LayerCount: 2
Fore
SplineSet
556 296 m 2
 547 252 l 1
 134 252 l 1
 132.209702039 238.125190806 131.320857238 224.976552212 131.320857238 212.565291647 c 0
 131.320857238 114.056373888 187.315341082 62 293 62 c 0
 362 62 429 78 499 113 c 1
 483 28 l 1
 414 0 342 -14 273 -14 c 0
 186 -14 121 11 80 62 c 0
 50.5491317504 97.7617685888 36.340872832 141.882387456 36.340872832 195.051423544 c 0
 36.340872832 217.706960666 38.9205895296 242.005369946 44 268 c 0
 61 357 99 428 157 481 c 0
 216 534 286 560 368 560 c 0
 442 560 496 536 530 489 c 0
 552.371536831 457.13750815 563.71308666 417.00252605 563.71308666 369.218179356 c 0
 563.71308666 346.516378727 561.153194264 322.088045961 556 296 c 2
471 322 m 1
 473.629345548 336.461400512 474.914407594 350.154639024 474.914407594 362.995558728 c 0
 474.914407594 438.061135332 430.999347014 484 355 484 c 0
 255 484 180 425 151 322 c 1
 471 322 l 1
448 758 m 1
 547 758 l 1
 528 659 l 1
 429 659 l 1
 448 758 l 1
257 758 m 1
 356 758 l 1
 337 659 l 1
 238 659 l 1
 257 758 l 1
EndSplineSet
Validated: 524289
EndChar

StartChar: igrave
Encoding: 236 236 196
Width: 278
Flags: W
HStem: 0 21G<31 124.876> 527 20G<133.124 227>
VStem: 31 231
LayerCount: 2
Fore
SplineSet
137 547 m 1
 227 547 l 1
 121 0 l 1
 31 0 l 1
 137 547 l 1
160 800 m 1
 262 617 l 1
 187 617 l 1
 64 800 l 1
 160 800 l 1
EndSplineSet
Validated: 1
EndChar

StartChar: iacute
Encoding: 237 237 197
Width: 278
Flags: W
HStem: 0 21G<31 124.876> 527 20G<133.124 227>
LayerCount: 2
Fore
SplineSet
137 547 m 1
 227 547 l 1
 121 0 l 1
 31 0 l 1
 137 547 l 1
299 800 m 1
 396 800 l 1
 201 616 l 1
 126 616 l 1
 299 800 l 1
EndSplineSet
Validated: 1
EndChar

StartChar: icircumflex
Encoding: 238 238 198
Width: 278
Flags: W
HStem: 0 21G<31 124.876> 527 20G<133.124 227>
VStem: 31 320
LayerCount: 2
Fore
SplineSet
137 547 m 1
 227 547 l 1
 121 0 l 1
 31 0 l 1
 137 547 l 1
195 800 m 1
 267 800 l 1
 351 616 l 1
 283 616 l 1
 219 736 l 1
 107 616 l 1
 39 616 l 1
 195 800 l 1
EndSplineSet
Validated: 1
EndChar

StartChar: idieresis
Encoding: 239 239 199
Width: 278
Flags: W
HStem: 0 21G<31 124.876> 527 20G<133.124 227> 659 99<78 158 269 349>
LayerCount: 2
Fore
SplineSet
137 547 m 1
 227 547 l 1
 121 0 l 1
 31 0 l 1
 137 547 l 1
269 758 m 1
 368 758 l 1
 349 659 l 1
 250 659 l 1
 269 758 l 1
78 758 m 1
 177 758 l 1
 158 659 l 1
 59 659 l 1
 78 758 l 1
EndSplineSet
Validated: 1
EndChar

StartChar: eth
Encoding: 240 240 200
Width: 612
Flags: W
HStem: -14 76<181.25 335.886> 463 73<255.538 391.788> 723 20G<504.556 571.979> 740 20G<236 360.521>
VStem: 34.6443 96.5096<114.458 314.428> 458.035 94.9384<213.217 439.219>
LayerCount: 2
Fore
SplineSet
432 447 m 1xcc
 403 458 375 463 348 463 c 0
 239 463 162 389 137 262 c 1
 133.069311188 240.979359829 131.153880793 221.30222527 131.153880793 203.123329761 c 0
 131.153880793 114.930386476 176.235453791 62 255 62 c 0
 350 62 426 139 449 262 c 1
 454.988505367 291.942526837 458.035189925 319.223406275 458.035189925 343.947502063 c 0
 458.035189925 385.280879438 449.520115607 419.46838976 432 447 c 1xcc
485 557 m 1
 530.962957171 489.149920367 552.973607858 423.428934643 552.973607858 348.963770364 c 0
 552.973607858 321.361843265 549.949443528 292.558505392 544 262 c 0
 528 179 492 113 436 62 c 0
 380 11 315 -14 240 -14 c 0
 165 -14 109 11 73 62 c 0
 47.3180364095 97.3994633275 34.6442597104 140.02569715 34.6442597104 190.547521853 c 0
 34.6442597104 212.812480272 37.1057139851 236.610891298 42 262 c 0
 58 343 93 409 148 460 c 0
 203 511 267 536 339 536 c 0
 351 536 365 535 393 531 c 1
 332 619 l 1
 166 567 l 1
 159 615 l 1
 305 660 l 1
 236 760 l 1
 347 760 l 1xdc
 395 689 l 1
 569 743 l 1xec
 576 696 l 1
 422 648 l 1
 485 557 l 1
EndSplineSet
Validated: 524289
EndChar

StartChar: ntilde
Encoding: 241 241 201
Width: 634
Flags: W
HStem: 0 21G<28 121.883 396 489.879> 482 78<303.874 436.082> 527 20G<130.124 224> 639 62<427.981 492.735> 715 62<303.777 368.465>
VStem: 224 61<639 697.688> 464.898 93.023<259.195 453.77> 512 61<718.312 777>
LayerCount: 2
Fore
SplineSet
550 330 m 2xde
 486 0 l 1
 396 0 l 1
 459 327 l 2
 462.936762845 347.471166793 464.897517723 365.888835111 464.897517723 382.268258042 c 0
 464.897517723 449.101482542 432.252948621 482 368 482 c 0xde
 271 482 198 416 178 309 c 2
 118 0 l 1
 28 0 l 1
 134 547 l 1
 224 547 l 1xbe
 207 462 l 1
 263 527 327 560 403 560 c 0
 505.187628715 560 557.920470344 507.203673246 557.920470344 405.435416706 c 0
 557.920470344 382.716666086 555.292470138 357.557344512 550 330 c 2xde
389 669 m 2
 366 696 l 1
 353 709 344 715 336 715 c 0
 311 715 296 692 285 639 c 1
 224 639 l 1
 242 727 287 777 346 777 c 0
 371 777 388 768 408 747 c 1
 430 720 l 1
 443 707 452 701 460 701 c 0
 485 701 500 724 512 777 c 1
 573 777 l 1x9d
 554 689 510 639 451 639 c 0
 426 639 408 648 389 669 c 2
EndSplineSet
Validated: 524289
EndChar

StartChar: ograve
Encoding: 242 242 202
Width: 612
Flags: W
HStem: -14 76<182.329 335.209> 484 76<259.276 408.973>
VStem: 36.3881 96.2563<113.931 323.416> 458.898 96.5748<222.7 428.784>
LayerCount: 2
Fore
SplineSet
337 484 m 0
 241 484 165 404 140 273 c 0
 135.0573326 248.096560406 132.644394892 225.036209587 132.644394892 204.018180931 c 0
 132.644394892 114.474704877 176.439951455 62 255 62 c 0
 351 62 426 142 452 273 c 0
 456.634837452 296.915761252 458.898093214 319.216097296 458.898093214 339.677984161 c 0
 458.898093214 429.586132257 415.202224184 484 337 484 c 0
351 560 m 0
 481.638308677 560 555.472878727 484.962962556 555.472878727 354.856069337 c 0
 555.472878727 329.597545261 552.690123053 302.263489988 547 273 c 0
 512 94 396 -14 240 -14 c 0
 108.91511061 -14 36.3880877056 61.2886854827 36.3880877056 190.330273638 c 0
 36.3880877056 215.841429392 39.2227460425 243.453472617 45 273 c 0
 80 453 194 560 351 560 c 0
327 800 m 1
 429 617 l 1
 354 617 l 1
 231 800 l 1
 327 800 l 1
EndSplineSet
Validated: 524289
EndChar

StartChar: oacute
Encoding: 243 243 203
Width: 612
Flags: W
HStem: -14 76<182.329 335.209> 484 76<259.276 408.973>
VStem: 36.3881 96.2563<113.931 323.416> 458.898 96.5748<222.7 428.784>
LayerCount: 2
Fore
SplineSet
337 484 m 0
 241 484 165 404 140 273 c 0
 135.0573326 248.096560406 132.644394892 225.036209587 132.644394892 204.018180931 c 0
 132.644394892 114.474704877 176.439951455 62 255 62 c 0
 351 62 426 142 452 273 c 0
 456.634837452 296.915761252 458.898093214 319.216097296 458.898093214 339.677984161 c 0
 458.898093214 429.586132257 415.202224184 484 337 484 c 0
351 560 m 0
 481.638308677 560 555.472878727 484.962962556 555.472878727 354.856069337 c 0
 555.472878727 329.597545261 552.690123053 302.263489988 547 273 c 0
 512 94 396 -14 240 -14 c 0
 108.91511061 -14 36.3880877056 61.2886854827 36.3880877056 190.330273638 c 0
 36.3880877056 215.841429392 39.2227460425 243.453472617 45 273 c 0
 80 453 194 560 351 560 c 0
466 800 m 1
 563 800 l 1
 368 616 l 1
 293 616 l 1
 466 800 l 1
EndSplineSet
Validated: 524289
EndChar

StartChar: ocircumflex
Encoding: 244 244 204
Width: 612
Flags: W
HStem: -14 76<182.329 335.209> 484 76<259.276 408.973>
VStem: 36.3881 96.2563<113.931 323.416> 458.898 96.5748<222.7 428.784>
LayerCount: 2
Fore
SplineSet
337 484 m 0
 241 484 165 404 140 273 c 0
 135.0573326 248.096560406 132.644394892 225.036209587 132.644394892 204.018180931 c 0
 132.644394892 114.474704877 176.439951455 62 255 62 c 0
 351 62 426 142 452 273 c 0
 456.634837452 296.915761252 458.898093214 319.216097296 458.898093214 339.677984161 c 0
 458.898093214 429.586132257 415.202224184 484 337 484 c 0
351 560 m 0
 481.638308677 560 555.472878727 484.962962556 555.472878727 354.856069337 c 0
 555.472878727 329.597545261 552.690123053 302.263489988 547 273 c 0
 512 94 396 -14 240 -14 c 0
 108.91511061 -14 36.3880877056 61.2886854827 36.3880877056 190.330273638 c 0
 36.3880877056 215.841429392 39.2227460425 243.453472617 45 273 c 0
 80 453 194 560 351 560 c 0
362 800 m 1
 434 800 l 1
 518 616 l 1
 450 616 l 1
 386 736 l 1
 274 616 l 1
 206 616 l 1
 362 800 l 1
EndSplineSet
Validated: 524289
EndChar

StartChar: otilde
Encoding: 245 245 205
Width: 612
Flags: W
HStem: -14 76<182.329 335.209> 484 76<259.276 408.973> 639 62<409.981 474.735> 715 62<285.777 350.465>
VStem: 36.3881 96.2563<113.931 323.416> 206 61<639 697.688> 458.898 96.5748<222.7 428.784> 494 61<718.312 777>
LayerCount: 2
Fore
SplineSet
337 484 m 0xfe
 241 484 165 404 140 273 c 0
 135.0573326 248.096560406 132.644394892 225.036209587 132.644394892 204.018180931 c 0
 132.644394892 114.474704877 176.439951455 62 255 62 c 0
 351 62 426 142 452 273 c 0
 456.634837452 296.915761252 458.898093214 319.216097296 458.898093214 339.677984161 c 0
 458.898093214 429.586132257 415.202224184 484 337 484 c 0xfe
351 560 m 0
 481.638308677 560 555.472878727 484.962962556 555.472878727 354.856069337 c 0
 555.472878727 329.597545261 552.690123053 302.263489988 547 273 c 0
 512 94 396 -14 240 -14 c 0
 108.91511061 -14 36.3880877056 61.2886854827 36.3880877056 190.330273638 c 0
 36.3880877056 215.841429392 39.2227460425 243.453472617 45 273 c 0
 80 453 194 560 351 560 c 0
371 669 m 2
 348 696 l 1
 335 709 326 715 318 715 c 0
 293 715 278 692 267 639 c 1
 206 639 l 1
 224 727 269 777 328 777 c 0
 353 777 370 768 390 747 c 1
 412 720 l 1
 425 707 434 701 442 701 c 0
 467 701 482 724 494 777 c 1
 555 777 l 1xfd
 536 689 492 639 433 639 c 0
 408 639 390 648 371 669 c 2
EndSplineSet
Validated: 524289
EndChar

StartChar: odieresis
Encoding: 246 246 206
Width: 612
Flags: W
HStem: -14 76<182.329 335.209> 484 76<259.276 408.973> 659 99<245 325 436 516>
VStem: 36.3881 96.2563<113.931 323.416> 458.898 96.5748<222.7 428.784>
LayerCount: 2
Fore
SplineSet
337 484 m 0
 241 484 165 404 140 273 c 0
 135.0573326 248.096560406 132.644394892 225.036209587 132.644394892 204.018180931 c 0
 132.644394892 114.474704877 176.439951455 62 255 62 c 0
 351 62 426 142 452 273 c 0
 456.634837452 296.915761252 458.898093214 319.216097296 458.898093214 339.677984161 c 0
 458.898093214 429.586132257 415.202224184 484 337 484 c 0
351 560 m 0
 481.638308677 560 555.472878727 484.962962556 555.472878727 354.856069337 c 0
 555.472878727 329.597545261 552.690123053 302.263489988 547 273 c 0
 512 94 396 -14 240 -14 c 0
 108.91511061 -14 36.3880877056 61.2886854827 36.3880877056 190.330273638 c 0
 36.3880877056 215.841429392 39.2227460425 243.453472617 45 273 c 0
 80 453 194 560 351 560 c 0
436 758 m 1
 535 758 l 1
 516 659 l 1
 417 659 l 1
 436 758 l 1
245 758 m 1
 344 758 l 1
 325 659 l 1
 226 659 l 1
 245 758 l 1
EndSplineSet
Validated: 524289
EndChar

StartChar: divide
Encoding: 247 247 207
Width: 838
Flags: W
HStem: 73 120<333 430> 272 83<112 721> 434 120<403 500>
CounterMasks: 1 e0
LayerCount: 2
Fore
SplineSet
403 554 m 1
 523 554 l 1
 500 434 l 1
 380 434 l 1
 403 554 l 1
333 193 m 1
 453 193 l 1
 430 73 l 1
 310 73 l 1
 333 193 l 1
112 355 m 1
 738 355 l 1
 721 272 l 1
 95 272 l 1
 112 355 l 1
EndSplineSet
Validated: 1
EndChar

StartChar: oslash
Encoding: 248 248 208
Width: 612
Flags: W
HStem: -14 76<179.656 335.209> 484 76<255.372 409.992>
VStem: 36.5625 94.013<155.694 321.039> 459.925 95.5126<222.7 390.011>
LayerCount: 2
Fore
SplineSet
455 391 m 1
 160 102 l 1
 182 75 212 62 255 62 c 0
 351 62 426 142 452 273 c 0
 457.444665782 301.312262067 459.924893016 325.177866313 459.924893016 345.726639135 c 0
 459.924893016 362.91897595 458.188733952 377.789530768 455 391 c 1
430 444 m 1
 408 471 377 484 337 484 c 0
 238 484 165 403 138 266 c 0
 133.103966292 240.43182397 130.575453184 218.414928839 130.575453184 198.983359552 c 0
 130.575453184 182.695378277 132.352029963 168.223891386 136 155 c 1
 430 444 l 1
60 81 m 1
 44.375 112.875 36.5625 149.828125 36.5625 191.859375 c 0
 36.5625 217.078125 39.375 244.125 45 273 c 0
 80 453 194 560 351 560 c 0
 412 560 460 543 498 510 c 1
 582 592 l 1
 620 553 l 1
 532 466 l 1
 547.625 434.125 555.4375 397.5625 555.4375 355.3359375 c 0
 555.4375 330 552.625 302.625 547 273 c 0
 512 94 396 -14 240 -14 c 0
 177 -14 128 3 93 36 c 1
 10 -46 l 1
 -30 -8 l 1
 60 81 l 1
EndSplineSet
Validated: 524289
EndChar

StartChar: ugrave
Encoding: 249 249 209
Width: 634
Flags: W
HStem: -14 78<177.236 309.231> 0 21G<390 483.876> 527 20G<124.073 218 492.129 586>
VStem: 55.1665 92.8415<92.5312 284.43> 128 90<511.354 547>
LayerCount: 2
Fore
SplineSet
63 216 m 2xb0
 128 547 l 1
 218 547 l 1
 154 219 l 2
 150.007968159 198.441036019 148.007976096 179.913952612 148.007976096 163.426702063 c 0
 148.007976096 97.3131557958 180.167728956 64 245 64 c 0xa8
 342 64 415 130 436 237 c 2
 496 547 l 1
 586 547 l 1
 480 0 l 1
 390 0 l 1x68
 406 84 l 1
 349 17 287 -14 211 -14 c 0
 108.57793105 -14 55.1664512318 39.0388567316 55.1664512318 141.265790844 c 0
 55.1664512318 163.800706351 57.7619199964 188.725859292 63 216 c 2xb0
331 800 m 1
 433 617 l 1
 358 617 l 1
 235 800 l 1
 331 800 l 1
EndSplineSet
Validated: 524289
EndChar

StartChar: uacute
Encoding: 250 250 210
Width: 634
Flags: W
HStem: -14 78<177.236 309.231> 0 21G<390 483.876> 527 20G<124.073 218 492.129 586>
VStem: 55.1665 92.8415<92.5312 284.43> 128 90<511.354 547>
LayerCount: 2
Fore
SplineSet
63 216 m 2xb0
 128 547 l 1
 218 547 l 1
 154 219 l 2
 150.007968159 198.441036019 148.007976096 179.913952612 148.007976096 163.426702063 c 0
 148.007976096 97.3131557958 180.167728956 64 245 64 c 0xa8
 342 64 415 130 436 237 c 2
 496 547 l 1
 586 547 l 1
 480 0 l 1
 390 0 l 1x68
 406 84 l 1
 349 17 287 -14 211 -14 c 0
 108.57793105 -14 55.1664512318 39.0388567316 55.1664512318 141.265790844 c 0
 55.1664512318 163.800706351 57.7619199964 188.725859292 63 216 c 2xb0
470 800 m 1
 567 800 l 1
 372 616 l 1
 297 616 l 1
 470 800 l 1
EndSplineSet
Validated: 524289
EndChar

StartChar: ucircumflex
Encoding: 251 251 211
Width: 634
Flags: W
HStem: -14 78<177.236 309.231> 0 21G<390 483.876> 527 20G<124.073 218 492.129 586>
VStem: 55.1665 92.8415<92.5312 284.43> 128 90<511.354 547>
LayerCount: 2
Fore
SplineSet
63 216 m 2xb0
 128 547 l 1
 218 547 l 1
 154 219 l 2
 150.007968159 198.441036019 148.007976096 179.913952612 148.007976096 163.426702063 c 0
 148.007976096 97.3131557958 180.167728956 64 245 64 c 0xa8
 342 64 415 130 436 237 c 2
 496 547 l 1
 586 547 l 1
 480 0 l 1
 390 0 l 1x68
 406 84 l 1
 349 17 287 -14 211 -14 c 0
 108.57793105 -14 55.1664512318 39.0388567316 55.1664512318 141.265790844 c 0
 55.1664512318 163.800706351 57.7619199964 188.725859292 63 216 c 2xb0
366 800 m 1
 438 800 l 1
 522 616 l 1
 454 616 l 1
 390 736 l 1
 278 616 l 1
 210 616 l 1
 366 800 l 1
EndSplineSet
Validated: 524289
EndChar

StartChar: udieresis
Encoding: 252 252 212
Width: 634
Flags: W
HStem: -14 78<177.236 309.231> 0 21G<390 483.876> 527 20G<124.073 218 492.129 586> 659 99<249 329 440 520>
VStem: 55.1665 92.8415<92.5312 284.43> 128 90<511.354 547>
LayerCount: 2
Fore
SplineSet
63 216 m 2xb8
 128 547 l 1
 218 547 l 1
 154 219 l 2
 150.007968159 198.441036019 148.007976096 179.913952612 148.007976096 163.426702063 c 0
 148.007976096 97.3131557958 180.167728956 64 245 64 c 0xb4
 342 64 415 130 436 237 c 2
 496 547 l 1
 586 547 l 1
 480 0 l 1
 390 0 l 1x74
 406 84 l 1
 349 17 287 -14 211 -14 c 0
 108.57793105 -14 55.1664512318 39.0388567316 55.1664512318 141.265790844 c 0
 55.1664512318 163.800706351 57.7619199964 188.725859292 63 216 c 2xb8
440 758 m 1
 539 758 l 1
 520 659 l 1
 421 659 l 1
 440 758 l 1
249 758 m 1
 348 758 l 1
 329 659 l 1
 230 659 l 1
 249 758 l 1
EndSplineSet
Validated: 524289
EndChar

StartChar: yacute
Encoding: 253 253 213
Width: 592
Flags: W
HStem: -208 75<-10 107.242> 527 20G<73 172.112 498.131 605>
LayerCount: 2
Fore
SplineSet
249 -51 m 2
 211 -116 178 -158 149 -178 c 0
 121 -198 87 -208 47 -208 c 2
 -25 -208 l 1
 -10 -133 l 1
 43 -133 l 2
 68 -133 88 -127 103 -115 c 1
 119 -104 140 -76 165 -32 c 2
 189 9 l 1
 73 547 l 1
 168 547 l 1
 256 119 l 1
 510 547 l 1
 605 547 l 1
 249 -51 l 2
456 800 m 1
 553 800 l 1
 358 616 l 1
 283 616 l 1
 456 800 l 1
EndSplineSet
Validated: 1
EndChar

StartChar: thorn
Encoding: 254 254 214
Width: 635
Flags: W
HStem: -208 21G<-13 80.8621> -14 75<211.76 360.35> 485 75<298.534 436.636> 740 20G<171.116 265>
VStem: 484.09 94.2163<221.582 435.29>
LayerCount: 2
Fore
SplineSet
133 82 m 1
 77 -208 l 1
 -13 -208 l 1
 175 760 l 1
 265 760 l 1
 208 464 l 1
 257 529 321 560 401 560 c 0
 468 560 517 534 548 481 c 0
 568.297713144 446.297458172 578.306215245 404.735442315 578.306215245 356.033243485 c 0
 578.306215245 330.354247104 575.523760958 302.690215148 570 273 c 0
 553 187 518 118 467 65 c 0
 416 12 357 -14 290 -14 c 0
 210 -14 158 17 133 82 c 1
477 273 m 0
 481.758820668 298.126573128 484.089950027 321.368967926 484.089950027 342.534060495 c 0
 484.089950027 432.557716384 441.916481461 485 365 485 c 0
 270 485 196 405 171 273 c 0
 165.919936163 247.208906672 163.435847627 223.402970928 163.435847627 201.791048066 c 0
 163.435847627 112.792157284 205.561771713 61 282 61 c 0
 377 61 451 141 477 273 c 0
EndSplineSet
Validated: 524289
EndChar

StartChar: ydieresis
Encoding: 255 255 215
Width: 592
Flags: W
HStem: -208 75<-10 107.242> 527 20G<73 172.112 498.131 605> 659 99<235 315 426 506>
LayerCount: 2
Fore
SplineSet
249 -51 m 2
 211 -116 178 -158 149 -178 c 0
 121 -198 87 -208 47 -208 c 2
 -25 -208 l 1
 -10 -133 l 1
 43 -133 l 2
 68 -133 88 -127 103 -115 c 1
 119 -104 140 -76 165 -32 c 2
 189 9 l 1
 73 547 l 1
 168 547 l 1
 256 119 l 1
 510 547 l 1
 605 547 l 1
 249 -51 l 2
426 758 m 1
 525 758 l 1
 506 659 l 1
 407 659 l 1
 426 758 l 1
235 758 m 1
 334 758 l 1
 315 659 l 1
 216 659 l 1
 235 758 l 1
EndSplineSet
Validated: 1
EndChar

StartChar: fraction
Encoding: 8260 8260 216
Width: 167
Flags: W
HStem: -14 21G<-249 -155.074> 722 20G<337.074 431>
LayerCount: 2
Fore
SplineSet
353 742 m 1
 431 742 l 1
 -171 -14 l 1
 -249 -14 l 1
 353 742 l 1
EndSplineSet
Validated: 1
EndChar

StartChar: fi
Encoding: 64257 64257 217
Width: 630
Flags: W
HStem: 0 21G<46 139.857 383 476.876> 477 70<66 138 242 475> 645 114<530 598> 685 75<282.411 441>
LayerCount: 2
Fore
SplineSet
579 547 m 1xd0
 473 0 l 1
 383 0 l 1
 475 477 l 1
 228 477 l 1
 136 0 l 1
 46 0 l 1
 138 477 l 1
 52 477 l 1
 66 547 l 1
 152 547 l 1
 159 585 l 1
 182 704 248 760 365 760 c 2
 455 760 l 1
 441 685 l 1
 355 685 l 2
 291 685 264 663 251 595 c 2
 242 547 l 1
 579 547 l 1xd0
530 759 m 1xe0
 620 759 l 1
 598 645 l 1
 508 645 l 1
 530 759 l 1xe0
EndSplineSet
Validated: 1
Ligature2: "sous-table 'liga' Ligatures standard dans Latin lookup 6" f i
EndChar

StartChar: fl
Encoding: 64258 64258 218
Width: 630
Flags: W
HStem: 0 21G<46 139.857 383 476.868> 477 70<66 138 242 376> 685 75<284.117 516>
LayerCount: 2
Fore
SplineSet
370 760 m 2
 620 760 l 1
 473 0 l 1
 383 0 l 1
 516 685 l 1
 355 685 l 2
 291 685 264 663 251 595 c 2
 242 547 l 1
 390 547 l 1
 376 477 l 1
 228 477 l 1
 136 0 l 1
 46 0 l 1
 138 477 l 1
 52 477 l 1
 66 547 l 1
 152 547 l 1
 159 585 l 1
 183 706 247 760 370 760 c 2
EndSplineSet
Validated: 1
Ligature2: "sous-table 'liga' Ligatures standard dans Latin lookup 7" f l
EndChar

StartChar: breve
Encoding: 728 728 219
Width: 500
Flags: W
HStem: 645 67<260.829 398.328>
VStem: 184.288 59.6088<728.199 785>
LayerCount: 2
Fore
SplineSet
186 785 m 1
 244 785 l 1
 243.931034483 783.344827586 243.896551724 781.717003567 243.896551724 780.116609947 c 0
 243.896551724 735.305588585 270.931034483 712 325 712 c 0
 381 712 417 736 434 785 c 1
 492 785 l 1
 467 692 407 645 312 645 c 0
 226.858490566 645 184.287735849 682.751423994 184.287735849 757.5344034 c 0
 184.287735849 766.193485226 184.858490566 775.349056604 186 785 c 1
EndSplineSet
Validated: 524289
EndChar

StartChar: dotaccent
Encoding: 729 729 220
Width: 500
Flags: W
HStem: 658 100<284 364>
VStem: 264 120
LayerCount: 2
Fore
SplineSet
284 758 m 1
 384 758 l 1
 364 658 l 1
 264 658 l 1
 284 758 l 1
EndSplineSet
Validated: 1
EndChar

StartChar: ring
Encoding: 730 730 221
Width: 500
Flags: W
HStem: 610 60<267.852 373.248> 818 60<288.204 393.787>
VStem: 194.375 61.1426<681.761 785.221> 406.444 61.3447<702.779 804.776>
LayerCount: 2
Fore
SplineSet
405 744 m 0
 405.974333038 748.993456818 406.444337239 753.868248028 406.444337239 758.579209635 c 0
 406.444337239 792.548751926 382.006543182 818 346 818 c 0
 303 818 265 785 257 744 c 0
 256.002007911 738.63579252 255.517572242 733.458332829 255.517572242 728.504507215 c 0
 255.517572242 693.747993097 279.36420748 670 317 670 c 0
 358 670 397 703 405 744 c 0
465 744 m 0
 458 707 439 675 408 649 c 0
 377 623 342 610 305 610 c 0
 268 610 239 623 218 649 c 0
 202.25 668.5 194.375 691.375 194.375 717.203125 c 0
 194.375 725.8125 195.25 734.75 197 744 c 0
 204 781 224 813 255 839 c 0
 286 865 320 878 357 878 c 0
 394 878 424 865 445 839 c 0
 460.458632786 819.86074036 467.78905715 797.470197351 467.78905715 772.227263003 c 0
 467.78905715 763.178573464 466.847122405 753.763361282 465 744 c 0
EndSplineSet
Validated: 524289
EndChar

StartChar: hungarumlaut
Encoding: 733 733 222
Width: 500
Flags: W
HStem: 616 184
LayerCount: 2
Fore
SplineSet
465 800 m 1
 552 800 l 1
 395 616 l 1
 329 616 l 1
 465 800 l 1
302 800 m 1
 385 800 l 1
 240 616 l 1
 173 616 l 1
 302 800 l 1
EndSplineSet
Validated: 1
EndChar

StartChar: ogonek
Encoding: 731 731 223
Width: 500
Flags: W
HStem: -193 60<151.553 245.284> -20 20G<130 210>
VStem: 75.5044 72.5581<-129.472 -60.7324>
LayerCount: 2
Fore
SplineSet
152 0 m 1
 210 0 l 1
 173 -40 153 -68 149 -88 c 0
 148.375 -91.625 148.0625 -95.046875 148.0625 -98.259765625 c 0
 148.0625 -120.75 163.375 -133 194 -133 c 0
 215 -133 236 -127 258 -118 c 1
 245 -183 l 1
 220 -190 196 -193 177 -193 c 0
 108.056186688 -193 75.5044390491 -172.204533901 75.5044390491 -128.053389682 c 0
 75.5044390491 -120.973083712 76.3415719968 -113.292140016 78 -105 c 0
 84 -74 108 -40 152 0 c 1
EndSplineSet
Validated: 524289
EndChar

StartChar: caron
Encoding: 711 711 224
Width: 500
Flags: W
HStem: 616 184
VStem: 186 312
LayerCount: 2
Fore
SplineSet
270 616 m 1
 186 800 l 1
 254 800 l 1
 319 680 l 1
 430 800 l 1
 498 800 l 1
 342 616 l 1
 270 616 l 1
EndSplineSet
Validated: 1
EndChar

StartChar: Lslash
Encoding: 321 321 225
Width: 562
Flags: W
HStem: 0 83<155 494> 709 20G<177.119 280>
LayerCount: 2
Fore
SplineSet
181 729 m 1
 280 729 l 1
 222 428 l 1
 395 535 l 1
 424 481 l 1
 206 347 l 1
 155 83 l 1
 510 83 l 1
 494 0 l 1
 40 0 l 1
 94 279 l 1
 12 227 l 1
 -16 281 l 1
 109 358 l 1
 181 729 l 1
EndSplineSet
Validated: 1
Position2: "sous-table 'cpsp' Chasses pour composition en capitales dans Latin lookup 1" dx=5 dy=0 dh=10 dv=0
EndChar

StartChar: dotlessi
Encoding: 305 305 226
Width: 278
Flags: W
HStem: 0 21G<31 124.876> 527 20G<133.124 227>
VStem: 31 196
LayerCount: 2
Fore
SplineSet
137 547 m 1
 227 547 l 1
 121 0 l 1
 31 0 l 1
 137 547 l 1
EndSplineSet
Validated: 1
EndChar

StartChar: lslash
Encoding: 322 322 227
Width: 284
Flags: W
HStem: 0 21G<34 127.856> 740 20G<177.134 271>
VStem: 2 309
LayerCount: 2
Fore
SplineSet
181 760 m 1
 271 760 l 1
 214 466 l 1
 284 510 l 1
 311 458 l 1
 199 389 l 1
 124 0 l 1
 34 0 l 1
 97 325 l 1
 28 282 l 1
 2 334 l 1
 112 403 l 1
 181 760 l 1
EndSplineSet
Validated: 1
EndChar

StartChar: Zcaron
Encoding: 381 381 228
Width: 685
Flags: W
HStem: 0 83<121 577> 646 83<134 568>
LayerCount: 2
Fore
SplineSet
134 729 m 1
 707 729 l 1
 693 654 l 1
 121 83 l 1
 593 83 l 1
 577 0 l 1
 -18 0 l 1
 -4 75 l 1
 568 646 l 1
 118 646 l 1
 134 729 l 1
389 798 m 1
 311 928 l 1
 379 928 l 1
 443 841 l 1
 541 928 l 1
 609 928 l 1
 481 798 l 1
 389 798 l 1
EndSplineSet
Validated: 1
Position2: "sous-table 'cpsp' Chasses pour composition en capitales dans Latin lookup 1" dx=5 dy=0 dh=10 dv=0
EndChar

StartChar: zcaron
Encoding: 382 382 229
Width: 525
Flags: W
HStem: 0 72<94 419> 475 72<98 410>
LayerCount: 2
Fore
SplineSet
98 547 m 1
 525 547 l 1
 509 465 l 1
 94 72 l 1
 432 72 l 1
 419 0 l 1
 -20 0 l 1
 -5 82 l 1
 410 475 l 1
 84 475 l 1
 98 547 l 1
283 616 m 1
 199 800 l 1
 267 800 l 1
 332 680 l 1
 443 800 l 1
 511 800 l 1
 355 616 l 1
 283 616 l 1
EndSplineSet
Validated: 1
EndChar

StartChar: notequal
Encoding: 8800 8800 231
Width: 838
Flags: W
HStem: 172 83<92 222 408 702> 372 82<131 424 609 741>
LayerCount: 2
Fore
SplineSet
131 454 m 1
 508 454 l 1
 663 608 l 1
 714 558 l 1
 609 454 l 1
 757 454 l 1
 741 372 l 1
 526 372 l 1
 408 255 l 1
 718 255 l 1
 702 172 l 1
 324 172 l 1
 168 19 l 1
 117 69 l 1
 222 172 l 1
 76 172 l 1
 92 255 l 1
 306 255 l 1
 424 372 l 1
 115 372 l 1
 131 454 l 1
EndSplineSet
Validated: 1
EndChar

StartChar: infinity
Encoding: 8734 8734 232
Width: 833
Flags: W
HStem: 110 76<156.036 287.973 481.816 614.525> 411 78<209.591 342.809> 418 73<542.329 661.595>
VStem: 97.3426 38.8935<209.05 339.109> 686.764 38.8643<258.762 389.898>
LayerCount: 2
Fore
SplineSet
437 273 m 1xb8
 457 216 495 186 550 186 c 0
 615 186 671 235 684 303 c 0
 685.866278115 312.618510283 686.763912927 321.845441359 686.763912927 330.594991302 c 0
 686.763912927 382.792493343 654.817088267 418 606 418 c 0
 553 418 505 378 437 273 c 1xb8
387 325 m 1
 366 382 328 411 273 411 c 0xd8
 206 411 152 364 139 295 c 0
 137.133721885 285.668609427 136.236087073 276.646360334 136.236087073 268.036806767 c 0
 136.236087073 216.674486101 168.182911733 180 217 180 c 0
 270 180 319 221 387 325 c 1
404 236 m 1
 342 148 283 108 222 108 c 0
 178 108 145 126 121 162 c 1
 105.118647897 187.548262079 97.3425790804 216.910775116 97.3425790804 250.416753582 c 0
 97.3425790804 265.435453601 98.904935697 281.286652764 102 298 c 0
 124 411 199 489 287 489 c 0xd8
 348 489 388 449 417 360 c 1
 479 449 537 491 601 491 c 0xb8
 644 491 677 473 701 436 c 0
 717.64102729 410.345082928 725.628186165 380.844002116 725.628186165 347.163402795 c 0
 725.628186165 332.269213455 724.066238629 316.557688598 721 300 c 0
 698 185 625 110 537 110 c 0
 476 110 438 145 404 236 c 1
EndSplineSet
Validated: 524289
EndChar

StartChar: lessequal
Encoding: 8804 8804 233
Width: 838
Flags: W
HStem: 0 83<59 669>
LayerCount: 2
Fore
SplineSet
765 496 m 1
 270 361 l 1
 713 227 l 1
 696 140 l 1
 105 320 l 1
 121 403 l 1
 782 582 l 1
 765 496 l 1
59 83 m 1
 685 83 l 1
 669 0 l 1
 43 0 l 1
 59 83 l 1
EndSplineSet
Validated: 1
EndChar

StartChar: greaterequal
Encoding: 8805 8805 234
Width: 838
Flags: W
HStem: 0 83<59 669>
LayerCount: 2
Fore
SplineSet
139 496 m 1
 156 582 l 1
 747 403 l 1
 731 320 l 1
 70 140 l 1
 87 227 l 1
 582 361 l 1
 139 496 l 1
685 83 m 1
 669 0 l 1
 43 0 l 1
 59 83 l 1
 685 83 l 1
EndSplineSet
Validated: 1
EndChar

StartChar: partialdiff
Encoding: 8706 8706 235
Width: 517
Flags: W
HStem: -12 27<120.853 208.72> 359 36<216.146 315.106> 589 58<307.444 405.99>
VStem: 16.6378 82.6284<48.6343 196.799> 416.603 70.6533<398.163 568.079>
LayerCount: 2
Fore
SplineSet
364 303 m 1
 384 360 401 413 410 462 c 0
 414.413509929 483.807931411 416.602766202 502.85239616 416.602766202 519.098396865 c 0
 416.602766202 565.428897959 398.797943139 589 364 589 c 0
 346 589 323 579 296 560 c 0
 270 541 250 532 238 532 c 0
 217.499694751 532 203.354966293 545.505600681 203.354966293 562.603336284 c 0
 203.354966293 564.68814036 203.565270478 566.82635239 204 569 c 0
 208 589 223 607 250 623 c 0
 277 639 306 647 339 647 c 0
 398 647 439 622 464 571 c 1
 479.575701465 541.046727952 487.256056074 504.633626657 487.256056074 461.760696117 c 0
 487.256056074 433.067270782 483.815887504 401.480372077 477 367 c 0
 456 258 414 168 353 96 c 0
 292 24 227 -12 158 -12 c 0
 109 -12 70 5 44 40 c 0
 25.5191458062 64.8780729532 16.6378440723 94.8085419379 16.6378440723 129.073156228 c 0
 16.6378440723 143.014104419 18.1080208438 157.672510472 21 173 c 0
 34 238 62 291 106 332 c 0
 150 374 198 395 251 395 c 0
 316 395 353 367 364 303 c 1
328 241 m 1
 331.171568742 257.069281626 332.733721758 271.618559512 332.733721758 284.572213322 c 0
 332.733721758 332.883133276 311.005228361 359 270 359 c 0
 235 359 201 338 170 296 c 0
 139 254 117 199 104 132 c 0
 100.828431258 115.930718374 99.2662782416 101.42614648 99.2662782416 88.5429995718 c 0
 99.2662782416 40.4950365643 120.994771639 15 162 15 c 0
 197 15 230 36 262 78 c 1
 293 121 316 175 328 241 c 1
EndSplineSet
Validated: 524289
EndChar

StartChar: summation
Encoding: 8721 8721 236
Width: 674
Flags: W
HStem: -192 94<79 553> 625 94<231 699>
LayerCount: 2
Fore
SplineSet
103 719 m 1
 717 719 l 1
 699 625 l 1
 231 625 l 1
 491 275 l 1
 79 -98 l 1
 571 -98 l 1
 553 -192 l 1
 -89 -192 l 1
 -75 -119 l 1
 355 272 l 1
 87 633 l 1
 103 719 l 1
EndSplineSet
Validated: 1
EndChar

StartChar: product
Encoding: 8719 8719 237
Width: 757
Flags: W
HStem: 619 100<250 620>
LayerCount: 2
Fore
SplineSet
152 719 m 1
 756 719 l 1
 579 -192 l 1
 462 -192 l 1
 620 619 l 1
 250 619 l 1
 92 -192 l 1
 -25 -192 l 1
 152 719 l 1
EndSplineSet
Validated: 1
EndChar

StartChar: pi
Encoding: 960 960 238
Width: 589
Flags: W
HStem: -8 72<369.609 433.978> 0 21G<-15 81.1166> 446 77<96.3264 166 254 413 500 589>
VStem: -4 78<381 423.801> 275.598 92.4095<66.4328 157.019>
LayerCount: 2
Fore
SplineSet
589 446 m 1x78
 500 446 l 1
 403 208 l 2
 383 160 373 131 370 116 c 0
 368.686792084 109.058758159 368.007079486 102.891788373 368.007079486 97.4528733593 c 0
 368.007079486 73.8998788394 380.75364071 64 410 64 c 0xb8
 421 64 435 65 460 69 c 1
 432 0 l 1x78
 411 -5 393 -8 376 -8 c 0xb8
 309.281921777 -8 275.597624346 17.5261033395 275.597624346 66.6267601032 c 0
 275.597624346 74.1936613914 276.39762258 82.3204556427 278 91 c 0
 281 106 287 125 294 148 c 0
 302 172 317 210 338 262 c 2
 413 446 l 1
 254 446 l 1
 73 0 l 1
 -15 0 l 1
 166 446 l 1
 146 446 l 2
 111 446 87 426 74 381 c 1
 -4 381 l 1
 15 435 38 472 65 492 c 0
 92 513 133 523 187 523 c 2
 621 523 l 1
 589 446 l 1x78
EndSplineSet
Validated: 524289
EndChar

StartChar: integral
Encoding: 8747 8747 239
Width: 521
Flags: W
HStem: -181 53<-11.1997 90.7461> 705 52<415.429 515.921>
VStem: -63.2825 119.093<-127.3 -70.8224> 450.25 117.335<645.267 703.545>
LayerCount: 2
Fore
SplineSet
64 -128 m 0
 99 -128 139 -16 187 208 c 0
 195 243 200 270 205 289 c 0
 241 456 281 576 326 648 c 0
 372 721 428 757 493 757 c 0
 538.841009937 757 567.584845234 733.685670946 567.584845234 698.703673498 c 0
 567.584845234 694.003651073 567.065979049 689.093011014 566 684 c 1
 560 649 533 627 497 627 c 0
 469 627 454 640 450 663 c 0
 449.5 665.5 449.25 668.75 449.25 672.75 c 0
 449.25 676.75 449.5 681.5 450 687 c 0
 450.166666667 689 450.25 690.833333333 450.25 692.5 c 0
 450.25 700.833333333 448.166666667 705 444 705 c 0
 409 705 370 604 326 403 c 0
 313 340 301 291 293 255 c 0
 258 99 218 -13 174 -80 c 0
 130 -147 76 -181 12 -181 c 0
 -34.3993214569 -181 -63.2824688397 -157.910497811 -63.2824688397 -122.388030911 c 0
 -63.2824688397 -118.100254454 -62.8616428528 -113.631330334 -62 -109 c 0
 -55 -73 -27 -51 13 -51 c 0
 34 -51 47 -60 54 -79 c 0
 55.4641016151 -82.6602540378 56.3923048454 -89 56.3923048454 -97.2346281956 c 0
 56.3923048454 -100.248711306 56.2679491924 -103.516660498 56 -107 c 0
 55.8729833462 -108.778233153 55.8104996138 -110.443533694 55.8104996138 -111.995901622 c 0
 55.8104996138 -122.665300541 58.7620999228 -128 64 -128 c 0
EndSplineSet
Validated: 524289
EndChar

StartChar: Omega
Encoding: 8486 8486 240
Width: 764
Flags: W
HStem: 0 87<-9 147 523 663> 654 84<338.312 543.856>
VStem: 50.1597 103.16<213.684 442.722> 636.001 103.547<342.044 560.907>
LayerCount: 2
Fore
SplineSet
679 87 m 1
 663 0 l 1
 370 0 l 1
 386 87 l 1
 515 150 604 263 629 395 c 0
 633.657373434 419.218341858 636.001026623 441.990608563 636.001026623 463.286867171 c 0
 636.001026623 510.579456684 624.443286882 550.593103427 601 583 c 0
 567 630 516 654 446 654 c 0
 375 654 313 630 261 583 c 0
 209 536 175 473 160 395 c 0
 155.519420187 371.342538587 153.319428018 348.295375276 153.319428018 326.036971477 c 0
 153.319428018 224.101606127 199.45998883 138.708938871 284 87 c 1
 268 0 l 1
 -25 0 l 1
 -9 87 l 1
 147 87 l 1
 81.202938497 157.441559962 50.1597443353 228.482324533 50.1597443353 312.645815695 c 0
 50.1597443353 337.209015138 52.8039107596 362.889969181 58 390 c 0
 78 493 126 577 200 641 c 0
 276 706 363 738 462 738 c 0
 561 738 635 706 685 642 c 0
 721.487566034 596.21168184 739.548246599 541.209920947 739.548246599 476.628512417 c 0
 739.548246599 450.942134052 736.691150575 423.740310404 731 395 c 0
 707 268 645 179 523 87 c 1
 679 87 l 1
EndSplineSet
Validated: 524289
EndChar

StartChar: radical
Encoding: 8730 8730 241
Width: 637
Flags: W
HStem: 389 39<53.2821 71.4375> 764 47<666 722>
LayerCount: 2
Fore
SplineSet
639 811 m 1
 731 811 l 1
 722 764 l 1
 666 764 l 1
 224 -20 l 1
 192 -20 l 1
 119 411 l 1
 54 389 l 1
 50 428 l 1
 197 476 l 1
 255 130 l 1
 639 811 l 1
EndSplineSet
Validated: 1
EndChar

StartChar: approxequal
Encoding: 8776 8776 242
Width: 838
Flags: W
HStem: 145 81<442.812 618.039> 211 81<178.686 353.188> 335 81<479.812 655.039> 401 81<215.401 390.155>
LayerCount: 2
Fore
SplineSet
728 304 m 1x80
 711 217 l 1
 633 166 574 145 511 145 c 0x80
 475 145 435 155 391 174 c 0
 389 175 386 176 384 177 c 0
 382 178 378 179 374 181 c 0
 328 201 290 211 259 211 c 0
 202 211 143 188 68 133 c 1
 85 220 l 1
 163 271 222 292 285 292 c 0x40
 321 292 361 282 405 263 c 0
 408 262 411 261 412 260 c 0
 414 259 418 258 422 256 c 0
 468 236 506 226 537 226 c 0
 593 226 650 249 728 304 c 1x80
765 494 m 1
 748 407 l 1
 670 356 611 335 548 335 c 0x20
 512 335 472 345 428 364 c 0
 425 365 423 366 421 367 c 0
 419 368 415 369 411 371 c 0
 365 391 326 401 295 401 c 0
 238 401 180 378 105 323 c 1
 122 410 l 1
 200 461 259 482 322 482 c 0x10
 358 482 398 472 442 453 c 0
 444 452 447 451 449 450 c 0
 451 449 455 448 459 446 c 0
 505 426 543 416 574 416 c 0x20
 630 416 687 439 765 494 c 1
EndSplineSet
Validated: 1
EndChar

StartChar: increment
Encoding: 57356 57356 243
Width: 669
Flags: W
HStem: 0 87<83 491>
LayerCount: 2
Fore
SplineSet
390 616 m 1
 83 87 l 1
 491 87 l 1
 390 616 l 1
356 719 m 1
 465 719 l 1
 609 0 l 1
 -66 0 l 1
 356 719 l 1
EndSplineSet
Validated: 1
EndChar

StartChar: lozenge
Encoding: 9674 9674 245
Width: 494
Flags: W
LayerCount: 2
Fore
SplineSet
317 688 m 1
 52 289 l 1
 161 -114 l 1
 428 289 l 1
 317 688 l 1
340 807 m 1
 484 289 l 1
 138 -233 l 1
 -4 289 l 1
 340 807 l 1
EndSplineSet
Validated: 1
EndChar

StartChar: middot
Encoding: 57357 57357 246
Width: 318
Flags: W
HStem: 285 124<123 202>
VStem: 99 127
LayerCount: 2
Fore
SplineSet
123 409 m 1
 226 409 l 1
 202 285 l 1
 99 285 l 1
 123 409 l 1
EndSplineSet
Validated: 1
EndChar

StartChar: overscore
Encoding: 57359 57359 247
Width: 500
Flags: W
HStem: 673 72<185 463>
VStem: 171 306
LayerCount: 2
Fore
SplineSet
185 745 m 1
 477 745 l 1
 463 673 l 1
 171 673 l 1
 185 745 l 1
EndSplineSet
Validated: 1
EndChar

StartChar: Gbreve
Encoding: 286 286 248
Width: 775
Flags: W
HStem: -14 81<258.667 509.351> 300 81<445 590> 661 81<365.84 612.462> 810 64<422.386 572.641>
VStem: 52.277 104.701<163.516 407.879> 351.092 58.9078<887.875 928>
LayerCount: 2
Fore
SplineSet
552 104 m 1
 590 300 l 1
 429 300 l 1
 445 381 l 1
 704 381 l 1
 643 68 l 1
 556 13 458 -14 354 -14 c 0
 240 -14 157 19 105 86 c 0
 69.8513513514 132.175675676 52.277027027 190.225894814 52.277027027 260.805361973 c 0
 52.277027027 292.63531775 55.8513513514 327.013513514 63 364 c 0
 86 483 136 575 213 642 c 0
 291 709 387 742 501 742 c 0
 596 742 678 718 741 673 c 1
 721 568 l 1
 660 629 584 661 493 661 c 0
 314 661 206 561 167 364 c 0
 160.320250859 329.370774189 156.977660476 297.738811337 156.977660476 269.120406315 c 0
 156.977660476 134.933387386 230.465134113 67 378 67 c 0
 447 67 504 79 552 104 c 1
352 928 m 1
 410 928 l 1
 411 893 439 874 494 874 c 0
 547 874 582 892 600 928 c 1
 658 928 l 1
 636 851 575 810 482 810 c 0
 396.044034501 810 351.092178637 845.024343647 351.092178637 911.125284711 c 0
 351.092178637 916.542213096 351.394061548 922.167842402 352 928 c 1
EndSplineSet
Validated: 524289
EndChar

StartChar: gbreve
Encoding: 287 287 249
Width: 635
Flags: W
HStem: -208 74<80.0557 291.107> 0 75<180.026 318.056> 485 75<250.708 405.887> 527 20G<493.145 587> 645 67<328.829 466.328>
VStem: 36.9688 94.9482<124.236 332.216> 252.288 59.6088<728.199 785>
LayerCount: 2
Fore
SplineSet
445 280 m 0xee
 449.804806564 304.79280187 452.171713986 327.627896854 452.171713986 348.342003994 c 0
 452.171713986 435.405946109 410.357350532 485 332 485 c 0
 236 485 164 409 139 280 c 0
 134.248198499 255.480704256 131.916931995 232.876160076 131.916931995 212.344304023 c 0
 131.916931995 124.854728364 174.246917763 75 252 75 c 0
 349 75 420 151 445 280 c 0xee
494 68 m 2
 457 -119 359 -208 188 -208 c 0
 125 -208 72 -199 23 -179 c 1
 40 -92 l 1
 87 -120 135 -134 188 -134 c 0
 305 -134 376 -73 401 52 c 1
 409 96 l 1
 360 32 296 0 216 0 c 0
 149 0 98 25 67 76 c 0
 46.9791666667 108.9375 36.96875 148.965711806 36.96875 196.084635417 c 0
 36.96875 221.924045139 39.9791666667 249.895833333 46 280 c 0
 62 365 95 432 146 483 c 0
 197 534 257 560 324 560 c 0xee
 404 560 456 528 481 464 c 1
 497 547 l 1
 587 547 l 1xde
 494 68 l 2
254 785 m 1
 312 785 l 1
 311.931034483 783.344827586 311.896551724 781.717003567 311.896551724 780.116609947 c 0
 311.896551724 735.305588585 338.931034483 712 393 712 c 0
 449 712 485 736 502 785 c 1
 560 785 l 1
 535 692 475 645 380 645 c 0
 294.858490566 645 252.287735849 682.751423994 252.287735849 757.5344034 c 0
 252.287735849 766.193485226 252.858490566 775.349056604 254 785 c 1
EndSplineSet
Validated: 524289
EndChar

StartChar: Idot
Encoding: 57345 57345 250
Width: 295
Flags: W
HStem: 0 21G<35 137.868> 709 20G<172.132 275> 814 100<212 293>
VStem: 35 277
LayerCount: 2
Fore
SplineSet
176 729 m 1
 275 729 l 1
 134 0 l 1
 35 0 l 1
 176 729 l 1
212 914 m 1
 312 914 l 1
 293 814 l 1
 193 814 l 1
 212 914 l 1
EndSplineSet
Validated: 1
EndChar

StartChar: Scedilla
Encoding: 350 350 251
Width: 635
Flags: W
HStem: -193 60<121.165 252.61> -14 80<126 254.615> 662 80<286.721 518.088>
VStem: 101.407 102.504<466.58 586.466> 264.609 65.0659<-120.342 -19.3513> 453.02 107.041<147.364 278.08>
LayerCount: 2
Fore
SplineSet
609 705 m 1
 590 609 l 1
 522 645 459 662 398 662 c 0
 290 662 222 619 207 542 c 0
 204.988893001 532.099165544 203.911144009 523.035960068 203.911144009 514.714122914 c 0
 203.911144009 469.242759083 236.088855991 445.905989232 324 429 c 1
 382 417 l 2
 502.366383391 393.09745578 560.061185999 339.316599792 560.061185999 250.058556586 c 0
 560.061185999 234.757637917 558.365767248 218.414187067 555 201 c 0
 530.704929285 78.6569653289 444.674478717 6.75625322102 302.787911704 -10.1293759522 c 1
 320.970777628 -38.563521104 329.674542856 -63.9440239078 329.674542862 -87.4338876206 c 0
 329.674542862 -93.4050611938 329.112116631 -99.254064072 328 -105 c 0
 317 -162 272 -193 195 -193 c 0
 166 -193 138 -189 111 -181 c 1
 124 -117 l 1
 145 -128 166 -133 197 -133 c 0
 236 -133 258 -116 264 -87 c 0
 264.404141504 -84.3057233042 264.608657019 -81.4844118873 264.608657019 -78.5213971771 c 0
 264.608657019 -62.1408578638 258.358153037 -41.4295126335 245.031012477 -13.9089636918 c 1
 241.384012686 -13.9696351693 237.706983591 -14.0000000002 234 -14 c 0
 165 -14 89 1 12 32 c 1
 32 134 l 1
 103 89 174 66 249 66 c 0
 361 66 434 111 450 194 c 0
 452 204.285714286 453.020408163 213.857142857 453.020408163 222.766763848 c 0
 453.020408163 276.224489796 416.285714286 305.857142857 334 323 c 2
 277 335 l 2
 155.55977051 359.801173628 101.407336058 406.544019551 101.407336058 488.989391717 c 0
 101.407336058 502.947352258 102.959470558 517.928630094 106 534 c 0
 131 663 243 742 403 742 c 0
 471 742 538 730 609 705 c 1
EndSplineSet
Validated: 524289
EndChar

StartChar: scedilla
Encoding: 351 351 252
Width: 521
Flags: W
HStem: -193 60<64.1654 195.61> -14 75<77.5638 197.62> 485 75<204.801 428.71>
VStem: 68.4338 89.9625<349.904 444.271> 207.609 65.0659<-120.342 -19.009> 346.042 95.7355<106.259 199.553>
LayerCount: 2
Fore
SplineSet
483 531 m 1
 466 446 l 1
 420 471 369 485 310 485 c 0
 221 485 171 458 160 403 c 0
 158.962800165 397.684350845 158.39625561 392.704884034 158.39625561 388.018013532 c 0
 158.39625561 356.554700866 183.927798103 338.277350433 264 320 c 1
 293 313 l 1
 397.989651177 289.099916805 441.777804849 252.813816258 441.777804849 187.350259662 c 0
 441.777804849 176.120376752 440.489235203 164.031878417 438 151 c 0
 421.249093538 66.4079223679 350.484060123 7.77068496034 245.093162358 -9.04858827317 c 1
 263.74912937 -37.9209471807 272.674542862 -63.6468102833 272.674542862 -87.4338876206 c 0
 272.674542862 -93.4050611938 272.112116631 -99.254064072 271 -105 c 0
 260 -162 215 -193 138 -193 c 0
 109 -193 81 -189 54 -181 c 1
 67 -117 l 1
 88 -128 109 -133 140 -133 c 0
 179 -133 201 -116 207 -87 c 0
 207.404141504 -84.3057233042 207.608657019 -81.4844118873 207.608657019 -78.5213971771 c 0
 207.608657019 -62.1450248727 201.361332736 -41.4400497792 188.041181888 -13.9299650437 c 1
 185.377034768 -13.9765920614 182.696563863 -14 180 -14 c 0
 121 -14 61 -3 -6 20 c 1
 12 113 l 1
 73 78 133 61 196 61 c 0
 281 61 334 91 344 144 c 0
 345.348480035 150.742400177 346.042336645 156.975648801 346.042336645 162.738979054 c 0
 346.042336645 178.345376574 340.954559894 190.506048092 330 200 c 1
 317 213 283 226 230 238 c 2
 200 245 l 2
 108.777819351 265.461049865 68.4337972282 301.185547288 68.4337972282 363.946938837 c 0
 68.4337972282 374.802170438 69.6406999101 386.466218272 72 399 c 0
 92 502 178 560 313 560 c 0
 380 560 437 550 483 531 c 1
EndSplineSet
Validated: 524289
EndChar

StartChar: Cacute
Encoding: 262 262 253
Width: 698
Flags: W
HStem: -14 81<256.843 483.71> 661 81<362.247 593.393>
VStem: 52.6898 104.742<165.442 409.664>
LayerCount: 2
Fore
SplineSet
711 673 m 1
 691 569 l 1
 636 630 567 661 483 661 c 0
 316 661 205 556 167 364 c 0
 160.600546029 330.792022639 157.431862841 300.18661063 157.431862841 272.276895365 c 0
 157.431862841 138.819801911 229.884021976 67 368 67 c 0
 452 67 533 98 611 159 c 1
 591 56 l 1
 513 9 433 -14 346 -14 c 0
 236 -14 155 20 104 87 c 0
 69.5756565278 133.128620253 52.6898373233 191.58160891 52.6898373233 261.706260908 c 0
 52.6898373233 293.434897782 56.1467111277 327.552963725 63 364 c 0
 86 481 136 574 212 641 c 0
 289 708 383 742 493 742 c 0
 581 742 652 720 711 673 c 1
541 927 m 1
 631 927 l 1
 495 798 l 1
 420 798 l 1
 541 927 l 1
EndSplineSet
Validated: 524289
EndChar

StartChar: cacute
Encoding: 263 263 254
Width: 550
Flags: W
HStem: -14 76<195.117 393.845> 484 76<268.943 471.438>
VStem: 36.5906 96.9186<122.588 325.333>
LayerCount: 2
Fore
SplineSet
527 526 m 1
 510 442 l 1
 465 470 417 484 365 484 c 0
 249 484 165 406 140 273 c 0
 135.64774237 250.736528278 133.509137953 230.014207526 133.509137953 210.940920389 c 0
 133.509137953 116.072086506 186.41776481 62 283 62 c 0
 335 62 388 76 445 104 c 1
 429 21 l 1
 373 -3 319 -14 258 -14 c 0
 176 -14 116 12 77 63 c 0
 50.1689135531 98.7747819292 36.5905566248 143.069175692 36.5905566248 195.883181288 c 0
 36.5905566248 219.836332412 39.3835783601 245.541938649 45 273 c 1
 62 362 99 432 158 483 c 0
 217 534 290 560 375 560 c 0
 431 560 482 549 527 526 c 1
477 800 m 1
 574 800 l 1
 379 616 l 1
 304 616 l 1
 477 800 l 1
EndSplineSet
Validated: 524289
EndChar

StartChar: Ccaron
Encoding: 268 268 255
Width: 698
Flags: W
HStem: -14 81<256.843 483.71> 661 81<362.247 593.393>
VStem: 52.6898 104.742<165.442 409.664>
LayerCount: 2
Fore
SplineSet
711 673 m 1
 691 569 l 1
 636 630 567 661 483 661 c 0
 316 661 205 556 167 364 c 0
 160.600546029 330.792022639 157.431862841 300.18661063 157.431862841 272.276895365 c 0
 157.431862841 138.819801911 229.884021976 67 368 67 c 0
 452 67 533 98 611 159 c 1
 591 56 l 1
 513 9 433 -14 346 -14 c 0
 236 -14 155 20 104 87 c 0
 69.5756565278 133.128620253 52.6898373233 191.58160891 52.6898373233 261.706260908 c 0
 52.6898373233 293.434897782 56.1467111277 327.552963725 63 364 c 0
 86 481 136 574 212 641 c 0
 289 708 383 742 493 742 c 0
 581 742 652 720 711 673 c 1
443 798 m 1
 365 928 l 1
 433 928 l 1
 497 841 l 1
 595 928 l 1
 663 928 l 1
 535 798 l 1
 443 798 l 1
EndSplineSet
Validated: 524289
EndChar

StartChar: ccaron
Encoding: 269 269 256
Width: 550
Flags: W
HStem: -14 76<195.117 393.845> 484 76<268.943 471.438>
VStem: 36.5906 96.9186<122.588 325.333>
LayerCount: 2
Fore
SplineSet
527 526 m 1
 510 442 l 1
 465 470 417 484 365 484 c 0
 249 484 165 406 140 273 c 0
 135.64774237 250.736528278 133.509137953 230.014207526 133.509137953 210.940920389 c 0
 133.509137953 116.072086506 186.41776481 62 283 62 c 0
 335 62 388 76 445 104 c 1
 429 21 l 1
 373 -3 319 -14 258 -14 c 0
 176 -14 116 12 77 63 c 0
 50.1689135531 98.7747819292 36.5905566248 143.069175692 36.5905566248 195.883181288 c 0
 36.5905566248 219.836332412 39.3835783601 245.541938649 45 273 c 1
 62 362 99 432 158 483 c 0
 217 534 290 560 375 560 c 0
 431 560 482 549 527 526 c 1
337 616 m 1
 253 800 l 1
 321 800 l 1
 386 680 l 1
 497 800 l 1
 565 800 l 1
 409 616 l 1
 337 616 l 1
EndSplineSet
Validated: 524289
EndChar

StartChar: dslash
Encoding: 57355 57355 257
Width: 635
Flags: W
HStem: -14 75<177.635 315.473> 0 21G<391 484.86> 485 75<252.969 402.861> 627 61<365 512 614 677> 740 20G<534.111 628>
VStem: 35.9688 94.3741<109.949 324.418>
LayerCount: 2
Fore
SplineSet
481 464 m 1xbc
 512 627 l 1
 353 627 l 1
 365 688 l 1
 524 688 l 1
 538 760 l 1
 628 760 l 1
 614 688 l 1
 689 688 l 1
 677 627 l 1
 602 627 l 1
 481 0 l 1
 391 0 l 1x7c
 406 82 l 1
 357 17 293 -14 213 -14 c 0
 147 -14 98 12 66 65 c 0
 45.9791666667 99.2291666667 35.96875 140.131944444 35.96875 187.977710865 c 0
 35.96875 214.215711806 38.9791666667 242.541666667 45 273 c 0
 61 359 96 428 147 481 c 0
 199 534 258 560 324 560 c 0
 404 560 456 529 481 464 c 1xbc
138 273 m 0
 132.864381478 246.92685981 130.342811328 222.882533283 130.342811328 201.082802935 c 0
 130.342811328 112.517445497 171.962283774 61 249 61 c 0xbc
 344 61 418 141 444 273 c 0
 448.758820668 298.126573128 451.089950027 321.368967926 451.089950027 342.534060495 c 0
 451.089950027 432.557716384 408.916481461 485 332 485 c 0
 236 485 163 405 138 273 c 0
EndSplineSet
Validated: 524289
EndChar

StartChar: sfthyphen
Encoding: 57360 57360 258
Width: 361
Flags: W
HStem: 234 80<47 294>
VStem: 31 279
LayerCount: 2
Fore
SplineSet
47 314 m 1
 310 314 l 1
 294 234 l 1
 31 234 l 1
 47 314 l 1
EndSplineSet
Validated: 1
EndChar

StartChar: c6459
Encoding: 57346 57346 259
Width: 500
Flags: W
HStem: 632 99<184 263 375 454>
VStem: 164 310
LayerCount: 2
Fore
SplineSet
375 731 m 1
 474 731 l 1
 454 632 l 1
 355 632 l 1
 375 731 l 1
184 731 m 1
 283 731 l 1
 263 632 l 1
 164 632 l 1
 184 731 l 1
EndSplineSet
Validated: 1
EndChar

StartChar: c6460
Encoding: 57347 57347 260
Width: 500
Flags: W
HStem: 616 129
VStem: 237 211
LayerCount: 2
Fore
SplineSet
358 745 m 1
 448 745 l 1
 312 616 l 1
 237 616 l 1
 358 745 l 1
EndSplineSet
Validated: 1
EndChar

StartChar: c6461
Encoding: 57348 57348 261
Width: 500
Flags: W
HStem: 632 59<336.937 420.044> 681 58<219.168 301.727>
VStem: 148 62<635 673.516> 430 61<699.844 739>
LayerCount: 2
Fore
SplineSet
311 653 m 1xb0
 287 669 l 2
 272 678 264 681 256 681 c 0x70
 232 681 216 664 210 635 c 1
 209 632 l 1
 148 632 l 1xb0
 161 697 205 739 261 739 c 0x70
 285 739 300 735 328 718 c 2
 353 703 l 2
 367 695 377 691 386 691 c 0xb0
 407 691 424 709 430 736 c 1
 430 739 l 1
 491 739 l 1x70
 478 674 433 632 378 632 c 0
 355 632 341 636 311 653 c 1xb0
EndSplineSet
Validated: 1
EndChar

StartChar: c6462
Encoding: 57349 57349 262
Width: 500
Flags: W
HStem: 616 129<299 303>
VStem: 212 162
LayerCount: 2
Fore
SplineSet
303 745 m 1
 374 616 l 1
 299 616 l 1
 212 745 l 1
 303 745 l 1
EndSplineSet
Validated: 1
EndChar

StartChar: c6463
Encoding: 57350 57350 263
Width: 500
Flags: W
HStem: 616 130
VStem: 157 298
LayerCount: 2
Fore
SplineSet
286 746 m 1
 378 746 l 1
 455 616 l 1
 387 616 l 1
 323 703 l 1
 225 616 l 1
 157 616 l 1
 286 746 l 1
EndSplineSet
Validated: 1
EndChar

StartChar: c6466
Encoding: 57351 57351 264
Width: 500
Flags: W
HStem: 616 130
VStem: 183 298
LayerCount: 2
Fore
SplineSet
260 616 m 1
 183 746 l 1
 251 746 l 1
 315 659 l 1
 413 746 l 1
 481 746 l 1
 352 616 l 1
 260 616 l 1
EndSplineSet
Validated: 1
EndChar

